<?xml version="1.0" encoding="UTF-8" standalone="no"?>
<svg
   version="1.1"
   width="100mm"
   height="66.122368mm"
   id="svg3"
   sodipodi:docname="santa_sleigh_2023-11-15.svg"
   inkscape:version="1.3 (0e150ed6c4, 2023-07-21)"
   xmlns:inkscape="http://www.inkscape.org/namespaces/inkscape"
   xmlns:sodipodi="http://sodipodi.sourceforge.net/DTD/sodipodi-0.dtd"
   xmlns="http://www.w3.org/2000/svg"
   xmlns:svg="http://www.w3.org/2000/svg">
  <defs
     id="defs3">
    <inkscape:path-effect
       effect="fillet_chamfer"
       id="path-effect2"
       is_visible="true"
       lpeversion="1"
       nodesatellites_param="F,0,0,1,0,0,0,1 @ F,0,0,1,0,0,0,1 @ F,0,0,1,0,0,0,1 @ F,0,0,1,0,0,0,1 @ F,0,0,1,0,0,0,1 @ F,0,0,1,0,0,0,1 @ F,0,0,1,0,0,0,1 @ F,0,0,1,0,0,0,1 @ F,0,0,1,0,0,0,1 @ F,0,0,1,0,0,0,1 @ F,0,0,1,0,0,0,1 @ F,0,0,1,0,0,0,1 @ F,0,0,1,0,0,0,1 @ F,0,0,1,0,0,0,1 @ F,0,0,1,0,0,0,1 @ F,0,0,1,0,0,0,1 @ F,0,0,1,0,0,0,1 @ F,0,0,1,0,0,0,1 @ F,0,0,1,0,0,0,1 @ F,0,0,1,0,0,0,1 @ F,0,0,1,0,0,0,1 @ F,0,0,1,0,0,0,1 @ F,0,0,1,0,0,0,1 @ F,0,0,1,0,0,0,1 @ F,0,0,1,0,0,0,1 @ F,0,0,1,0,0,0,1 @ F,0,0,1,0,0,0,1 @ F,0,0,1,0,0,0,1 @ F,0,0,1,0,0,0,1 @ F,0,0,1,0,0,0,1 @ F,0,0,1,0,0,0,1 @ F,0,0,1,0,0,0,1 @ F,0,0,1,0,0,0,1 @ F,0,0,1,0,0,0,1 @ F,0,0,1,0,0,0,1 @ F,0,0,1,0,0,0,1 @ F,0,0,1,0,0,0,1 @ F,0,0,1,0,0,0,1 @ F,0,0,1,0,8.2995571,0,1 @ F,0,0,1,0,8.4330081,0,1 @ F,0,0,1,0,0,0,1 @ F,0,0,1,0,0,0,1 @ F,0,0,1,0,0,0,1 @ F,0,0,1,0,0,0,1 @ F,0,0,1,0,0,0,1 @ F,0,0,1,0,0,0,1 @ F,0,0,1,0,0,0,1 @ F,0,0,1,0,0,0,1 @ F,0,0,1,0,0,0,1 @ F,0,0,1,0,0,0,1 @ F,0,0,1,0,0,0,1 @ F,0,0,1,0,0,0,1 @ F,0,0,1,0,0,0,1 @ F,0,0,1,0,0,0,1 @ F,0,0,1,0,0,0,1 @ F,0,0,1,0,0,0,1 @ F,0,0,1,0,0,0,1 @ F,0,0,1,0,0,0,1 @ F,0,0,1,0,0,0,1 @ F,0,0,1,0,0,0,1 @ F,0,0,1,0,0,0,1 @ F,0,0,1,0,0,0,1 @ F,0,0,1,0,0,0,1 @ F,0,0,1,0,0,0,1 @ F,0,0,1,0,0,0,1 @ F,0,0,1,0,0,0,1 @ F,0,0,1,0,0,0,1 @ F,0,0,1,0,0,0,1 @ F,0,0,1,0,0,0,1 @ F,0,0,1,0,0,0,1 @ F,0,0,1,0,0,0,1 @ F,0,0,1,0,0,0,1 @ F,0,0,1,0,0,0,1 @ F,0,0,1,0,0,0,1 @ F,0,0,1,0,0,0,1 @ F,0,0,1,0,0,0,1 @ F,0,0,1,0,0,0,1 @ F,0,0,1,0,0,0,1 @ F,0,0,1,0,0,0,1 @ F,0,0,1,0,0,0,1 @ F,0,0,1,0,0,0,1 @ F,0,0,1,0,0,0,1 @ F,0,0,1,0,0,0,1 @ F,0,0,1,0,0,0,1 @ F,0,0,1,0,0,0,1 @ F,0,0,1,0,0,0,1 @ F,0,0,1,0,0,0,1 @ F,0,0,1,0,0,0,1 @ F,0,0,1,0,0,0,1 @ F,0,0,1,0,0,0,1 @ F,0,0,1,0,0,0,1 @ F,0,0,1,0,0,0,1 @ F,0,0,1,0,0,0,1 @ F,0,0,1,0,0,0,1 @ F,0,0,1,0,0,0,1 @ F,0,0,1,0,0,0,1 @ F,0,0,1,0,0,0,1 @ F,0,0,1,0,0,0,1 @ F,0,0,1,0,0,0,1 @ F,0,0,1,0,0,0,1 @ F,0,0,1,0,0,0,1 @ F,0,0,1,0,0,0,1 @ F,0,0,1,0,0,0,1 | F,0,0,1,0,5.2032688,0,1 @ F,0,0,1,0,5.5964292,0,1 @ F,0,0,1,0,0,0,1 @ F,0,0,1,0,0,0,1 @ F,0,0,1,0,0,0,1 @ F,0,0,1,0,0,0,1 @ F,0,0,1,0,0,0,1 @ F,0,0,1,0,0,0,1 @ F,0,0,1,0,0,0,1 @ F,0,0,1,0,8.2019256,0,1 @ F,0,0,1,0,0,0,1 @ F,0,0,1,0,0,0,1 @ F,0,0,1,0,0,0,1 @ F,0,0,1,0,0,0,1 @ F,0,0,1,0,0,0,1"
       radius="0"
       unit="px"
       method="auto"
       mode="F"
       chamfer_steps="1"
       flexible="false"
       use_knot_distance="true"
       apply_no_radius="true"
       apply_with_radius="true"
       only_selected="false"
       hide_knots="false" />
    <inkscape:path-effect
       effect="fillet_chamfer"
       id="path-effect1"
       is_visible="true"
       lpeversion="1"
       nodesatellites_param="F,0,0,1,0,0,0,1 @ F,0,0,1,0,0,0,1 @ F,0,0,1,0,0,0,1 @ F,0,0,1,0,0,0,1 @ F,0,0,1,0,0,0,1 @ F,0,0,1,0,0,0,1 @ F,0,0,1,0,0,0,1 @ F,0,0,1,0,0,0,1 @ F,0,0,1,0,0,0,1 @ F,0,0,1,0,0,0,1 @ F,0,0,1,0,0,0,1 @ F,0,0,1,0,0,0,1 @ F,0,0,1,0,0,0,1 @ F,0,0,1,0,0,0,1 @ F,0,0,1,0,0,0,1 @ F,0,0,1,0,0,0,1 @ F,0,0,1,0,0,0,1 @ F,0,0,1,0,0,0,1 @ F,0,0,1,0,0,0,1 @ F,0,0,1,0,0,0,1 @ F,0,0,1,0,0,0,1 @ F,0,0,1,0,0,0,1 @ F,0,0,1,0,0,0,1 @ F,0,0,1,0,0,0,1 @ F,0,0,1,0,0,0,1 @ F,0,0,1,0,0,0,1 @ F,0,0,1,0,0,0,1 @ F,0,0,1,0,0,0,1 @ F,0,0,1,0,0,0,1 @ F,0,0,1,0,0,0,1 @ F,0,0,1,0,0,0,1 @ F,0,0,1,0,0,0,1 @ F,0,0,1,0,0,0,1 @ F,0,0,1,0,0,0,1 @ F,0,0,1,0,0,0,1 @ F,0,0,1,0,0,0,1 @ F,0,0,1,0,0,0,1 @ F,0,0,1,0,0,0,1 @ F,0,0,1,0,0,0,1 @ F,0,0,1,0,0,0,1 @ F,0,0,1,0,0,0,1 @ F,0,0,1,0,0,0,1 @ F,0,0,1,0,0,0,1 @ F,0,0,1,0,0,0,1 @ F,0,0,1,0,0,0,1 @ F,0,0,1,0,0,0,1 @ F,0,0,1,0,0,0,1 @ F,0,0,1,0,0,0,1 @ F,0,0,1,0,0,0,1 @ F,0,0,1,0,0,0,1 @ F,0,0,1,0,0,0,1 @ F,0,0,1,0,0,0,1 @ F,0,0,1,0,0,0,1 @ F,0,0,1,0,0,0,1 @ F,0,0,1,0,0,0,1 @ F,0,0,1,0,0,0,1 @ F,0,0,1,0,0,0,1 @ F,0,0,1,0,0,0,1 @ F,0,0,1,0,0,0,1 @ F,0,0,1,0,0,0,1 @ F,0,0,1,0,0,0,1 @ F,0,0,1,0,0,0,1 @ F,0,0,1,0,0,0,1 @ F,0,0,1,0,0,0,1 @ F,0,0,1,0,0,0,1 @ F,0,0,1,0,0,0,1 @ F,0,0,1,0,0,0,1 @ F,0,0,1,0,0,0,1 @ F,0,0,1,0,0,0,1 @ F,0,0,1,0,0,0,1 @ F,0,0,1,0,0,0,1 @ F,0,0,1,0,0,0,1 @ F,0,0,1,0,0,0,1 @ F,0,0,1,0,0,0,1 @ F,0,0,1,0,0,0,1 @ F,0,0,1,0,0,0,1 @ F,0,0,1,0,0,0,1 @ F,0,0,1,0,0,0,1 @ F,0,0,1,0,0,0,1 @ F,0,0,1,0,0,0,1 @ F,0,0,1,0,0,0,1 @ F,0,0,1,0,0,0,1 @ F,0,0,1,0,0,0,1 @ F,0,0,1,0,0,0,1 @ F,0,0,1,0,0,0,1 @ F,0,0,1,0,0,0,1 @ F,0,0,1,0,0,0,1 @ F,0,0,1,0,0,0,1 @ F,0,0,1,0,0,0,1 @ F,0,0,1,0,0,0,1 @ F,0,0,1,0,0,0,1 @ F,0,0,1,0,0,0,1 @ F,0,0,1,0,0,0,1 @ F,0,0,1,0,0,0,1 @ F,0,0,1,0,0,0,1 @ F,0,0,1,0,0,0,1 @ F,0,0,1,0,0,0,1 @ F,0,0,1,0,0,0,1 @ F,0,0,1,0,0,0,1 @ F,0,0,1,0,0,0,1 @ F,0,0,1,0,0,0,1 @ F,0,0,1,0,0,0,1 @ F,0,0,1,0,0,0,1 | F,0,0,1,0,0,0,1 @ F,0,0,1,0,0,0,1 @ F,0,0,1,0,0,0,1 @ F,0,0,1,0,0,0,1 @ F,0,0,1,0,0,0,1 @ F,0,0,1,0,0,0,1 @ F,0,0,1,0,0,0,1 @ F,0,0,1,0,0,0,1 @ F,0,0,1,0,0,0,1 @ F,0,0,1,0,0,0,1 @ F,0,0,1,0,0,0,1 @ F,0,0,1,0,0,0,1 @ F,0,0,1,0,0,0,1 @ F,0,0,1,0,0,0,1 @ F,0,0,1,0,0,0,1"
       radius="0"
       unit="px"
       method="auto"
       mode="F"
       chamfer_steps="1"
       flexible="false"
       use_knot_distance="true"
       apply_no_radius="true"
       apply_with_radius="true"
       only_selected="false"
       hide_knots="false" />
    <inkscape:path-effect
       effect="fillet_chamfer"
       id="path-effect12"
       is_visible="true"
       lpeversion="1"
       nodesatellites_param="F,0,0,1,0,0,0,1 @ F,0,0,1,0,0,0,1 @ F,0,0,1,0,0,0,1 @ F,0,0,1,0,0,0,1 @ F,0,0,1,0,0,0,1 @ F,0,0,1,0,0,0,1 @ F,0,0,1,0,0,0,1 @ F,0,0,1,0,0,0,1 @ F,0,0,1,0,0,0,1 @ F,0,0,1,0,0,0,1 @ F,0,0,1,0,0,0,1 @ F,0,0,1,0,0,0,1 @ F,0,0,1,0,0,0,1 @ F,0,0,1,0,0,0,1 @ F,0,0,1,0,0,0,1 @ F,0,0,1,0,0,0,1 @ F,0,0,1,0,0,0,1 @ F,0,0,1,0,0,0,1 @ F,0,0,1,0,0,0,1 @ F,0,0,1,0,0,0,1 @ F,0,0,1,0,0,0,1 @ F,0,0,1,0,0,0,1 @ F,0,0,1,0,0,0,1 @ F,0,0,1,0,0,0,1 @ F,0,0,1,0,0,0,1 @ F,0,0,1,0,0,0,1 @ F,0,0,1,0,0,0,1 @ F,0,0,1,0,0,0,1 @ F,0,0,1,0,0,0,1 @ F,0,0,1,0,0,0,1 @ F,0,0,1,0,0,0,1 @ F,0,0,1,0,0,0,1 @ F,0,0,1,0,0,0,1 @ F,0,0,1,0,0,0,1 @ F,0,0,1,0,0,0,1 @ F,0,0,1,0,0,0,1 @ F,0,0,1,0,0,0,1 @ F,0,0,1,0,0,0,1 @ F,0,0,1,0,3.7795247,0,1 @ F,0,0,1,0,3.7795273,0,1 @ F,0,0,1,0,0,0,1 @ F,0,0,1,0,0,0,1 @ F,0,0,1,0,0,0,1 @ F,0,0,1,0,0,0,1 @ F,0,0,1,0,0,0,1 @ F,0,0,1,0,0,0,1 @ F,0,0,1,0,0,0,1 @ F,0,0,1,0,0,0,1 @ F,0,0,1,0,0,0,1 @ F,0,0,1,0,0,0,1 @ F,0,0,1,0,0,0,1 @ F,0,0,1,0,0,0,1 @ F,0,0,1,0,0,0,1 @ F,0,0,1,0,0,0,1 @ F,0,0,1,0,0,0,1 @ F,0,0,1,0,0,0,1 @ F,0,0,1,0,0,0,1 @ F,0,0,1,0,0,0,1 @ F,0,0,1,0,0,0,1 @ F,0,0,1,0,0,0,1 @ F,0,0,1,0,0,0,1 @ F,0,0,1,0,0,0,1 @ F,0,0,1,0,0,0,1 @ F,0,0,1,0,0,0,1 @ F,0,0,1,0,0,0,1 @ F,0,0,1,0,0,0,1 @ F,0,0,1,0,0,0,1 @ F,0,0,1,0,0,0,1 @ F,0,0,1,0,0,0,1 @ F,0,0,1,0,0,0,1 @ F,0,0,1,0,0,0,1 @ F,0,0,1,0,0,0,1 @ F,0,0,1,0,0,0,1 @ F,0,0,1,0,0,0,1 @ F,0,0,1,0,0,0,1 @ F,0,0,1,0,0,0,1 @ F,0,0,1,0,0,0,1 @ F,0,0,1,0,0,0,1 @ F,0,0,1,0,0,0,1 @ F,0,0,1,0,0,0,1 @ F,0,0,1,0,0,0,1 @ F,0,0,1,0,0,0,1 @ F,0,0,1,0,0,0,1 @ F,0,0,1,0,0,0,1 @ F,0,0,1,0,0,0,1 @ F,0,0,1,0,0,0,1 @ F,0,0,1,0,0,0,1 @ F,0,0,1,0,0,0,1 @ F,0,0,1,0,0,0,1 @ F,0,0,1,0,0,0,1 @ F,0,0,1,0,0,0,1 @ F,0,0,1,0,0,0,1 @ F,0,0,1,0,0,0,1 @ F,0,0,1,0,0,0,1 @ F,0,0,1,0,0,0,1 @ F,0,0,1,0,0,0,1 @ F,0,0,1,0,0,0,1 @ F,0,0,1,0,0,0,1 @ F,0,0,1,0,0,0,1 @ F,0,0,1,0,0,0,1 @ F,0,0,1,0,0,0,1 @ F,0,0,1,0,0,0,1 @ F,0,0,1,0,0,0,1 | F,0,0,1,0,0,0,1 @ F,0,0,1,0,0,0,1 @ F,0,0,1,0,0,0,1 @ F,0,0,1,0,0,0,1 @ F,0,0,1,0,0,0,1 @ F,0,0,1,0,0,0,1 @ F,0,0,1,0,0,0,1 @ F,0,0,1,0,0,0,1 @ F,0,0,1,0,0,0,1 @ F,0,0,1,0,8.4411243,0,1 @ F,0,0,1,0,0,0,1 @ F,0,0,1,0,0,0,1 @ F,0,0,1,0,0,0,1 @ F,0,0,1,0,0,0,1 @ F,0,0,1,0,0,0,1"
       radius="0"
       unit="px"
       method="auto"
       mode="F"
       chamfer_steps="1"
       flexible="false"
       use_knot_distance="true"
       apply_no_radius="true"
       apply_with_radius="true"
       only_selected="false"
       hide_knots="false" />
    <inkscape:path-effect
       effect="fillet_chamfer"
       id="path-effect11"
       is_visible="true"
       lpeversion="1"
       nodesatellites_param="F,0,0,1,0,0,0,1 @ F,0,0,1,0,0,0,1 @ F,0,0,1,0,0,0,1 @ F,0,0,1,0,0,0,1 @ F,0,0,1,0,0,0,1 @ F,0,0,1,0,0,0,1 @ F,0,0,1,0,0,0,1 @ F,0,0,1,0,0,0,1 @ F,0,0,1,0,0,0,1 @ F,0,0,1,0,0,0,1 @ F,0,0,1,0,0,0,1 @ F,0,0,1,0,0,0,1 @ F,0,0,1,0,0,0,1 @ F,0,0,1,0,0,0,1 @ F,0,0,1,0,0,0,1 @ F,0,0,1,0,0,0,1 @ F,0,0,1,0,0,0,1 @ F,0,0,1,0,0,0,1 @ F,0,0,1,0,0,0,1 @ F,0,0,1,0,0,0,1 @ F,0,0,1,0,0,0,1 @ F,0,0,1,0,0,0,1 @ F,0,0,1,0,0,0,1 @ F,0,0,1,0,0,0,1 @ F,0,0,1,0,0,0,1 @ F,0,0,1,0,0,0,1 @ F,0,0,1,0,0,0,1 @ F,0,0,1,0,0,0,1 @ F,0,0,1,0,0,0,1 @ F,0,0,1,0,0,0,1 @ F,0,0,1,0,0,0,1 @ F,0,0,1,0,0,0,1 @ F,0,0,1,0,0,0,1 @ F,0,0,1,0,0,0,1 @ F,0,0,1,0,0,0,1 @ F,0,0,1,0,0,0,1 @ F,0,0,1,0,0,0,1 @ F,0,0,1,0,0,0,1 @ F,0,0,1,0,3.7795247,0,1 @ F,0,0,1,0,0,0,1 @ F,0,0,1,0,0,0,1 @ F,0,0,1,0,0,0,1 @ F,0,0,1,0,0,0,1 @ F,0,0,1,0,0,0,1 @ F,0,0,1,0,0,0,1 @ F,0,0,1,0,0,0,1 @ F,0,0,1,0,0,0,1 @ F,0,0,1,0,0,0,1 @ F,0,0,1,0,0,0,1 @ F,0,0,1,0,0,0,1 @ F,0,0,1,0,0,0,1 @ F,0,0,1,0,0,0,1 @ F,0,0,1,0,0,0,1 @ F,0,0,1,0,0,0,1 @ F,0,0,1,0,0,0,1 @ F,0,0,1,0,0,0,1 @ F,0,0,1,0,0,0,1 @ F,0,0,1,0,0,0,1 @ F,0,0,1,0,0,0,1 @ F,0,0,1,0,0,0,1 @ F,0,0,1,0,0,0,1 @ F,0,0,1,0,0,0,1 @ F,0,0,1,0,0,0,1 @ F,0,0,1,0,0,0,1 @ F,0,0,1,0,0,0,1 @ F,0,0,1,0,0,0,1 @ F,0,0,1,0,0,0,1 @ F,0,0,1,0,0,0,1 @ F,0,0,1,0,0,0,1 @ F,0,0,1,0,0,0,1 @ F,0,0,1,0,0,0,1 @ F,0,0,1,0,0,0,1 @ F,0,0,1,0,0,0,1 @ F,0,0,1,0,0,0,1 @ F,0,0,1,0,0,0,1 @ F,0,0,1,0,0,0,1 @ F,0,0,1,0,0,0,1 @ F,0,0,1,0,0,0,1 @ F,0,0,1,0,0,0,1 @ F,0,0,1,0,0,0,1 @ F,0,0,1,0,0,0,1 @ F,0,0,1,0,0,0,1 @ F,0,0,1,0,0,0,1 @ F,0,0,1,0,0,0,1 @ F,0,0,1,0,0,0,1 @ F,0,0,1,0,0,0,1 @ F,0,0,1,0,0,0,1 @ F,0,0,1,0,0,0,1 @ F,0,0,1,0,0,0,1 @ F,0,0,1,0,0,0,1 @ F,0,0,1,0,0,0,1 @ F,0,0,1,0,0,0,1 @ F,0,0,1,0,0,0,1 @ F,0,0,1,0,0,0,1 @ F,0,0,1,0,0,0,1 @ F,0,0,1,0,0,0,1 @ F,0,0,1,0,0,0,1 @ F,0,0,1,0,0,0,1 @ F,0,0,1,0,0,0,1 @ F,0,0,1,0,0,0,1 @ F,0,0,1,0,0,0,1 @ F,0,0,1,0,0,0,1 @ F,0,0,1,0,0,0,1 | F,0,0,1,0,0,0,1 @ F,0,0,1,0,0,0,1 @ F,0,0,1,0,0,0,1 @ F,0,0,1,0,0,0,1 @ F,0,0,1,0,0,0,1 @ F,0,0,1,0,0,0,1 @ F,0,0,1,0,0,0,1 @ F,0,0,1,0,0,0,1 @ F,0,0,1,0,0,0,1 @ F,0,0,1,0,0,0,1 @ F,0,0,1,0,0,0,1 @ F,0,0,1,0,0,0,1 @ F,0,0,1,0,0,0,1 @ F,0,0,1,0,0,0,1 @ F,0,0,1,0,0,0,1"
       radius="0"
       unit="px"
       method="auto"
       mode="F"
       chamfer_steps="1"
       flexible="false"
       use_knot_distance="true"
       apply_no_radius="true"
       apply_with_radius="true"
       only_selected="false"
       hide_knots="false" />
    <inkscape:path-effect
       effect="fillet_chamfer"
       id="path-effect10"
       is_visible="true"
       lpeversion="1"
       nodesatellites_param="F,0,0,1,0,0,0,1 @ F,0,0,1,0,0,0,1 @ F,0,0,1,0,0,0,1 @ F,0,0,1,0,0,0,1 @ F,0,0,1,0,0,0,1 @ F,0,0,1,0,0,0,1 @ F,0,0,1,0,0,0,1 @ F,0,0,1,0,0,0,1 @ F,0,0,1,0,0,0,1 @ F,0,0,1,0,0,0,1 @ F,0,0,1,0,0,0,1 @ F,0,0,1,0,0,0,1 @ F,0,0,1,0,0,0,1 @ F,0,0,1,0,0,0,1 @ F,0,0,1,0,0,0,1 @ F,0,0,1,0,0,0,1 @ F,0,0,1,0,0,0,1 @ F,0,0,1,0,0,0,1 @ F,0,0,1,0,0,0,1 @ F,0,0,1,0,0,0,1 @ F,0,0,1,0,0,0,1 @ F,0,0,1,0,0,0,1 @ F,0,0,1,0,0,0,1 @ F,0,0,1,0,0,0,1 @ F,0,0,1,0,0,0,1 @ F,0,0,1,0,0,0,1 @ F,0,0,1,0,0,0,1 @ F,0,0,1,0,0,0,1 @ F,0,0,1,0,0,0,1 @ F,0,0,1,0,0,0,1 @ F,0,0,1,0,0,0,1 @ F,0,0,1,0,0,0,1 @ F,0,0,1,0,0,0,1 @ F,0,0,1,0,0,0,1 @ F,0,0,1,0,0,0,1 @ F,0,0,1,0,0,0,1 @ F,0,0,1,0,0,0,1 @ F,0,0,1,0,0,0,1 @ F,0,0,1,0,0,0,1 @ F,0,0,1,0,0,0,1 @ F,0,0,1,0,0,0,1 @ F,0,0,1,0,0,0,1 @ F,0,0,1,0,0,0,1 @ F,0,0,1,0,0,0,1 @ F,0,0,1,0,0,0,1 @ F,0,0,1,0,0,0,1 @ F,0,0,1,0,0,0,1 @ F,0,0,1,0,0,0,1 @ F,0,0,1,0,0,0,1 @ F,0,0,1,0,0,0,1 @ F,0,0,1,0,0,0,1 @ F,0,0,1,0,0,0,1 @ F,0,0,1,0,0,0,1 @ F,0,0,1,0,0,0,1 @ F,0,0,1,0,0,0,1 @ F,0,0,1,0,0,0,1 @ F,0,0,1,0,0,0,1 @ F,0,0,1,0,0,0,1 @ F,0,0,1,0,0,0,1 @ F,0,0,1,0,0,0,1 @ F,0,0,1,0,0,0,1 @ F,0,0,1,0,0,0,1 @ F,0,0,1,0,0,0,1 @ F,0,0,1,0,0,0,1 @ F,0,0,1,0,0,0,1 @ F,0,0,1,0,0,0,1 @ F,0,1,1,0,7.2066107,0,1 @ F,0,0,1,0,7.2066107,0,1 @ F,0,0,1,0,0,0,1 @ F,0,0,1,0,0,0,1 @ F,0,0,1,0,0,0,1 @ F,0,0,1,0,0,0,1 @ F,0,0,1,0,0,0,1 @ F,0,0,1,0,0,0,1 @ F,0,0,1,0,0,0,1 @ F,0,0,1,0,0,0,1 @ F,0,0,1,0,0,0,1 @ F,0,0,1,0,0,0,1 @ F,0,0,1,0,0,0,1 @ F,0,0,1,0,0,0,1 @ F,0,0,1,0,0,0,1 @ F,0,0,1,0,0,0,1 @ F,0,0,1,0,0,0,1 @ F,0,0,1,0,0,0,1 @ F,0,0,1,0,0,0,1 @ F,0,0,1,0,0,0,1 @ F,0,0,1,0,0,0,1 @ F,0,0,1,0,0,0,1 @ F,0,0,1,0,0,0,1 @ F,0,0,1,0,0,0,1 @ F,0,0,1,0,0,0,1 @ F,0,0,1,0,0,0,1 @ F,0,0,1,0,0,0,1 @ F,0,0,1,0,0,0,1 @ F,0,0,1,0,0,0,1 @ F,0,0,1,0,0,0,1 @ F,0,0,1,0,0,0,1 @ F,0,0,1,0,0,0,1 @ F,0,0,1,0,0,0,1 @ F,0,0,1,0,0,0,1 @ F,0,0,1,0,0,0,1 @ F,0,0,1,0,0,0,1 @ F,0,0,1,0,0,0,1 | F,0,0,1,0,0,0,1 @ F,0,0,1,0,0,0,1 @ F,0,0,1,0,0,0,1 @ F,0,0,1,0,0,0,1 @ F,0,0,1,0,0,0,1 @ F,0,0,1,0,0,0,1 @ F,0,0,1,0,0,0,1 @ F,0,0,1,0,0,0,1 @ F,0,0,1,0,0,0,1 @ F,0,0,1,0,8.4411243,0,1 @ F,0,0,1,0,0,0,1 @ F,0,0,1,0,0,0,1 @ F,0,0,1,0,0,0,1 @ F,0,0,1,0,0,0,1 @ F,0,0,1,0,0,0,1"
       radius="0"
       unit="px"
       method="auto"
       mode="F"
       chamfer_steps="1"
       flexible="false"
       use_knot_distance="true"
       apply_no_radius="true"
       apply_with_radius="true"
       only_selected="false"
       hide_knots="false" />
  </defs>
  <sodipodi:namedview
     id="namedview3"
     pagecolor="#505050"
     bordercolor="#eeeeee"
     borderopacity="1"
     inkscape:showpageshadow="0"
     inkscape:pageopacity="0"
     inkscape:pagecheckerboard="0"
     inkscape:deskcolor="#505050"
     inkscape:document-units="mm"
     showgrid="true"
     inkscape:zoom="4"
     inkscape:cx="173.375"
     inkscape:cy="141.875"
     inkscape:window-width="3440"
     inkscape:window-height="1369"
     inkscape:window-x="-8"
     inkscape:window-y="1432"
     inkscape:window-maximized="1"
     inkscape:current-layer="svg3">
    <inkscape:grid
       id="grid10"
       units="mm"
       originx="-49.13386"
       originy="-40.747685"
       spacingx="3.7795276"
       spacingy="3.7795276"
       empcolor="#0099e5"
       empopacity="0.30196078"
       color="#0099e5"
       opacity="0.14901961"
       empspacing="5"
       dotted="false"
       gridanglex="30"
       gridanglez="30"
       visible="true" />
  </sodipodi:namedview>
  <path
     id="path2"
     style="display:inline;fill:#ac0005;fill-opacity:1"
     d="m 304.52734,40.748047 c -1.96507,0.0061 -3.92944,0.0089 -5.89453,0.0078 -5.37623,-0.0072 -10.75267,-0.0078 -16.1289,0.002 -5.71074,0.01062 -11.42208,0.01393 -17.13282,0.01367 -9.57309,-6.38e-4 -19.14567,0.0045 -28.71875,0.01758 -11.13285,0.0158 -22.26558,0.02599 -33.39843,0.02539 -11.96476,-7.88e-4 -23.92978,0.0044 -35.89454,0.01367 -3.42621,0.0027 -6.85308,0.0032 -10.27929,0.0039 -5.47756,6.38e-4 -10.95409,0.0029 -16.43164,0.01172 -2.01932,0.0038 -4.03928,0.0087 -6.0586,0.01172 -2.80857,-8.27e-4 -5.61721,-0.0024 -8.42578,0.0039 l -2.55078,0.0078 c -7.75685,-0.01548 -14.82269,0.65729 -22.17578,3.265625 L 99,45 C 86.238698,49.00736 75.678144,55.324844 66.441406,65.085938 57.440235,75.829735 51.849695,88.844869 53,103 c 17.5298,2.90887 35.56138,7.75609 48.8125,20.25 10.13552,10.85161 15.68783,22.93121 15.63672,37.86524 l -0.0742,3.44726 c -0.0121,10.67972 -0.93446,20.65568 -4.27734,30.83789 L 112.375,197.5 c -3.58329,10.54566 -7.8105,20.84953 -12.513672,30.94532 -5.581277,11.82413 -10.14525,23.41764 -13.27539,36.13867 L 86,267 c -2.391404,9.35117 -3.17168,18.32029 -3.294922,27.98438 -0.0086,1.96476 -0.0091,1.96476 -0.01758,3.89062 -0.02174,4.72018 0.02407,9.41278 0.3125,14.125 3.754454,30.27274 20.520122,56.46392 43.593752,75.75586 0.69037,0.57142 1.36118,1.12702 2.03125,1.68164 1.23476,1.02851 2.47723,2.04783 3.72656,3.0586 1.55536,1.16013 3.10404,2.32923 4.64844,3.5039 11.78618,10.37161 21.74016,11.18899 36.85827,11.18899 h 7.55906 c 3.77953,0 9.00149,0.22356 15.11811,0 0.59816,-0.0229 3.19896,0.0222 3.77953,0 15.11811,0 -19.60326,60.93462 -47.7681,88.60009 L 150,499.00001 c -4.76308,4.28204 -7.43739,7.31875 -13.937,7.4567 -16.62,0.04 -46.684846,0.0503 -78.629595,0.0112 -4.583713,-0.006 -8.299545,3.70461 -8.299545,8.28833 v 47.5194 a 8.4330081,8.4330081 45 0 0 8.433008,8.43301 h 679.441022 24.28146 c 23.58383,-2.50746 47.58022,-12.0543 62.88252,-30.44278 0.62156,-0.77031 1.22485,-1.51797 1.82813,-2.26563 11.26247,-13.00858 19.1725,-28.66577 22.875,-45.5 3.98897,-21.70647 1.44795,-48.59011 -10.875,-67.5 -1.9961,-0.9688 -1.9961,-0.9688 -4,-1 -1.68816,1.12544 -3.38946,2.23423 -5.13086,3.27539 -1.26139,0.73543 -1.26164,0.73421 -2.49805,1.45508 -0.96945,0.56528 -1.91062,1.11345 -2.85156,1.66211 -1.04797,0.61011 -2.06488,1.20276 -3.08203,1.79492 -5.68085,3.32349 -11.35901,6.6521 -17.09766,9.875 -2.42631,1.35862 -4.85002,2.72063 -7.27148,4.08789 -1.1679,0.65986 -2.33636,1.3176 -3.50586,1.97461 -1.17149,0.64572 -2.30828,1.27367 -3.44531,1.90039 l -3.17578,1.79493 c -2.82202,1.57079 -2.82203,1.5708 -4.94141,3.17968 -0.8667,2.06055 -0.8667,2.06055 -1,4 1.69112,4.03871 2.23601,6.99559 2.22461,11.33594 -0.0126,0.77828 -0.0249,1.53367 -0.0371,2.28906 -0.008,8.88802 -2.06265,16.51684 -7.94531,23.44532 -7.51297,7.0263 -11.97653,10.32962 -22.11619,10.38612 -1.77153,-0.0219 -5.82261,0.0216 -7.55906,0 -2.49675,-0.002 -1.28279,0.006 -3.77953,0 h -30.23622 -7.55905 c -15.11812,0 -15.11812,0 -67.98433,-54.76133 -34.06292,-39.72686 -34.06292,-39.72686 -26.50387,-43.50639 h 15.11811 c 3.77953,0 9.17717,-0.0301 11.33859,0 7.55905,0 20.34472,0.81278 30.6878,-5.57958 29.08949,-16.19886 53.50662,-36.53335 69.19531,-66.39258 0.33201,-0.71635 0.65432,-1.41214 0.97656,-2.10742 3.55483,-7.62106 6.89798,-15.31768 10.10742,-23.08985 0.60551,-1.4673 1.21179,-2.93433 1.82032,-4.40039 5.72675,-13.79084 11.30289,-27.64105 16.87695,-41.49414 7.17362,-17.83792 11.48443,-60.14843 22.375,-53.125 3.9241,6.12408 4.1525,8.25635 7,12 5.6014,5.35681 12.51493,9.62537 20.32031,10.27735 10.58278,0.10653 18.37695,-2.0776 26.36719,-9.33985 6.04537,-6.61035 9.54716,-13.60612 9.87305,-22.5957 0.0185,-17.72534 -5.55446,-32.72601 -17.74024,-45.6543 -12.44272,-12.07555 -26.14803,-15.94043 -43.14062,-15.91211 -1.20859,0.0126 -2.38165,0.0249 -3.55469,0.0371 -4.37775,0.002 -8.75231,-0.0337 -13.125,0.1875 -15.57134,2.61171 -32.01271,12.29354 -42.05078,24.49219 -1.88962,2.5095 -1.88962,2.50951 -3.96485,4.66406 -5.03343,5.27984 -9.60757,10.80626 -14.06054,16.58008 -0.71818,0.93965 -1.41427,1.85166 -2.11133,2.76367 -4.69805,6.11681 -9.08343,12.3282 -13.17578,18.86719 -7.18366,11.55815 -14.45567,22.54846 -24.14649,32.16992 -0.50701,0.49738 -0.99813,0.98014 -1.49023,1.46289 -1.45631,1.44372 -2.91856,2.87921 -4.39648,4.30078 -19.20954,14.48661 -25.08383,33.38425 -51.54052,33.38425 h -45.35433 -9.52718 -13.14999 c -15.11811,0 -51.39422,-37.61104 -65.82009,-69.74447 -0.49256,-1.11159 -0.97115,-2.19064 -1.44922,-3.26953 -6.61473,-14.91163 -12.6299,-30.04709 -18.59766,-45.22657 -7.45653,-18.97326 -14.87004,-37.92979 -24.65039,-55.85938 l -1.09961,-1.95312 C 430.57575,93.245701 424.19016,83.618702 415.85203,75.069476 394.71109,54.849006 333.21563,40.665147 304.52734,40.748047 Z M 273.54973,408.18899 h 261.3263 a 6.5352002,6.5352002 40.57515 0 1 6.4574,5.52981 L 542,418 c 0.89383,3.04121 0.89383,3.04121 1.99609,5.58594 0.38801,0.93972 0.77603,1.87946 1.17579,2.84766 0.62648,1.456 0.62648,1.45599 1.26562,2.9414 0.65936,1.55268 0.65936,1.55268 1.33203,3.13672 11.21851,25.95468 20.15478,37.03097 38.05726,58.82688 7.55905,15.11811 -11.33859,15.11811 -11.33859,15.11811 H 238.75312 a 4.7952664,4.7952664 59.687253 0 1 -4.17875,-7.14742 L 237,495 c 7.3732,-12.34891 14.25499,-24.80825 20,-38 0.48082,-1.08023 0.96164,-2.16047 1.45703,-3.27343 2.57464,-6.17603 4.31261,-12.39272 5.73047,-18.91407 0.15501,-0.70496 0.31099,-1.4104 0.4707,-2.13672 1.09934,-5.44282 2.29803,-13.91444 3.02129,-19.3304 0.38009,-2.84625 2.99655,-5.15639 5.87024,-5.15639 z"
     sodipodi:nodetypes="ccccccscccccccccccccccccccccccccccccccccccccccccsccccccccccccccccccccccccccccccccccccccccccccccccccccccccccccccccccccccc"
     transform="matrix(0.47156546,0,0,0.47156546,-23.169831,-19.215201)"
     inkscape:path-effect="#path-effect2"
     inkscape:original-d="m 304.52734,40.748047 c -1.96507,0.0061 -3.92944,0.0089 -5.89453,0.0078 -5.37623,-0.0072 -10.75267,-0.0078 -16.1289,0.002 -5.71074,0.01062 -11.42208,0.01393 -17.13282,0.01367 -9.57309,-6.38e-4 -19.14567,0.0045 -28.71875,0.01758 -11.13285,0.0158 -22.26558,0.02599 -33.39843,0.02539 -11.96476,-7.88e-4 -23.92978,0.0044 -35.89454,0.01367 -3.42621,0.0027 -6.85308,0.0032 -10.27929,0.0039 -5.47756,6.38e-4 -10.95409,0.0029 -16.43164,0.01172 -2.01932,0.0038 -4.03928,0.0087 -6.0586,0.01172 -2.80857,-8.27e-4 -5.61721,-0.0024 -8.42578,0.0039 l -2.55078,0.0078 c -7.75685,-0.01548 -14.82269,0.65729 -22.17578,3.265625 L 99,45 C 86.238698,49.00736 75.678144,55.324844 66.441406,65.085938 57.440235,75.829735 51.849695,88.844869 53,103 c 17.5298,2.90887 35.56138,7.75609 48.8125,20.25 10.13552,10.85161 15.68783,22.93121 15.63672,37.86524 l -0.0742,3.44726 c -0.0121,10.67972 -0.93446,20.65568 -4.27734,30.83789 L 112.375,197.5 c -3.58329,10.54566 -7.8105,20.84953 -12.513672,30.94532 -5.581277,11.82413 -10.14525,23.41764 -13.27539,36.13867 L 86,267 c -2.391404,9.35117 -3.17168,18.32029 -3.294922,27.98438 -0.0086,1.96476 -0.0091,1.96476 -0.01758,3.89062 -0.02174,4.72018 0.02407,9.41278 0.3125,14.125 3.754454,30.27274 20.520122,56.46392 43.593752,75.75586 0.69037,0.57142 1.36118,1.12702 2.03125,1.68164 1.23476,1.02851 2.47723,2.04783 3.72656,3.0586 1.55536,1.16013 3.10404,2.32923 4.64844,3.5039 11.78618,10.37161 21.74016,11.18899 36.85827,11.18899 h 7.55906 c 3.77953,0 9.00149,0.22356 15.11811,0 0.59816,-0.0229 3.19896,0.0222 3.77953,0 15.11811,0 -19.60326,60.93462 -47.7681,88.60009 L 150,499.00001 c -4.76308,4.28204 -7.43739,7.31875 -13.937,7.4567 -18.05336,0.0434 -51.9706,0.0519 -86.92914,0 v 64.25197 h 687.87403 24.28146 c 23.58383,-2.50746 47.58022,-12.0543 62.88252,-30.44278 0.62156,-0.77031 1.22485,-1.51797 1.82813,-2.26563 11.26247,-13.00858 19.1725,-28.66577 22.875,-45.5 3.98897,-21.70647 1.44795,-48.59011 -10.875,-67.5 -1.9961,-0.9688 -1.9961,-0.9688 -4,-1 -1.68816,1.12544 -3.38946,2.23423 -5.13086,3.27539 -1.26139,0.73543 -1.26164,0.73421 -2.49805,1.45508 -0.96945,0.56528 -1.91062,1.11345 -2.85156,1.66211 -1.04797,0.61011 -2.06488,1.20276 -3.08203,1.79492 -5.68085,3.32349 -11.35901,6.6521 -17.09766,9.875 -2.42631,1.35862 -4.85002,2.72063 -7.27148,4.08789 -1.1679,0.65986 -2.33636,1.3176 -3.50586,1.97461 -1.17149,0.64572 -2.30828,1.27367 -3.44531,1.90039 l -3.17578,1.79493 c -2.82202,1.57079 -2.82203,1.5708 -4.94141,3.17968 -0.8667,2.06055 -0.8667,2.06055 -1,4 1.69112,4.03871 2.23601,6.99559 2.22461,11.33594 -0.0126,0.77828 -0.0249,1.53367 -0.0371,2.28906 -0.008,8.88802 -2.06265,16.51684 -7.94531,23.44532 -7.51297,7.0263 -11.97653,10.32962 -22.11619,10.38612 -1.77153,-0.0219 -5.82261,0.0216 -7.55906,0 -2.49675,-0.002 -1.28279,0.006 -3.77953,0 h -30.23622 -7.55905 c -15.11812,0 -15.11812,0 -67.98433,-54.76133 -34.06292,-39.72686 -34.06292,-39.72686 -26.50387,-43.50639 h 15.11811 c 3.77953,0 9.17717,-0.0301 11.33859,0 7.55905,0 20.34472,0.81278 30.6878,-5.57958 29.08949,-16.19886 53.50662,-36.53335 69.19531,-66.39258 0.33201,-0.71635 0.65432,-1.41214 0.97656,-2.10742 3.55483,-7.62106 6.89798,-15.31768 10.10742,-23.08985 0.60551,-1.4673 1.21179,-2.93433 1.82032,-4.40039 5.72675,-13.79084 11.30289,-27.64105 16.87695,-41.49414 7.17362,-17.83792 11.48443,-60.14843 22.375,-53.125 3.9241,6.12408 4.1525,8.25635 7,12 5.6014,5.35681 12.51493,9.62537 20.32031,10.27735 10.58278,0.10653 18.37695,-2.0776 26.36719,-9.33985 6.04537,-6.61035 9.54716,-13.60612 9.87305,-22.5957 0.0185,-17.72534 -5.55446,-32.72601 -17.74024,-45.6543 -12.44272,-12.07555 -26.14803,-15.94043 -43.14062,-15.91211 -1.20859,0.0126 -2.38165,0.0249 -3.55469,0.0371 -4.37775,0.002 -8.75231,-0.0337 -13.125,0.1875 -15.57134,2.61171 -32.01271,12.29354 -42.05078,24.49219 -1.88962,2.5095 -1.88962,2.50951 -3.96485,4.66406 -5.03343,5.27984 -9.60757,10.80626 -14.06054,16.58008 -0.71818,0.93965 -1.41427,1.85166 -2.11133,2.76367 -4.69805,6.11681 -9.08343,12.3282 -13.17578,18.86719 -7.18366,11.55815 -14.45567,22.54846 -24.14649,32.16992 -0.50701,0.49738 -0.99813,0.98014 -1.49023,1.46289 -1.45631,1.44372 -2.91856,2.87921 -4.39648,4.30078 -19.20954,14.48661 -25.08383,33.38425 -51.54052,33.38425 h -45.35433 -9.52718 -13.14999 c -15.11811,0 -51.39422,-37.61104 -65.82009,-69.74447 -0.49256,-1.11159 -0.97115,-2.19064 -1.44922,-3.26953 -6.61473,-14.91163 -12.6299,-30.04709 -18.59766,-45.22657 -7.45653,-18.97326 -14.87004,-37.92979 -24.65039,-55.85938 l -1.09961,-1.95312 C 430.57575,93.245701 424.19016,83.618702 415.85203,75.069476 394.71109,54.849006 333.21563,40.665147 304.52734,40.748047 Z M 268.34646,408.18899 h 272.126 L 542,418 c 0.89383,3.04121 0.89383,3.04121 1.99609,5.58594 0.38801,0.93972 0.77603,1.87946 1.17579,2.84766 0.62648,1.456 0.62648,1.45599 1.26562,2.9414 0.65936,1.55268 0.65936,1.55268 1.33203,3.13672 11.21851,25.95468 20.15478,37.03097 38.05726,58.82688 7.55905,15.11811 -11.33859,15.11811 -11.33859,15.11811 H 230.55119 L 237,495 c 7.3732,-12.34891 14.25499,-24.80825 20,-38 0.48082,-1.08023 0.96164,-2.16047 1.45703,-3.27343 2.57464,-6.17603 4.31261,-12.39272 5.73047,-18.91407 0.15501,-0.70496 0.31099,-1.4104 0.4707,-2.13672 1.72223,-8.52671 3.68826,-24.48679 3.68826,-24.48679 z" />
</svg>
