G04 #@! TF.GenerationSoftware,KiCad,Pcbnew,7.0.9*
G04 #@! TF.CreationDate,2023-12-10T17:01:55-06:00*
G04 #@! TF.ProjectId,Sleigh_Controller_Ornament_2023,536c6569-6768-45f4-936f-6e74726f6c6c,rev?*
G04 #@! TF.SameCoordinates,Original*
G04 #@! TF.FileFunction,Profile,NP*
%FSLAX46Y46*%
G04 Gerber Fmt 4.6, Leading zero omitted, Abs format (unit mm)*
G04 Created by KiCad (PCBNEW 7.0.9) date 2023-12-10 17:01:55*
%MOMM*%
%LPD*%
G01*
G04 APERTURE LIST*
G04 #@! TA.AperFunction,Profile*
%ADD10C,0.199600*%
G04 #@! TD*
G04 APERTURE END LIST*
D10*
X109572051Y-131047977D02*
X110023875Y-131210443D01*
X199200287Y-82703397D02*
X199245010Y-82605972D01*
X199181401Y-113627520D02*
X199074004Y-113696371D01*
X182108548Y-126267401D02*
X182069423Y-126295224D01*
X170030165Y-65424181D02*
X169755144Y-65343028D01*
X197736171Y-84602585D02*
X197770441Y-84577994D01*
X193779672Y-130401902D02*
X194497664Y-130060461D01*
X123542976Y-115671041D02*
X123576288Y-115708190D01*
X124141675Y-126025674D02*
X124115718Y-125985185D01*
X139946255Y-42285896D02*
X139853686Y-42256583D01*
X130156852Y-118086895D02*
X130213674Y-118091502D01*
X143057790Y-43032789D02*
X142980069Y-42955582D01*
X106607475Y-68992438D02*
X106635668Y-69014839D01*
X124628864Y-46279224D02*
X124640858Y-46327161D01*
X129725261Y-118098526D02*
X129781184Y-118088325D01*
X194962847Y-78198133D02*
X194800537Y-78011489D01*
X143409632Y-46754202D02*
X143400414Y-46706725D01*
X182491646Y-125279187D02*
X182497971Y-125316052D01*
X104022356Y-125765284D02*
X104205485Y-126183288D01*
X171947253Y-66444885D02*
X171738471Y-66281893D01*
X173669606Y-69730205D02*
X173631736Y-69435736D01*
X108964813Y-123748716D02*
X108893639Y-123580469D01*
X124493313Y-47119934D02*
X124464977Y-47160007D01*
X104393590Y-67069823D02*
X104465430Y-67172056D01*
X139151833Y-41385804D02*
X139150477Y-41349630D01*
X182146246Y-126237775D02*
X182108548Y-126267401D01*
X184823426Y-116958153D02*
X184873463Y-116938801D01*
X128831443Y-40981489D02*
X128831477Y-40981552D01*
X120361368Y-49576072D02*
X119879896Y-49945239D01*
X202423647Y-114019546D02*
X202331652Y-113931923D01*
X153014445Y-56758997D02*
X152583363Y-55791300D01*
X143600391Y-43861673D02*
X143555435Y-43758780D01*
X105969346Y-68595185D02*
X106075873Y-68664008D01*
X128887315Y-41290608D02*
X128891740Y-41332524D01*
X183986380Y-117715884D02*
X184001060Y-117670505D01*
X195903468Y-79656583D02*
X195791268Y-79433189D01*
X127684132Y-42326783D02*
X127615007Y-42316234D01*
X103835300Y-66034878D02*
X103887151Y-66157493D01*
X201582070Y-113452306D02*
X201461912Y-113404900D01*
X174165792Y-72539718D02*
X174059859Y-72290491D01*
X178111928Y-75565695D02*
X177834611Y-75499057D01*
X103581657Y-65251909D02*
X103616608Y-65387969D01*
X198287039Y-79717685D02*
X197828566Y-79736503D01*
X106397750Y-68846416D02*
X106397932Y-68846618D01*
X196709877Y-85417372D02*
X196739619Y-85356019D01*
X141265427Y-34444134D02*
X140795788Y-34130044D01*
X154134474Y-60130416D02*
X154069472Y-59889564D01*
X191486924Y-131211631D02*
X192273727Y-130978917D01*
X190319900Y-125969233D02*
X190254316Y-125964665D01*
X128831477Y-40981552D02*
X128831520Y-40981638D01*
X175634883Y-74408590D02*
X175430433Y-74236650D01*
X104254211Y-66856251D02*
X104322947Y-66964268D01*
X177313002Y-118581317D02*
X177358843Y-118606716D01*
X143449661Y-46173111D02*
X143468282Y-46125739D01*
X185648692Y-116598526D02*
X186325041Y-116266154D01*
X128750020Y-41877970D02*
X128724089Y-41912918D01*
X173231588Y-68098347D02*
X173111900Y-67858394D01*
X198742227Y-83520557D02*
X198783289Y-83457492D01*
X143845907Y-47384339D02*
X143845610Y-47384362D01*
X199292235Y-113563780D02*
X199181401Y-113627520D01*
X127615007Y-42316234D02*
X127580779Y-42310316D01*
X201924273Y-113627527D02*
X201813418Y-113563787D01*
X198363281Y-84014826D02*
X198466032Y-83885581D01*
X141284703Y-42227147D02*
X141169562Y-42223970D01*
X109046110Y-123916308D02*
X108964813Y-123748716D01*
X201699295Y-113505324D02*
X201582070Y-113452306D01*
X105384262Y-120021424D02*
X105258797Y-120057162D01*
X124233882Y-44822090D02*
X124229130Y-44934824D01*
X181663449Y-126454168D02*
X181613506Y-126460517D01*
X184058061Y-118463109D02*
X184036187Y-118418682D01*
X202938507Y-114743263D02*
X202879963Y-114629220D01*
X199483051Y-82006440D02*
X199534192Y-81853616D01*
X124449323Y-45897966D02*
X124505661Y-46004052D01*
X197638832Y-118239319D02*
X197433550Y-119006389D01*
X189820856Y-125814442D02*
X189765317Y-125776428D01*
X142547848Y-42621217D02*
X142453490Y-42565330D01*
X128090423Y-42311683D02*
X128046142Y-42322073D01*
X105756586Y-68446410D02*
X105862892Y-68522548D01*
X198700425Y-83582814D02*
X198742227Y-83520557D01*
X128831293Y-40981276D02*
X128831315Y-40981316D01*
X156782883Y-64180533D02*
X156408770Y-63923307D01*
X199806704Y-125656984D02*
X200257960Y-125046101D01*
X195859715Y-103802248D02*
X196037701Y-103056167D01*
X200688769Y-113247657D02*
X200552778Y-113244208D01*
X107783800Y-71967957D02*
X108302953Y-73676280D01*
X124372094Y-126267401D02*
X124334396Y-126237775D01*
X104690586Y-67464170D02*
X104768548Y-67556640D01*
X199288316Y-82507727D02*
X199330191Y-82408725D01*
X113368136Y-63247247D02*
X113346887Y-63294134D01*
X124532384Y-46047971D02*
X124556607Y-46092789D01*
X196056767Y-121883618D02*
X195578423Y-122534566D01*
X143709482Y-44184305D02*
X143677530Y-44074528D01*
X124868299Y-43174483D02*
X124788197Y-43275097D01*
X193972998Y-108670809D02*
X194310240Y-108017387D01*
X113029021Y-63693900D02*
X112988354Y-63724997D01*
X128831931Y-40982508D02*
X128831941Y-40982536D01*
X177019022Y-118482770D02*
X177069719Y-118492714D01*
X183984775Y-118281518D02*
X183972332Y-118234788D01*
X196684266Y-85480990D02*
X196709877Y-85417372D01*
X196646082Y-85614240D02*
X196662947Y-85546678D01*
X197701583Y-84626337D02*
X197736171Y-84602585D01*
X113403906Y-63150870D02*
X113387167Y-63199463D01*
X128424860Y-42173312D02*
X128385691Y-42195722D01*
X103607736Y-121555872D02*
X103560328Y-121676029D01*
X113412575Y-131760032D02*
X187237593Y-131760032D01*
X115434685Y-55457157D02*
X115175355Y-56003633D01*
X142453490Y-42565330D02*
X142356764Y-42513323D01*
X128831185Y-40981034D02*
X128831229Y-40981140D01*
X182412633Y-125039662D02*
X182453266Y-125136723D01*
X103723208Y-124899343D02*
X103861363Y-125337122D01*
X123976387Y-125569753D02*
X123972531Y-125519073D01*
X103430154Y-122182629D02*
X103413310Y-122314933D01*
X128831898Y-40982376D02*
X128831912Y-40982415D01*
X103786024Y-65909991D02*
X103835300Y-66034878D01*
X184941917Y-116914705D02*
X184947294Y-116913779D01*
X190663675Y-125913863D02*
X190586659Y-125936344D01*
X104187476Y-66745791D02*
X104254211Y-66856251D01*
X109861233Y-81025356D02*
X109927056Y-81847913D01*
X198634982Y-83675914D02*
X198657866Y-83644217D01*
X143620381Y-47185800D02*
X143589864Y-47147425D01*
X195543994Y-79000739D02*
X195409271Y-78792036D01*
X130098566Y-118081639D02*
X130156852Y-118086895D01*
X198257155Y-84138801D02*
X198284354Y-84108791D01*
X124199123Y-126102498D02*
X124169498Y-126064799D01*
X124229130Y-44934824D02*
X124229835Y-45045717D01*
X197049835Y-85006441D02*
X197106780Y-84970265D01*
X173111900Y-67858394D02*
X172979824Y-67627795D01*
X187237593Y-131760032D02*
X188127585Y-131737142D01*
X105642340Y-119968478D02*
X105512166Y-119991806D01*
X125041857Y-42986397D02*
X124952920Y-43078210D01*
X143271421Y-43283397D02*
X143203581Y-43196789D01*
X134579484Y-32163887D02*
X134036955Y-32150374D01*
X199832583Y-80472125D02*
X199846774Y-80322010D01*
X183963613Y-117808315D02*
X183973894Y-117761850D01*
X104000230Y-66399938D02*
X104060390Y-66517616D01*
X130281254Y-32703799D02*
X129760190Y-32875534D01*
X184265784Y-117267848D02*
X184303781Y-117234589D01*
X197433550Y-119006389D02*
X197171749Y-119758473D01*
X143762021Y-44418907D02*
X143736868Y-44296189D01*
X192398899Y-76286851D02*
X192166235Y-76191410D01*
X109254268Y-77397094D02*
X109448996Y-78336185D01*
X127911827Y-42343372D02*
X127866817Y-42347090D01*
X192403289Y-111122439D02*
X192828557Y-110535028D01*
X128856014Y-41094307D02*
X128869557Y-41168192D01*
X189661299Y-125688265D02*
X189613273Y-125638174D01*
X124817188Y-126454168D02*
X124768046Y-126445390D01*
X116527085Y-126079764D02*
X116490105Y-126124667D01*
X128570961Y-42070166D02*
X128536174Y-42097923D01*
X200257960Y-125046101D02*
X200679380Y-124416142D01*
X156408770Y-63923307D02*
X156056522Y-63638412D01*
X115976579Y-126437060D02*
X115923509Y-126448533D01*
X112434449Y-126370538D02*
X112201508Y-126318736D01*
X128817056Y-41766622D02*
X128796580Y-41804794D01*
X110010771Y-94516054D02*
X110191063Y-96334980D01*
X177266074Y-118558458D02*
X177313002Y-118581317D01*
X152583363Y-55791300D02*
X152110705Y-54862510D01*
X142728998Y-42744256D02*
X142639723Y-42680890D01*
X184081463Y-117496564D02*
X184106924Y-117455403D01*
X123777806Y-116092925D02*
X123789116Y-116139632D01*
X128888357Y-41561029D02*
X128878495Y-41604020D01*
X123728398Y-116756463D02*
X123707442Y-116801521D01*
X112470924Y-63917150D02*
X112419472Y-63918662D01*
X199406339Y-113505318D02*
X199292235Y-113563780D01*
X128852021Y-41687249D02*
X128835562Y-41727431D01*
X196739619Y-85356019D02*
X196773329Y-85297128D01*
X129183431Y-118415699D02*
X129224457Y-118371678D01*
X173730987Y-70934967D02*
X173708067Y-70643416D01*
X143489336Y-46078919D02*
X143512839Y-46032734D01*
X131338919Y-32429809D02*
X130807760Y-32555225D01*
X123687839Y-115869475D02*
X123710259Y-115912522D01*
X198311041Y-84078032D02*
X198337317Y-84046663D01*
X123789116Y-116139632D02*
X123798178Y-116186804D01*
X113611261Y-61492494D02*
X113451973Y-62847350D01*
X129312614Y-118292599D02*
X129359455Y-118257579D01*
X159161618Y-65030937D02*
X158926815Y-64996993D01*
X116229794Y-126336892D02*
X116181194Y-126362578D01*
X142980069Y-42955582D02*
X142899287Y-42881695D01*
X114708003Y-57135317D02*
X114499988Y-57720327D01*
X200020046Y-113298016D02*
X199892105Y-113327585D01*
X139411018Y-41978516D02*
X139378934Y-41944384D01*
X128831394Y-40981414D02*
X128831416Y-40981445D01*
X188827294Y-114697415D02*
X189401395Y-114248386D01*
X182506515Y-125391098D02*
X182508683Y-125429224D01*
X140232250Y-42329453D02*
X140136275Y-42322603D01*
X143808659Y-44771865D02*
X143797967Y-44656680D01*
X123777133Y-116617451D02*
X123763235Y-116664339D01*
X169755144Y-65343028D02*
X169473451Y-65272447D01*
X198594449Y-114111438D02*
X198511197Y-114207445D01*
X199428509Y-82158318D02*
X199483051Y-82006440D01*
X171738471Y-66281893D02*
X171520160Y-66128863D01*
X103782959Y-121213669D02*
X103719218Y-121324524D01*
X178394413Y-75620679D02*
X178111928Y-75565695D01*
X106398687Y-68847295D02*
X106399319Y-68847806D01*
X202135507Y-113770172D02*
X202031692Y-113696378D01*
X123764257Y-116046770D02*
X123777806Y-116092925D01*
X113142389Y-63589669D02*
X113106113Y-63626147D01*
X124230488Y-126138708D02*
X124199123Y-126102498D01*
X184106924Y-117455403D02*
X184134505Y-117415344D01*
X105650500Y-68367083D02*
X105756586Y-68446410D01*
X124464977Y-47160007D02*
X124434570Y-47198767D01*
X143512839Y-46032734D02*
X143538809Y-45987267D01*
X198823630Y-83393661D02*
X198863266Y-83329111D01*
X155727699Y-63327407D02*
X155423861Y-62991852D01*
X200552778Y-113244208D02*
X200416785Y-113247656D01*
X182448846Y-125810843D02*
X182430977Y-125856161D01*
X140327887Y-42328272D02*
X140232250Y-42329453D01*
X154069472Y-59889564D02*
X153756375Y-58808726D01*
X116451082Y-126166874D02*
X116410144Y-126206368D01*
X182069423Y-126295224D02*
X182028934Y-126321182D01*
X192273727Y-130978917D02*
X193038168Y-130708531D01*
X124263530Y-126173366D02*
X124230488Y-126138708D01*
X123971230Y-125467719D02*
X123971959Y-125429224D01*
X189904696Y-75724957D02*
X189637999Y-75719977D01*
X106382990Y-129096646D02*
X106733688Y-129398859D01*
X158466781Y-64901524D02*
X158020810Y-64770584D01*
X120484138Y-113783031D02*
X121920280Y-114726334D01*
X143815230Y-44995163D02*
X143814430Y-44884671D01*
X128866357Y-41646103D02*
X128852021Y-41687249D01*
X139208776Y-41670158D02*
X139193349Y-41626349D01*
X143687502Y-47258357D02*
X143652933Y-47222805D01*
X177834611Y-75499057D02*
X177562848Y-75420968D01*
X133496615Y-118463993D02*
X133959562Y-118470771D01*
X106397595Y-68846019D02*
X106397624Y-68846078D01*
X124585589Y-46948355D02*
X124565716Y-46992758D01*
X124434570Y-47198767D02*
X124402110Y-47236122D01*
X110920780Y-125808764D02*
X110729180Y-125694871D01*
X201461912Y-113404900D02*
X201338990Y-113363272D01*
X184017920Y-117625797D02*
X184036949Y-117581847D01*
X112521892Y-63912681D02*
X112470924Y-63917150D01*
X124917809Y-126464373D02*
X124867130Y-126460517D01*
X103440576Y-64383148D02*
X103455300Y-64533637D01*
X197166395Y-84938117D02*
X197388670Y-84828269D01*
X140549763Y-42292531D02*
X140518358Y-42297950D01*
X182497971Y-125316052D02*
X182502936Y-125353365D01*
X173692590Y-70033494D02*
X173669606Y-69730205D01*
X183962217Y-118187698D02*
X183954417Y-118140333D01*
X107727464Y-120543151D02*
X107627447Y-120464486D01*
X188127585Y-131737142D02*
X188998089Y-131669426D01*
X108661004Y-122182588D02*
X108637688Y-122052365D01*
X194800537Y-78011489D02*
X194631767Y-77830801D01*
X106075873Y-68664008D02*
X106182400Y-68728703D01*
X199154163Y-82799940D02*
X199200287Y-82703397D01*
X141169562Y-42223970D02*
X140978224Y-42221972D01*
X123730475Y-115956479D02*
X123748477Y-116001259D01*
X198279674Y-127360870D02*
X198816986Y-126815799D01*
X119415498Y-50328641D02*
X118968178Y-50726178D01*
X128831793Y-40982162D02*
X128831842Y-40982254D01*
X197596329Y-84694007D02*
X197631619Y-84671904D01*
X197828323Y-79736512D02*
X197828103Y-79736514D01*
X157177301Y-64408528D02*
X156782883Y-64180533D01*
X128737541Y-33288497D02*
X128237532Y-33529730D01*
X182489130Y-125668838D02*
X182477985Y-125717119D01*
X196007811Y-79884521D02*
X195903468Y-79656583D01*
X181760872Y-126434245D02*
X181712591Y-126445390D01*
X127546929Y-42303667D02*
X127414261Y-42273776D01*
X182483987Y-125242795D02*
X182491646Y-125279187D01*
X106741003Y-69112882D02*
X106764991Y-69139986D01*
X197171749Y-119758473D02*
X196854383Y-120491452D01*
X105274275Y-68067698D02*
X105341395Y-68124735D01*
X124243947Y-44707256D02*
X124233882Y-44822090D01*
X198587655Y-83737057D02*
X198611537Y-83706798D01*
X173512765Y-68873559D02*
X173432378Y-68606005D01*
X104566557Y-120390741D02*
X104462834Y-120464629D01*
X143335736Y-43372952D02*
X143271421Y-43283397D01*
X116131446Y-126385455D02*
X116080675Y-126405505D01*
X172512850Y-66992879D02*
X172334800Y-66800455D01*
X143453329Y-43560531D02*
X143396411Y-43465361D01*
X192166235Y-76191410D02*
X191929381Y-76104222D01*
X124658837Y-46667274D02*
X124652193Y-46715405D01*
X194456712Y-77656247D02*
X194275546Y-77488002D01*
X127753377Y-42337125D02*
X127684132Y-42326783D01*
X143450463Y-46893092D02*
X143434674Y-46847469D01*
X184873463Y-116938801D02*
X184922987Y-116918784D01*
X199370619Y-82309028D02*
X199428509Y-82158318D01*
X139151108Y-41279869D02*
X139152949Y-41246584D01*
X104465430Y-67172056D02*
X104538936Y-67271866D01*
X184229846Y-117302639D02*
X184265784Y-117267848D01*
X123982735Y-125619695D02*
X123976387Y-125569753D01*
X110544502Y-125573949D02*
X110366999Y-125446457D01*
X107191321Y-120199301D02*
X107074113Y-120146214D01*
X196008893Y-79884434D02*
X196007811Y-79884521D01*
X106044820Y-119937903D02*
X105908834Y-119941358D01*
X105075315Y-67884524D02*
X105141203Y-67947671D01*
X203186324Y-115619191D02*
X203169452Y-115486911D01*
X191654914Y-125548819D02*
X191250311Y-125714291D01*
X112201508Y-126318736D02*
X111973711Y-126256683D01*
X105009900Y-67819182D02*
X105075315Y-67884524D01*
X129781184Y-118088325D02*
X129837585Y-118081309D01*
X181511473Y-126465674D02*
X124969162Y-126465674D01*
X197440581Y-84795906D02*
X197457430Y-84784007D01*
X156056522Y-63638412D02*
X155727699Y-63327407D01*
X124672411Y-126420796D02*
X124626044Y-126405106D01*
X124626044Y-126405106D02*
X124580727Y-126387236D01*
X125654746Y-42535997D02*
X125544176Y-42598496D01*
X177037522Y-75231259D02*
X176784729Y-75120046D01*
X203080769Y-115103363D02*
X203039078Y-114980502D01*
X141398748Y-42235229D02*
X141284703Y-42227147D01*
X196773329Y-85297128D02*
X196810845Y-85240894D01*
X105408862Y-68179892D02*
X105476644Y-68233248D01*
X198902217Y-83263883D02*
X198940500Y-83198024D01*
X197631619Y-84671904D02*
X197666718Y-84649396D01*
X124248197Y-45263029D02*
X124266144Y-45369970D01*
X126003009Y-42380847D02*
X125884365Y-42427051D01*
X199766597Y-113363266D02*
X199643688Y-113404894D01*
X124356783Y-45687064D02*
X124399745Y-45792390D01*
X139187554Y-41057500D02*
X139194731Y-41038576D01*
X108086446Y-120902255D02*
X108003198Y-120806149D01*
X104538936Y-67271866D02*
X104614018Y-67369241D01*
X110034532Y-125173606D02*
X109880171Y-125029210D01*
X201758881Y-122426112D02*
X202055212Y-121734153D01*
X109238198Y-124247531D02*
X109137312Y-124082746D01*
X197827681Y-79736506D02*
X197827454Y-79736499D01*
X159639823Y-65070271D02*
X159399353Y-65055428D01*
X198289775Y-114518446D02*
X198225971Y-114629217D01*
X197491075Y-84760053D02*
X197508079Y-84748502D01*
X125134907Y-42899167D02*
X125041857Y-42986397D01*
X195671385Y-79214515D02*
X195543994Y-79000739D01*
X128832084Y-40982782D02*
X128832159Y-40982897D01*
X128237532Y-33529730D02*
X127746117Y-33794133D01*
X139152949Y-41246584D02*
X139155710Y-41214565D01*
X124290127Y-45476115D02*
X124320292Y-45581726D01*
X143641127Y-43966953D02*
X143600391Y-43861673D01*
X116004647Y-54403437D02*
X115711117Y-54923726D01*
X112909190Y-131748274D02*
X113412575Y-131760032D01*
X183949715Y-117902399D02*
X183955549Y-117855193D01*
X143561400Y-47107765D02*
X143535004Y-47066901D01*
X197123016Y-128375186D02*
X197714825Y-127881142D01*
X103549860Y-65113654D02*
X103581657Y-65251909D01*
X188232473Y-115124301D02*
X188827294Y-114697415D01*
X182410992Y-125900365D02*
X182388954Y-125943394D01*
X103616449Y-63918693D02*
X103417379Y-63918693D01*
X192828557Y-110535028D02*
X193232021Y-109930224D01*
X198682144Y-114019540D02*
X198594449Y-114111438D01*
X104898699Y-120199427D02*
X104784656Y-120257972D01*
X128831958Y-40982573D02*
X128831986Y-40982624D01*
X127149285Y-42234899D02*
X127017382Y-42225669D01*
X177358843Y-118606716D02*
X177403489Y-118634643D01*
X107479687Y-129956024D02*
X107873582Y-130209893D01*
X197525343Y-84737571D02*
X197596329Y-84694007D01*
X112622073Y-63895225D02*
X112572300Y-63905342D01*
X196037701Y-103056167D02*
X196192395Y-102299224D01*
X197826567Y-79736503D02*
X197372090Y-79761785D01*
X143742915Y-45515214D02*
X143767721Y-45415307D01*
X197909488Y-115753408D02*
X197906035Y-115889396D01*
X198284354Y-84108791D02*
X198311041Y-84078032D01*
X190189194Y-125955818D02*
X190124759Y-125942719D01*
X113430204Y-63051617D02*
X113418277Y-63101558D01*
X116315273Y-53896390D02*
X116004647Y-54403437D01*
X123977707Y-125353365D02*
X123982673Y-125316052D01*
X112988354Y-63724997D02*
X112946374Y-63754121D01*
X115869928Y-126457114D02*
X115815963Y-126462788D01*
X139594600Y-42128064D02*
X139516903Y-42072604D01*
X177169405Y-118520420D02*
X177218172Y-118538155D01*
X197826909Y-79736495D02*
X197826567Y-79736503D01*
X199581877Y-81700067D02*
X199626054Y-81546013D01*
X113323496Y-63340032D02*
X113298039Y-63384854D01*
X103608595Y-124452489D02*
X103723208Y-124899343D01*
X143845610Y-47384362D02*
X143803143Y-47355458D01*
X128832027Y-40982692D02*
X128832084Y-40982782D01*
X103452808Y-123533721D02*
X103518228Y-123997101D01*
X183945713Y-118045123D02*
X183944785Y-117997450D01*
X106397040Y-68845609D02*
X106397333Y-68845803D01*
X117349710Y-52455695D02*
X116987807Y-52922420D01*
X196515368Y-99969162D02*
X196575539Y-99174709D01*
X182028934Y-126321182D02*
X181987144Y-126345211D01*
X123972531Y-125519073D02*
X123971230Y-125467719D01*
X132117576Y-118368852D02*
X132575643Y-118412218D01*
X199626054Y-81546013D02*
X199666670Y-81391678D01*
X128604463Y-42041142D02*
X128570961Y-42070166D01*
X124618837Y-46857085D02*
X124603302Y-46903100D01*
X124304573Y-44347532D02*
X124279438Y-44470238D01*
X198940500Y-83198024D02*
X198978132Y-83131576D01*
X113177049Y-63551577D02*
X113142389Y-63589669D01*
X103455300Y-64533637D02*
X103473690Y-64681943D01*
X129509271Y-118170817D02*
X129561821Y-118148058D01*
X127866817Y-42347090D02*
X127821816Y-42349070D01*
X104673886Y-120321799D02*
X104566557Y-120390741D01*
X108699645Y-130665497D02*
X109130407Y-130866148D01*
X200150251Y-113274727D02*
X200020046Y-113298016D01*
X196011690Y-79884256D02*
X196009892Y-79884364D01*
X183944785Y-117997450D02*
X183946123Y-117949847D01*
X108697357Y-122746857D02*
X108691560Y-122585151D01*
X123630319Y-116931603D02*
X123599831Y-116972968D01*
X135661105Y-32260327D02*
X135121129Y-32200539D01*
X124614459Y-46231726D02*
X124628864Y-46279224D01*
X103518228Y-123997101D02*
X103608595Y-124452489D01*
X124040121Y-125102489D02*
X124129800Y-124942600D01*
X124665305Y-46570208D02*
X124663213Y-46618844D01*
X124451706Y-126321182D02*
X124411218Y-126295224D01*
X128843006Y-41031222D02*
X128856014Y-41094307D01*
X119879896Y-49945239D02*
X119415498Y-50328641D01*
X197388670Y-84828269D02*
X197397540Y-84823406D01*
X111119047Y-125915168D02*
X110920780Y-125808764D01*
X123996660Y-125242795D02*
X124005628Y-125206902D01*
X140877983Y-42231769D02*
X140827984Y-42238689D01*
X202879963Y-114629220D02*
X202816137Y-114518450D01*
X106460199Y-68888270D02*
X106519982Y-68928756D01*
X124719766Y-126434245D02*
X124672411Y-126420796D01*
X181562827Y-126464373D02*
X181511473Y-126465674D01*
X201085519Y-113298020D02*
X200955307Y-113274730D01*
X103925606Y-121002436D02*
X103851811Y-121106250D01*
X111416084Y-101541415D02*
X112041585Y-103177425D01*
X140678887Y-42265424D02*
X140580595Y-42286470D01*
X112419472Y-63918662D02*
X109967452Y-63922413D01*
X111433386Y-131576242D02*
X111918893Y-131655838D01*
X173700331Y-70345527D02*
X173692590Y-70033494D01*
X139158246Y-41459983D02*
X139154398Y-41422639D01*
X190254316Y-125964665D02*
X190189194Y-125955818D01*
X128536174Y-42097923D02*
X128500178Y-42124385D01*
X189401395Y-114248386D02*
X189954640Y-113777807D01*
X177640043Y-118854484D02*
X182412633Y-125039662D01*
X197423574Y-84807418D02*
X197440581Y-84795906D01*
X130752804Y-118178625D02*
X131206177Y-118251240D01*
X199865202Y-79692206D02*
X199675917Y-79692206D01*
X123809461Y-116426485D02*
X123804852Y-116474560D01*
X123804852Y-116474560D02*
X123797933Y-116522472D01*
X193038168Y-130708531D02*
X193779672Y-130401902D01*
X108677866Y-122314905D02*
X108661004Y-122182588D01*
X151036162Y-53124037D02*
X150432029Y-52315549D01*
X139194731Y-41038576D02*
X142170561Y-35141615D01*
X196810845Y-85240894D02*
X196852004Y-85187513D01*
X105341395Y-68124735D02*
X105408862Y-68179892D01*
X175848353Y-74570919D02*
X175634883Y-74408590D01*
X128831362Y-40981378D02*
X128831394Y-40981414D01*
X124643300Y-46763145D02*
X124632175Y-46810403D01*
X198074131Y-84315472D02*
X198136284Y-84258759D01*
X196014815Y-79884009D02*
X196014063Y-79884089D01*
X106577594Y-119991734D02*
X106447381Y-119968421D01*
X105512166Y-119991806D02*
X105384262Y-120021424D01*
X107074113Y-120146214D02*
X106953968Y-120098746D01*
X125231867Y-42816640D02*
X125134907Y-42899167D01*
X124115718Y-125985185D02*
X124091689Y-125943394D01*
X124768046Y-126445390D02*
X124719766Y-126434245D01*
X115761742Y-126465537D02*
X113412583Y-126466041D01*
X139150260Y-41314268D02*
X139151108Y-41279869D01*
X143535004Y-47066901D02*
X143510696Y-47024919D01*
X171520160Y-66128863D02*
X171292675Y-65985873D01*
X141511582Y-42248124D02*
X141398748Y-42235229D01*
X124652193Y-46715405D02*
X124643300Y-46763145D01*
X174414733Y-73014658D02*
X174284212Y-72781175D01*
X124867130Y-126460517D02*
X124817188Y-126454168D01*
X184138060Y-118591300D02*
X184108985Y-118549504D01*
X195118522Y-78390556D02*
X194962847Y-78198133D01*
X136198624Y-32343248D02*
X135661105Y-32260327D01*
X128696491Y-41946738D02*
X128667304Y-41979400D01*
X106288853Y-68788957D02*
X106395158Y-68844459D01*
X143132332Y-43113222D02*
X143057790Y-43032789D01*
X187617067Y-115528448D02*
X188232473Y-115124301D01*
X124788197Y-43275097D02*
X124712818Y-43379929D01*
X193157052Y-124741328D02*
X192799197Y-124964011D01*
X196944605Y-85090095D02*
X196995722Y-85046449D01*
X142257785Y-42465289D02*
X142156670Y-42421321D01*
X190998020Y-112774372D02*
X191487886Y-112242705D01*
X192627200Y-76390366D02*
X192398899Y-76286851D01*
X128304713Y-42236297D02*
X128263057Y-42254407D01*
X173708067Y-70643416D02*
X173700331Y-70345527D01*
X140728400Y-42255692D02*
X140678887Y-42265424D01*
X190486893Y-113286271D02*
X190998020Y-112774372D01*
X139378934Y-41944384D02*
X139348610Y-41908922D01*
X136732897Y-32449300D02*
X136198624Y-32343248D01*
X122457965Y-48243733D02*
X121908214Y-48554969D01*
X143801718Y-45209469D02*
X143811010Y-45103407D01*
X199330191Y-82408725D02*
X199370619Y-82309028D01*
X113346887Y-63294134D02*
X113323496Y-63340032D01*
X190943566Y-75841514D02*
X190688386Y-75798232D01*
X143803143Y-47355458D02*
X143762625Y-47324767D01*
X175430433Y-74236650D02*
X175235389Y-74055306D01*
X128831640Y-40981897D02*
X128831727Y-40982044D01*
X158020810Y-64770584D02*
X157590463Y-64605731D01*
X108832811Y-123412065D02*
X108782548Y-123244003D01*
X131206177Y-118251240D02*
X131661094Y-118314920D01*
X184036187Y-118418682D02*
X184016690Y-118373551D01*
X177403489Y-118634643D02*
X177446827Y-118665082D01*
X123710259Y-115912522D02*
X123730475Y-115956479D01*
X197666718Y-84649396D02*
X197701583Y-84626337D01*
X115175355Y-56003633D02*
X114933127Y-56563052D01*
X125882172Y-35083502D02*
X128831129Y-40980898D01*
X124577038Y-43601763D02*
X124517044Y-43718523D01*
X109880171Y-125029210D02*
X109734172Y-124880170D01*
X182464536Y-125764475D02*
X182448846Y-125810843D01*
X106396600Y-68845332D02*
X106397040Y-68845609D01*
X191250311Y-125714291D02*
X190834318Y-125864173D01*
X113210020Y-63511960D02*
X113177049Y-63551577D01*
X113446428Y-62950205D02*
X113439613Y-63001136D01*
X189637999Y-75719977D02*
X179568327Y-75719977D01*
X172835720Y-67406625D02*
X172679943Y-67194961D01*
X105135936Y-120098854D02*
X105015848Y-120146332D01*
X108893639Y-123580469D02*
X108832811Y-123412065D01*
X113161601Y-126459842D02*
X112914749Y-126441552D01*
X202235549Y-113848743D02*
X202135507Y-113770172D01*
X203034725Y-118124115D02*
X203126175Y-117382072D01*
X184922987Y-116918784D02*
X184926064Y-116918036D01*
X139516903Y-42072604D02*
X139444768Y-42011287D01*
X176967903Y-118475451D02*
X177019022Y-118482770D01*
X127281646Y-42250894D02*
X127149285Y-42234899D01*
X188998089Y-131669426D02*
X189848530Y-131558316D01*
X143393421Y-46658798D02*
X143388670Y-46610503D01*
X200823001Y-113257887D02*
X200688769Y-113247657D01*
X112813308Y-63828760D02*
X112766829Y-63849097D01*
X197106780Y-84970265D02*
X197166395Y-84938117D01*
X184134505Y-117415344D02*
X184164194Y-117376473D01*
X182497907Y-125619695D02*
X182489130Y-125668838D01*
X182509413Y-125467719D02*
X182508112Y-125519073D01*
X198136284Y-84258759D02*
X198167049Y-84229854D01*
X128869557Y-41168192D02*
X128882008Y-41248918D01*
X143782404Y-44539049D02*
X143762021Y-44418907D01*
X143392434Y-46415323D02*
X143399153Y-46366446D01*
X123971959Y-125429224D02*
X123974127Y-125391098D01*
X147543525Y-49500499D02*
X146697785Y-48904446D01*
X110955245Y-131475117D02*
X111433386Y-131576242D01*
X197906035Y-115889396D02*
X197876028Y-116676703D01*
X108691560Y-122585151D02*
X108688107Y-122449149D01*
X106578731Y-68970689D02*
X106607475Y-68992438D01*
X199892105Y-113327585D02*
X199766597Y-113363266D01*
X104060390Y-66517616D02*
X104122837Y-66632907D01*
X158926815Y-64996993D02*
X158466781Y-64901524D01*
X203196571Y-115753408D02*
X203186324Y-115619191D01*
X173966799Y-72033698D02*
X173886996Y-71769545D01*
X128831129Y-40980898D02*
X128831185Y-40981034D01*
X168287092Y-65097383D02*
X167977391Y-65080811D01*
X139163704Y-41154929D02*
X139168793Y-41127614D01*
X139269115Y-41794907D02*
X139246751Y-41754472D01*
X139677121Y-42177395D02*
X139594600Y-42128064D01*
X142356764Y-42513323D02*
X142257785Y-42465289D01*
X196192395Y-102299224D02*
X196323661Y-101532013D01*
X107523657Y-120390600D02*
X107416261Y-120321662D01*
X124657688Y-46423984D02*
X124662560Y-46472686D01*
X143421058Y-46801144D02*
X143409632Y-46754202D01*
X118537936Y-51137751D02*
X118124777Y-51563261D01*
X154287720Y-60781515D02*
X154239071Y-60563560D01*
X183955549Y-117855193D02*
X183963613Y-117808315D01*
X123788696Y-116570132D02*
X123777133Y-116617451D01*
X124266144Y-45369970D02*
X124290127Y-45476115D01*
X184001060Y-117670505D02*
X184017920Y-117625797D01*
X132412046Y-32248444D02*
X131873944Y-32327550D01*
X105476644Y-68233248D02*
X105544709Y-68284881D01*
X129267566Y-118330638D02*
X129312614Y-118292599D01*
X190751814Y-125888373D02*
X190663675Y-125913863D01*
X195048326Y-123149930D02*
X194467430Y-123725592D01*
X123746993Y-116710706D02*
X123728398Y-116756463D01*
X126371842Y-42276764D02*
X126246951Y-42305582D01*
X195187356Y-105969384D02*
X195434407Y-105259451D01*
X143408218Y-46317702D02*
X143419646Y-46269176D01*
X106663215Y-69037987D02*
X106690018Y-69061980D01*
X139168793Y-41127614D02*
X139174512Y-41102170D01*
X106395158Y-68844459D02*
X106396600Y-68845332D01*
X198514627Y-83825970D02*
X198563460Y-83766879D01*
X190061240Y-125925397D02*
X189998863Y-125903880D01*
X112858776Y-63806092D02*
X112813308Y-63828760D01*
X143736868Y-44296189D02*
X143709482Y-44184305D01*
X143677438Y-45709336D02*
X143712838Y-45613202D01*
X129561821Y-118148058D02*
X129615433Y-118128411D01*
X155146570Y-62633309D02*
X154897384Y-62253338D01*
X143385964Y-46513146D02*
X143388043Y-46464251D01*
X106397508Y-68845934D02*
X106397595Y-68846019D01*
X177488748Y-118698020D02*
X177529140Y-118733444D01*
X201070391Y-123768537D02*
X201430416Y-123104717D01*
X104847815Y-67646640D02*
X104928296Y-67734158D01*
X104768548Y-67556640D02*
X104847815Y-67646640D01*
X127746117Y-33794133D02*
X127264086Y-34081710D01*
X189568205Y-125584113D02*
X184138060Y-118591300D01*
X191688512Y-76025461D02*
X191443804Y-75955305D01*
X103483016Y-121924470D02*
X103453445Y-122052419D01*
X193232021Y-109930224D02*
X193613547Y-109308619D01*
X199210182Y-79695162D02*
X198747400Y-79703780D01*
X179269023Y-75713657D02*
X178973345Y-75694864D01*
X140827984Y-42238689D02*
X140778111Y-42246722D01*
X103413041Y-123062890D02*
X103452808Y-123533721D01*
X124565716Y-46992758D02*
X124543701Y-47036217D01*
X104410046Y-126590592D02*
X104635335Y-126986656D01*
X103521068Y-64971963D02*
X103549860Y-65113654D01*
X199523546Y-113452300D02*
X199406339Y-113505318D01*
X196323661Y-101532013D02*
X196431364Y-100755127D01*
X128134330Y-42299693D02*
X128090423Y-42311683D01*
X140454544Y-42307669D02*
X140390579Y-42317239D01*
X182504256Y-125569753D02*
X182497907Y-125619695D01*
X110485174Y-131353003D02*
X110955245Y-131475117D01*
X150432029Y-52315549D02*
X149781823Y-51548354D01*
X154239071Y-60563560D02*
X154188021Y-60346543D01*
X189613273Y-125638174D02*
X189568205Y-125584113D01*
X182508112Y-125519073D02*
X182504256Y-125569753D01*
X104205485Y-126183288D02*
X104410046Y-126590592D01*
X199865202Y-79881476D02*
X199865202Y-79692206D01*
X143811010Y-45103407D02*
X143815230Y-44995163D01*
X184036949Y-117581847D02*
X184058134Y-117538740D01*
X198563460Y-83766879D02*
X198587655Y-83737057D01*
X200955307Y-113274730D02*
X200823001Y-113257887D01*
X174710542Y-73456884D02*
X174556972Y-73239963D01*
X134036932Y-32150023D02*
X133494328Y-32159683D01*
X140778111Y-42246722D02*
X140728400Y-42255692D01*
X193895582Y-77171146D02*
X193697132Y-77022888D01*
X104174981Y-120714293D02*
X104087358Y-120806289D01*
X139154398Y-41422639D02*
X139151833Y-41385804D01*
X106764991Y-69139986D02*
X106787846Y-69168320D01*
X202549170Y-120315895D02*
X202745647Y-119592457D01*
X170558758Y-65617901D02*
X170298155Y-65515831D01*
X139320137Y-41872167D02*
X139293608Y-41834150D01*
X169473451Y-65272447D02*
X169185442Y-65212517D01*
X107281321Y-70460646D02*
X107783800Y-71967957D01*
X126331325Y-34726391D02*
X125882172Y-35083502D01*
X191443804Y-75955305D02*
X191195430Y-75893931D01*
X134036955Y-32150374D02*
X134036932Y-32150023D01*
X124632175Y-46810403D02*
X124618837Y-46857085D01*
X143555435Y-43758780D02*
X143506376Y-43658369D01*
X197959913Y-115356734D02*
X197936595Y-115486910D01*
X108743072Y-123076782D02*
X108714601Y-122910901D01*
X140040697Y-42307993D02*
X139946255Y-42285896D01*
X123636421Y-115786473D02*
X123663224Y-115827429D01*
X120859914Y-49221238D02*
X120361368Y-49576072D01*
X183948920Y-118092779D02*
X183945713Y-118045123D01*
X112719413Y-63867013D02*
X112671136Y-63882419D01*
X103453445Y-122052419D02*
X103430154Y-122182629D01*
X126246951Y-42305582D02*
X126123939Y-42340317D01*
X196014063Y-79884089D02*
X196013300Y-79884153D01*
X106397624Y-68846078D02*
X106397624Y-68846128D01*
X127787755Y-42342784D02*
X127753377Y-42337125D01*
X108165083Y-121002303D02*
X108086446Y-120902255D01*
X124580727Y-126387236D02*
X124536524Y-126367250D01*
X130054059Y-118079333D02*
X130079092Y-118080292D01*
X103861363Y-125337122D02*
X104022356Y-125765284D01*
X103695586Y-65653449D02*
X103739421Y-65782844D01*
X128897127Y-41415051D02*
X128897682Y-41454673D01*
X143388670Y-46610503D02*
X143386178Y-46561925D01*
X106315069Y-119951566D02*
X106180826Y-119941338D01*
X140390579Y-42317239D02*
X140358985Y-42322472D01*
X199766614Y-80929189D02*
X199792450Y-80775936D01*
X184058134Y-117538740D02*
X184081463Y-117496564D01*
X105428543Y-128101983D02*
X105729714Y-128447667D01*
X140518358Y-42297950D02*
X140454544Y-42307669D01*
X128177789Y-42286132D02*
X128134330Y-42299693D01*
X133494328Y-32159683D02*
X132952437Y-32192489D01*
X189998863Y-125903880D02*
X189937856Y-125878197D01*
X196623839Y-97562720D02*
X196623839Y-85826209D01*
X170811618Y-65730316D02*
X170558758Y-65617901D01*
X128891740Y-41332524D02*
X128895078Y-41374170D01*
X193493271Y-76881646D02*
X193284173Y-76747596D01*
X105729714Y-128447667D02*
X106048098Y-128779402D01*
X117846138Y-111612658D02*
X119125002Y-112743537D01*
X124331101Y-47306248D02*
X124292587Y-47338834D01*
X128724089Y-41912918D02*
X128696491Y-41946738D01*
X142639723Y-42680890D02*
X142547848Y-42621217D01*
X139763729Y-42220325D02*
X139677121Y-42177395D01*
X196611741Y-98372364D02*
X196623839Y-97562720D01*
X123576288Y-115708190D02*
X123607439Y-115746697D01*
X197909258Y-84464691D02*
X197960489Y-84418509D01*
X112903156Y-63781182D02*
X112858776Y-63806092D01*
X104266880Y-120626573D02*
X104174981Y-120714293D01*
X108804527Y-75510898D02*
X109254268Y-77397094D01*
X177604899Y-118811689D02*
X177640043Y-118854484D01*
X198863266Y-83329111D02*
X198902217Y-83263883D01*
X113439613Y-63001136D02*
X113430204Y-63051617D01*
X197372090Y-79761785D02*
X196918780Y-79795141D01*
X196466425Y-79836054D02*
X196014815Y-79884009D01*
X124031797Y-125810843D02*
X124016106Y-125764475D01*
X143388043Y-46464251D02*
X143392434Y-46415323D01*
X197516672Y-84742943D02*
X197525343Y-84737571D01*
X199007536Y-83083655D02*
X199057772Y-82990131D01*
X109617921Y-79260152D02*
X109756760Y-80159656D01*
X190430064Y-75764260D02*
X190168776Y-75739776D01*
X198337317Y-84046663D02*
X198363281Y-84014826D01*
X113450573Y-62898913D02*
X113446428Y-62950205D01*
X199106653Y-82895539D02*
X199154163Y-82799940D01*
X125332534Y-42738939D02*
X125231867Y-42816640D01*
X129669962Y-118111894D02*
X129725261Y-118098526D01*
X145800352Y-48352671D02*
X144850101Y-47845770D01*
X159399353Y-65055428D02*
X159161618Y-65030937D01*
X104004177Y-120902393D02*
X103925606Y-121002436D01*
X198783289Y-83457492D02*
X198823630Y-83393661D01*
X128831520Y-40981638D02*
X128831574Y-40981752D01*
X203116507Y-115228830D02*
X203080769Y-115103363D01*
X143652933Y-47222805D02*
X143620381Y-47185800D01*
X202673309Y-114307398D02*
X202594644Y-114207450D01*
X108003198Y-120806149D02*
X107915507Y-120714150D01*
X106398235Y-68846905D02*
X106398687Y-68847295D01*
X113418277Y-63101558D02*
X113403906Y-63150870D01*
X139159319Y-41183963D02*
X139163704Y-41154929D01*
X193836688Y-124257431D02*
X193502922Y-124505630D01*
X183973894Y-117761850D02*
X183986380Y-117715884D01*
X128345617Y-42216726D02*
X128304713Y-42236297D01*
X128878495Y-41604020D02*
X128866357Y-41646103D01*
X112572300Y-63905342D02*
X112521892Y-63912681D01*
X202055212Y-121734153D02*
X202318833Y-121030271D01*
X127821816Y-42349070D02*
X127787755Y-42342784D01*
X201213469Y-113327590D02*
X201085519Y-113298020D01*
X103429615Y-64230486D02*
X103440576Y-64383148D01*
X123763235Y-116664339D02*
X123746993Y-116710706D01*
X109756760Y-80159656D02*
X109861233Y-81025356D01*
X104784656Y-120257972D02*
X104673886Y-120321799D01*
X197919730Y-115619191D02*
X197909488Y-115753408D01*
X126755762Y-42227023D02*
X126626451Y-42237363D01*
X116410144Y-126206368D02*
X116367419Y-126243133D01*
X128220723Y-42271028D02*
X128177789Y-42286132D01*
X111323727Y-126013622D02*
X111119047Y-125915168D01*
X103413310Y-122314933D02*
X103403079Y-122449163D01*
X199856976Y-80173382D02*
X199863137Y-80026464D01*
X197831063Y-84531332D02*
X197857403Y-84509611D01*
X132575643Y-118412218D02*
X133035316Y-118444204D01*
X131873944Y-32327550D02*
X131338919Y-32429809D01*
X124252092Y-47369646D02*
X124209633Y-47398591D01*
X168891474Y-65163311D02*
X168591905Y-65124908D01*
X143712838Y-45613202D02*
X143742915Y-45515214D01*
X176784729Y-75120046D02*
X176539031Y-74998202D01*
X176916472Y-118470771D02*
X176967903Y-118475451D01*
X172146149Y-66617765D02*
X171947253Y-66444885D01*
X177567894Y-118771338D02*
X177604899Y-118811689D01*
X123982673Y-125316052D02*
X123989000Y-125279187D01*
X124399745Y-45792390D02*
X124449323Y-45897966D01*
X106733688Y-129398859D02*
X107099488Y-129685499D01*
X124663213Y-46618844D02*
X124658837Y-46667274D01*
X167977391Y-65080811D02*
X167663160Y-65075271D01*
X184343825Y-117202949D02*
X184343825Y-117202430D01*
X143203581Y-43196789D02*
X143132332Y-43113222D01*
X173820837Y-71498236D02*
X173768705Y-71219975D01*
X198114374Y-114860411D02*
X198066915Y-114980500D01*
X176070457Y-74723433D02*
X175848353Y-74570919D01*
X111534567Y-126103665D02*
X111323727Y-126013622D01*
X113598731Y-106271407D02*
X114523843Y-107719768D01*
X196013300Y-79884153D02*
X196011690Y-79884256D01*
X112914749Y-126441552D02*
X112672280Y-126411630D01*
X128831842Y-40982254D02*
X128831876Y-40982324D01*
X113451973Y-62847350D02*
X113450573Y-62898913D01*
X107416261Y-120321662D02*
X107305427Y-120257840D01*
X123684116Y-116845790D02*
X123658411Y-116889180D01*
X124015879Y-125171536D02*
X124027385Y-125136723D01*
X107873582Y-130209893D02*
X108280469Y-130446565D01*
X128831315Y-40981316D02*
X128831333Y-40981344D01*
X184935736Y-116915910D02*
X184941917Y-116914705D01*
X125768210Y-42478809D02*
X125654746Y-42535997D01*
X112766829Y-63849097D02*
X112719413Y-63867013D01*
X128046142Y-42322073D02*
X128001566Y-42330836D01*
X123809523Y-116282180D02*
X123811788Y-116330205D01*
X139826305Y-33571177D02*
X139328035Y-33326406D01*
X126123939Y-42340317D02*
X126003009Y-42380847D01*
X202511367Y-114111444D02*
X202423647Y-114019546D01*
X154188021Y-60346543D02*
X154134474Y-60130416D01*
X107915507Y-120714150D02*
X107823539Y-120626429D01*
X143636667Y-45803681D02*
X143677438Y-45709336D01*
X114135286Y-58928188D02*
X113839038Y-60185842D01*
X129894319Y-118077499D02*
X129951239Y-118076911D01*
X124712818Y-43379929D02*
X124642364Y-43488858D01*
X121908214Y-48554969D02*
X121375530Y-48880838D01*
X105015848Y-120146332D02*
X104898699Y-120199427D01*
X184303781Y-117234589D02*
X184343825Y-117202949D01*
X181613506Y-126460517D02*
X181562827Y-126464373D01*
X121920280Y-114726334D02*
X123430161Y-115568641D01*
X118124777Y-51563261D02*
X117728700Y-52002609D01*
X142899287Y-42881695D02*
X142815558Y-42811223D01*
X190688386Y-75798232D02*
X190430064Y-75764260D01*
X198870193Y-113848736D02*
X198774115Y-113931917D01*
X143814430Y-44884671D02*
X143808659Y-44771865D01*
X159882834Y-65075271D02*
X159639823Y-65070271D01*
X140795788Y-34130044D02*
X140315819Y-33839057D01*
X196623839Y-85826209D02*
X196626366Y-85754201D01*
X106397932Y-68846618D02*
X106398235Y-68846905D01*
X199863137Y-80026464D02*
X199865202Y-79881476D01*
X142815558Y-42811223D02*
X142728998Y-42744256D01*
X202907691Y-118861387D02*
X203034725Y-118124115D01*
X197786643Y-117461384D02*
X197638832Y-118239319D01*
X196009892Y-79884364D02*
X196008893Y-79884434D01*
X171292675Y-65985873D02*
X171056376Y-65852998D01*
X182430977Y-125856161D02*
X182410992Y-125900365D01*
X128831986Y-40982624D02*
X128832027Y-40982692D01*
X155423861Y-62991852D02*
X155146570Y-62633309D01*
X128831727Y-40982044D02*
X128831793Y-40982162D01*
X127414261Y-42273776D02*
X127281646Y-42250894D01*
X182477985Y-125717119D02*
X182464536Y-125764475D01*
X123430161Y-115568641D02*
X123469904Y-115601177D01*
X124603302Y-46903100D02*
X124585589Y-46948355D01*
X107305427Y-120257840D02*
X107191321Y-120199301D01*
X106953968Y-120098746D02*
X106831055Y-120057064D01*
X196918780Y-79795141D02*
X196466425Y-79836054D01*
X106829770Y-69229064D02*
X107281321Y-70460646D01*
X115711117Y-54923726D02*
X115434685Y-55457157D01*
X129837585Y-118081309D02*
X129894319Y-118077499D01*
X129224457Y-118371678D02*
X129267566Y-118330638D01*
X124169498Y-126064799D02*
X124141675Y-126025674D01*
X103399629Y-122585151D02*
X103413041Y-123062890D01*
X108530696Y-121675942D02*
X108483242Y-121555775D01*
X112041585Y-103177425D02*
X112770223Y-104755691D01*
X195860813Y-129278864D02*
X196504820Y-128841570D01*
X113839038Y-60185842D02*
X113611261Y-61492494D01*
X124402110Y-47236122D02*
X124367614Y-47271980D01*
X123748477Y-116001259D02*
X123764257Y-116046770D01*
X104087358Y-120806289D02*
X104004177Y-120902393D01*
X189712056Y-125734359D02*
X189661299Y-125688265D01*
X199666670Y-81391678D02*
X199703671Y-81237281D01*
X196431364Y-100755127D02*
X196515368Y-99969162D01*
X151595346Y-53973223D02*
X151036162Y-53124037D01*
X189937856Y-125878197D02*
X189878444Y-125848375D01*
X116080675Y-126405505D02*
X116029011Y-126422712D01*
X128831912Y-40982415D02*
X128831919Y-40982443D01*
X194625137Y-107348946D02*
X194917555Y-106666080D01*
X110487556Y-98115387D02*
X110896985Y-99852467D01*
X173338534Y-68347576D02*
X173231588Y-68098347D01*
X114933127Y-56563052D02*
X114708003Y-57135317D01*
X139150477Y-41349630D02*
X139150260Y-41314268D01*
X184947294Y-116913779D02*
X184952299Y-116905784D01*
X181808227Y-126420796D02*
X181760872Y-126434245D01*
X195191569Y-129685638D02*
X195860813Y-129278864D01*
X130300955Y-118097892D02*
X130752804Y-118178625D01*
X199245010Y-82605972D02*
X199288316Y-82507727D01*
X129951292Y-118076682D02*
X129951292Y-118077186D01*
X113068299Y-63660920D02*
X113029021Y-63693900D01*
X198611537Y-83706798D02*
X198634982Y-83675914D01*
X195267388Y-78588582D02*
X195118522Y-78390556D01*
X183972332Y-118234788D02*
X183962217Y-118187698D01*
X182311145Y-126064799D02*
X182281519Y-126102498D01*
X200416785Y-113247656D02*
X200282553Y-113257884D01*
X143767721Y-45415307D02*
X143787305Y-45313413D01*
X198970212Y-113770165D02*
X198870193Y-113848736D01*
X181899912Y-126387236D02*
X181854595Y-126405106D01*
X128882008Y-41248918D02*
X128887315Y-41290608D01*
X128895078Y-41374170D02*
X128897127Y-41415051D01*
X143538809Y-45987267D02*
X143590474Y-45896303D01*
X186325041Y-116266154D02*
X186981211Y-115909264D01*
X112671136Y-63882419D02*
X112622073Y-63895225D01*
X123811771Y-116378337D02*
X123809461Y-116426485D01*
X181987144Y-126345211D02*
X181944116Y-126367250D01*
X128831919Y-40982443D02*
X128831923Y-40982466D01*
X117728700Y-52002609D02*
X117349710Y-52455695D01*
X106400159Y-68848456D02*
X106460199Y-68888270D01*
X129245356Y-33070433D02*
X128737541Y-33288497D01*
X108714601Y-122910901D02*
X108697357Y-122746857D01*
X196995722Y-85046449D02*
X197049835Y-85006441D01*
X194310240Y-108017387D02*
X194625137Y-107348946D01*
X139328035Y-33326406D02*
X138821796Y-33104748D01*
X113241225Y-63470907D02*
X113210020Y-63511960D01*
X177119884Y-118505269D02*
X177169405Y-118520420D01*
X108238941Y-121106123D02*
X108165083Y-121002303D01*
X198167448Y-114743261D02*
X198114374Y-114860411D01*
X194917555Y-106666080D02*
X195187356Y-105969384D01*
X124209595Y-47398805D02*
X123608658Y-47665551D01*
X191487886Y-112242705D02*
X191956354Y-111691863D01*
X124209633Y-47398591D02*
X124209595Y-47398805D01*
X197828566Y-79736503D02*
X197828323Y-79736512D01*
X128835562Y-41727431D02*
X128817056Y-41766622D01*
X176300812Y-74865929D02*
X176070457Y-74723433D01*
X108572367Y-121798875D02*
X108530696Y-121675942D01*
X141733153Y-42287975D02*
X141623089Y-42265737D01*
X184164194Y-117376473D02*
X184195978Y-117338876D01*
X197960489Y-84418509D02*
X198011671Y-84371909D01*
X181712591Y-126445390D02*
X181663449Y-126454168D01*
X140136275Y-42322603D02*
X140040697Y-42307993D01*
X128001566Y-42330836D02*
X127956768Y-42337945D01*
X123991513Y-125668838D02*
X123982735Y-125619695D01*
X139180420Y-41581482D02*
X139170080Y-41535593D01*
X103417379Y-63918693D02*
X103429615Y-64230486D01*
X107684022Y-63918662D02*
X103616441Y-63918662D01*
X124413862Y-43963120D02*
X124371080Y-44090716D01*
X154677865Y-61853498D02*
X154489572Y-61435351D01*
X107099488Y-129685499D02*
X107479687Y-129956024D01*
X198197501Y-84200344D02*
X198227563Y-84170053D01*
X124367614Y-47271980D02*
X124331101Y-47306248D01*
X124536524Y-126367250D02*
X124493496Y-126345211D01*
X124049665Y-125856161D02*
X124031797Y-125810843D01*
X103518699Y-121798951D02*
X103483016Y-121924470D01*
X128500178Y-42124385D02*
X128463047Y-42149524D01*
X192799197Y-124964011D02*
X192429477Y-125173164D01*
X143468408Y-46937931D02*
X143450463Y-46893092D01*
X106809471Y-69197980D02*
X106829770Y-69229064D01*
X146697785Y-48904446D02*
X145800352Y-48352671D01*
X143488491Y-46981901D02*
X143468408Y-46937931D01*
X105774619Y-119951606D02*
X105642340Y-119968478D01*
X200282553Y-113257884D02*
X200150251Y-113274727D01*
X104635335Y-126986656D02*
X104880650Y-127370936D01*
X123507512Y-115635340D02*
X123542976Y-115671041D01*
X126792226Y-34392462D02*
X126331325Y-34726391D01*
X193697132Y-77022888D02*
X193493271Y-76881646D01*
X111918893Y-131655838D02*
X112411062Y-131713362D01*
X173768705Y-71219975D02*
X173730987Y-70934967D01*
X143396411Y-43465361D02*
X143335736Y-43372952D01*
X139444768Y-42011287D02*
X139411018Y-41978516D01*
X143433455Y-46220951D02*
X143449661Y-46173111D01*
X199326188Y-126247360D02*
X199806704Y-125656984D01*
X123608658Y-47665551D02*
X123024780Y-47947227D01*
X106635668Y-69014839D02*
X106663215Y-69037987D01*
X201430416Y-123104717D02*
X201758881Y-122426112D01*
X115815963Y-126462788D02*
X115761742Y-126465537D01*
X196626366Y-85754201D02*
X196633835Y-85683480D01*
X175235389Y-74055306D02*
X175050136Y-73864760D01*
X191195430Y-75893931D02*
X190943566Y-75841514D01*
X128831416Y-40981445D02*
X128831443Y-40981489D01*
X197770441Y-84577994D02*
X197804350Y-84552421D01*
X124556607Y-46092789D02*
X124578348Y-46138416D01*
X176539031Y-74998202D02*
X176300812Y-74865929D01*
X143724072Y-47292372D02*
X143687502Y-47258357D01*
X109734172Y-124880170D02*
X109596755Y-124726983D01*
X201813418Y-113563787D02*
X201699295Y-113505324D01*
X129407942Y-118225596D02*
X129457929Y-118196670D01*
X199007536Y-83084174D02*
X199007536Y-83083655D01*
X110196924Y-125312856D02*
X110034532Y-125173606D01*
X123974127Y-125391098D02*
X123977707Y-125353365D01*
X124969162Y-126465674D02*
X124917809Y-126464373D01*
X197883445Y-84487362D02*
X197909258Y-84464691D01*
X110729180Y-125694871D02*
X110544502Y-125573949D01*
X123797933Y-116522472D02*
X123788696Y-116570132D01*
X124129800Y-124942600D02*
X129144636Y-118462684D01*
X127264086Y-34081710D02*
X126792226Y-34392462D01*
X106397333Y-68845803D02*
X106397508Y-68845934D01*
X140315819Y-33839057D02*
X139826305Y-33571177D01*
X197406305Y-84818289D02*
X197414979Y-84812949D01*
X192048009Y-125368271D02*
X191654914Y-125548819D01*
X184082323Y-118506745D02*
X184058061Y-118463109D01*
X199792450Y-80775936D02*
X199814458Y-80623508D01*
X123469904Y-115601177D02*
X123507512Y-115635340D01*
X104322947Y-66964268D02*
X104393590Y-67069823D01*
X197828103Y-79736514D02*
X197827893Y-79736511D01*
X172334800Y-66800455D02*
X172146149Y-66617765D01*
X197827201Y-79736495D02*
X197826909Y-79736495D01*
X183999556Y-118327801D02*
X183984775Y-118281518D01*
X171056376Y-65852998D02*
X170811618Y-65730316D01*
X123804983Y-116234349D02*
X123809523Y-116282180D01*
X197508079Y-84748502D02*
X197516672Y-84742943D01*
X153405074Y-57765005D02*
X153014445Y-56758997D01*
X128385691Y-42195722D02*
X128345617Y-42216726D01*
X198490238Y-83855616D02*
X198514627Y-83825970D01*
X182250154Y-126138708D02*
X182217112Y-126173366D01*
X124642364Y-43488858D02*
X124577038Y-43601763D01*
X177446827Y-118665082D02*
X177488748Y-118698020D01*
X179568327Y-75719977D02*
X179269023Y-75713657D01*
X193613547Y-109308619D02*
X193972998Y-108670809D01*
X203200026Y-115889396D02*
X203196571Y-115753408D01*
X133035316Y-118444204D02*
X133496615Y-118463993D01*
X114499988Y-57720327D02*
X114135286Y-58928188D01*
X199737003Y-81083044D02*
X199766614Y-80929189D01*
X197414979Y-84812949D02*
X197423574Y-84807418D01*
X124411218Y-126295224D02*
X124372094Y-126267401D01*
X196633835Y-85683480D02*
X196646082Y-85614240D01*
X196854383Y-120491452D02*
X196482404Y-121201207D01*
X198511197Y-114207445D02*
X198432556Y-114307394D01*
X149084420Y-50823049D02*
X148338695Y-50140232D01*
X109949948Y-92663413D02*
X110010771Y-94516054D01*
X190834318Y-125864173D02*
X190751814Y-125888373D01*
X124005628Y-125206902D02*
X124015879Y-125171536D01*
X108430172Y-121438542D02*
X108371654Y-121324411D01*
X116642994Y-53402685D02*
X116315273Y-53896390D01*
X197989517Y-115228829D02*
X197959913Y-115356734D01*
X108637688Y-122052365D02*
X108608087Y-121924405D01*
X123607439Y-115746697D02*
X123636421Y-115786473D01*
X139163450Y-41497684D02*
X139158246Y-41459983D01*
X184929257Y-116917300D02*
X184935736Y-116915910D01*
X148338695Y-50140232D02*
X147543525Y-49500499D01*
X194275546Y-77488002D02*
X194088444Y-77326242D01*
X124505661Y-46004052D02*
X124532384Y-46047971D01*
X139155710Y-41214565D02*
X139159319Y-41183963D01*
X194088444Y-77326242D02*
X193895582Y-77171146D01*
X112411062Y-131713362D02*
X112909190Y-131748274D01*
X103739421Y-65782844D02*
X103786024Y-65909991D01*
X124334442Y-44221681D02*
X124304573Y-44347532D01*
X190586659Y-125936344D02*
X190517149Y-125956977D01*
X184620921Y-117032518D02*
X184722366Y-116995582D01*
X109448996Y-78336185D02*
X109617921Y-79260152D01*
X196662947Y-85546678D02*
X196684266Y-85480990D01*
X143419646Y-46269176D02*
X143433455Y-46220951D01*
X104362886Y-120543295D02*
X104266880Y-120626573D01*
X182475020Y-125206902D02*
X182483987Y-125242795D01*
X112672280Y-126411630D02*
X112434449Y-126370538D01*
X143589864Y-47147425D02*
X143561400Y-47107765D01*
X182338967Y-126025674D02*
X182311145Y-126064799D01*
X110896985Y-99852467D02*
X111416084Y-101541415D01*
X109949948Y-82617988D02*
X109949948Y-92663413D01*
X104462834Y-120464629D02*
X104362886Y-120543295D01*
X116367419Y-126243133D02*
X116323034Y-126277152D01*
X116650813Y-110395199D02*
X117846138Y-111612658D01*
X190124759Y-125942719D02*
X190061240Y-125925397D01*
X118968178Y-50726178D02*
X118537936Y-51137751D01*
X103473690Y-64681943D02*
X103495646Y-64828056D01*
X190517149Y-125956977D02*
X190451543Y-125965417D01*
X197804350Y-84552421D02*
X197831063Y-84531332D01*
X123989000Y-125279187D02*
X123996660Y-125242795D01*
X177529140Y-118733444D02*
X177567894Y-118771338D01*
X140580595Y-42286470D02*
X140549763Y-42292531D01*
X186981211Y-115909264D02*
X187617067Y-115528448D01*
X106048098Y-128779402D02*
X106382990Y-129096646D01*
X138821796Y-33104748D02*
X138308376Y-32906206D01*
X113387167Y-63199463D02*
X113368136Y-63247247D01*
X124027385Y-125136723D02*
X124040121Y-125102489D01*
X154897384Y-62253338D02*
X154677865Y-61853498D01*
X103719218Y-121324524D02*
X103660755Y-121438648D01*
X124069651Y-125900365D02*
X124049665Y-125856161D01*
X124597627Y-46184759D02*
X124614459Y-46231726D01*
X119125002Y-112743537D02*
X120484138Y-113783031D01*
X193502922Y-124505630D02*
X193157052Y-124741328D01*
X130079092Y-118080292D02*
X130098566Y-118081639D01*
X196575539Y-99174709D02*
X196611741Y-98372364D01*
X184520201Y-117070411D02*
X184620921Y-117032518D01*
X174556972Y-73239963D02*
X174414733Y-73014658D01*
X182182455Y-126206409D02*
X182146246Y-126237775D01*
X202991602Y-114860413D02*
X202938507Y-114743263D01*
X199846774Y-80322010D02*
X199856976Y-80173382D01*
X125436705Y-42666184D02*
X125332534Y-42738939D01*
X139853686Y-42256583D02*
X139763729Y-42220325D01*
X116490105Y-126124667D02*
X116451082Y-126166874D01*
X109927056Y-81847913D02*
X109949948Y-82617988D01*
X108307854Y-121213548D02*
X108238941Y-121106123D01*
X106715980Y-69086913D02*
X106741003Y-69112882D01*
X123707442Y-116801521D02*
X123684116Y-116845790D01*
X132952437Y-32192489D02*
X132412046Y-32248444D01*
X109596755Y-124726983D02*
X109468140Y-124570148D01*
X203039078Y-114980502D02*
X202991602Y-114860413D01*
X130807760Y-32555225D02*
X130281254Y-32703799D01*
X128667304Y-41979400D02*
X128636602Y-42010877D01*
X174284212Y-72781175D02*
X174165792Y-72539718D01*
X184016690Y-118373551D02*
X183999556Y-118327801D01*
X143510696Y-47024919D02*
X143488491Y-46981901D01*
X105145287Y-127742892D02*
X105428543Y-128101983D01*
X105207534Y-68008703D02*
X105274275Y-68067698D01*
X196852004Y-85187513D02*
X196896645Y-85137182D01*
X128831574Y-40981752D02*
X128831640Y-40981897D01*
X124236142Y-45155032D02*
X124248197Y-45263029D01*
X106399319Y-68847806D02*
X106400159Y-68848456D01*
X189848530Y-131558316D02*
X190678333Y-131405240D01*
X112946374Y-63754121D02*
X112903156Y-63781182D01*
X197397540Y-84823406D02*
X197406305Y-84818289D01*
X129615433Y-118128411D02*
X129669962Y-118111894D01*
X104122837Y-66632907D02*
X104187476Y-66745791D01*
X144850101Y-47845770D02*
X143845907Y-47384339D01*
X106690018Y-69061980D02*
X106715980Y-69086913D01*
X182281519Y-126102498D02*
X182250154Y-126138708D01*
X113270590Y-63428509D02*
X113241225Y-63470907D01*
X124578348Y-46138416D02*
X124597627Y-46184759D01*
X128831333Y-40981344D02*
X128831348Y-40981363D01*
X123599831Y-116972968D02*
X117089234Y-125356711D01*
X116029011Y-126422712D02*
X115976579Y-126437060D01*
X124493496Y-126345211D02*
X124451706Y-126321182D01*
X124320292Y-45581726D02*
X124356783Y-45687064D01*
X182388954Y-125943394D02*
X182364924Y-125985185D01*
X143399153Y-46366446D02*
X143408218Y-46317702D01*
X177069719Y-118492714D02*
X177119884Y-118505269D01*
X199534192Y-81853616D02*
X199581877Y-81700067D01*
X128897682Y-41454673D02*
X128896541Y-41492540D01*
X182502936Y-125353365D02*
X182506515Y-125391098D01*
X198816986Y-126815799D02*
X199326188Y-126247360D01*
X104614018Y-67369241D02*
X104690586Y-67464170D01*
X128831876Y-40982324D02*
X128831898Y-40982376D01*
X124091689Y-125943394D02*
X124069651Y-125900365D01*
X112770223Y-104755691D02*
X113598731Y-106271407D01*
X114523843Y-107719768D02*
X115542292Y-109095967D01*
X178973345Y-75694864D02*
X178681680Y-75663804D01*
X123798178Y-116186804D02*
X123804983Y-116234349D01*
X129359455Y-118257579D02*
X129407942Y-118225596D01*
X124952920Y-43078210D02*
X124868299Y-43174483D01*
X127017382Y-42225669D02*
X126886140Y-42223085D01*
X141948491Y-42345956D02*
X141841659Y-42314746D01*
X111751313Y-126184839D02*
X111534567Y-126103665D01*
X109967452Y-63922413D02*
X107684022Y-63918662D01*
X182364924Y-125985185D02*
X182338967Y-126025674D01*
X193070011Y-76620915D02*
X192850962Y-76501780D01*
X124298187Y-126206409D02*
X124263530Y-126173366D01*
X103851811Y-121106250D02*
X103782959Y-121213669D01*
X141623089Y-42265737D02*
X141511582Y-42248124D01*
X181854595Y-126405106D02*
X181808227Y-126420796D01*
X196482404Y-121201207D02*
X196056767Y-121883618D01*
X128831229Y-40981140D02*
X128831265Y-40981219D01*
X202816137Y-114518450D02*
X202747196Y-114411120D01*
X143468282Y-46125739D02*
X143489336Y-46078919D01*
X103560328Y-121676029D02*
X103518699Y-121798951D01*
X177562848Y-75420968D02*
X177297023Y-75331634D01*
X172979824Y-67627795D02*
X172835720Y-67406625D01*
X108302953Y-73676280D02*
X108804527Y-75510898D01*
X196504820Y-128841570D02*
X197123016Y-128375186D01*
X139246751Y-41754472D02*
X139226607Y-41712877D01*
X198978132Y-83131576D02*
X199007536Y-83084174D01*
X104880650Y-127370936D02*
X105145287Y-127742892D01*
X105544709Y-68284881D02*
X105650500Y-68367083D01*
X201338990Y-113363272D02*
X201213469Y-113327590D01*
X184952299Y-116905784D02*
X185648692Y-116598526D01*
X140928075Y-42226138D02*
X140877983Y-42231769D01*
X190451543Y-125965417D02*
X190385718Y-125969493D01*
X139193349Y-41626349D02*
X139180420Y-41581482D01*
X128263057Y-42254407D02*
X128220723Y-42271028D01*
X106180826Y-119941338D02*
X106044820Y-119937903D01*
X108371654Y-121324411D02*
X108307854Y-121213548D01*
X130213674Y-118091502D02*
X130300955Y-118097892D01*
X142053533Y-42381512D02*
X141948491Y-42345956D01*
X124229835Y-45045717D02*
X124236142Y-45155032D01*
X189878444Y-125848375D02*
X189820856Y-125814442D01*
X139348610Y-41908922D02*
X139320137Y-41872167D01*
X195578423Y-122534566D02*
X195048326Y-123149930D01*
X124292587Y-47338834D02*
X124252092Y-47369646D01*
X198011671Y-84371909D02*
X198074131Y-84315472D01*
X194467430Y-123725592D02*
X193836688Y-124257431D01*
X199814458Y-80623508D02*
X199832583Y-80472125D01*
X174059859Y-72290491D02*
X173966799Y-72033698D01*
X202594644Y-114207450D02*
X202511367Y-114111444D01*
X123658411Y-116889180D02*
X123630319Y-116931603D01*
X149781823Y-51548354D02*
X149084420Y-50823049D01*
X110366999Y-125446457D02*
X110196924Y-125312856D01*
X135121129Y-32200539D02*
X134579484Y-32163887D01*
X103887151Y-66157493D02*
X103942452Y-66279891D01*
X181944116Y-126367250D02*
X181899912Y-126387236D01*
X124016106Y-125764475D02*
X124002658Y-125717119D01*
X184195978Y-117338876D02*
X184229846Y-117302639D01*
X107823539Y-120626429D02*
X107727464Y-120543151D01*
X106397625Y-68846189D02*
X106397657Y-68846279D01*
X104928296Y-67734158D02*
X105009900Y-67819182D01*
X107627447Y-120464486D02*
X107523657Y-120390600D01*
X108782548Y-123244003D02*
X108743072Y-123076782D01*
X138308376Y-32906206D02*
X137788561Y-32730781D01*
X154334067Y-61000457D02*
X154287720Y-60781515D01*
X125544176Y-42598496D02*
X125436705Y-42666184D01*
X190678333Y-131405240D02*
X191486924Y-131211631D01*
X200679380Y-124416142D02*
X201070391Y-123768537D01*
X124543701Y-47036217D02*
X124519560Y-47078640D01*
X124002658Y-125717119D02*
X123991513Y-125668838D01*
X143787305Y-45313413D02*
X143801718Y-45209469D01*
X110191063Y-96334980D02*
X110487556Y-98115387D01*
X116323034Y-126277152D02*
X116277116Y-126308411D01*
X140358985Y-42322472D02*
X140327887Y-42328272D01*
X193284173Y-76747596D02*
X193070011Y-76620915D01*
X195434407Y-105259451D02*
X195658572Y-104536874D01*
X143506376Y-43658369D02*
X143453329Y-43560531D01*
X199057772Y-82990131D02*
X199106653Y-82895539D01*
X182217112Y-126173366D02*
X182182455Y-126206409D01*
X106831055Y-120057064D02*
X106705541Y-120021338D01*
X197827893Y-79736511D02*
X197827681Y-79736506D01*
X199703671Y-81237281D02*
X199737003Y-81083044D01*
X183946123Y-117949847D02*
X183949715Y-117902399D01*
X197827454Y-79736499D02*
X197827201Y-79736495D01*
X202747196Y-114411120D02*
X202673309Y-114307398D01*
X124517044Y-43718523D02*
X124462584Y-43839015D01*
X124519560Y-47078640D02*
X124493313Y-47119934D01*
X129760190Y-32875534D02*
X129245356Y-33070433D01*
X196896645Y-85137182D02*
X196944605Y-85090095D01*
X103654616Y-65521820D02*
X103695586Y-65653449D01*
X129951292Y-118077186D02*
X130054059Y-118079333D01*
X198167049Y-84229854D02*
X198197501Y-84200344D01*
X182464771Y-125171536D02*
X182475020Y-125206902D01*
X199675917Y-79692206D02*
X199210182Y-79695162D01*
X173579336Y-69150162D02*
X173512765Y-68873559D01*
X190168776Y-75739776D02*
X189904696Y-75724957D01*
X198227563Y-84170053D02*
X198257155Y-84138801D01*
X106787846Y-69168320D02*
X106809471Y-69197980D01*
X183954417Y-118140333D02*
X183948920Y-118092779D01*
X126498410Y-42253984D02*
X126371842Y-42276764D01*
X129144636Y-118462684D02*
X129183431Y-118415699D01*
X109348548Y-124410165D02*
X109238198Y-124247531D01*
X184343825Y-117202430D02*
X184520201Y-117070411D01*
X198432556Y-114307394D02*
X198358693Y-114411116D01*
X184108985Y-118549504D02*
X184082323Y-118506745D01*
X177218172Y-118538155D02*
X177266074Y-118558458D01*
X116181194Y-126362578D02*
X116131446Y-126385455D01*
X202331652Y-113931923D02*
X202235549Y-113848743D01*
X172679943Y-67194961D02*
X172512850Y-66992879D01*
X169185442Y-65212517D02*
X168891474Y-65163311D01*
X105141203Y-67947671D02*
X105207534Y-68008703D01*
X142170561Y-35141615D02*
X141723947Y-34781326D01*
X109137312Y-124082746D02*
X109046110Y-123916308D01*
X197876028Y-116676703D02*
X197786643Y-117461384D01*
X139293608Y-41834150D02*
X139269115Y-41794907D01*
X128774209Y-41841919D02*
X128750020Y-41877970D01*
X198358693Y-114411116D02*
X198289775Y-114518446D01*
X197936595Y-115486910D02*
X197919730Y-115619191D01*
X174875058Y-73665218D02*
X174710542Y-73456884D01*
X115542292Y-109095967D02*
X116650813Y-110395199D01*
X140978224Y-42221972D02*
X140928075Y-42226138D01*
X191929381Y-76104222D02*
X191688512Y-76025461D01*
X139180790Y-41078748D02*
X139187554Y-41057500D01*
X198025241Y-115103362D02*
X197989517Y-115228829D01*
X123811788Y-116330205D02*
X123811771Y-116378337D01*
X124650461Y-46375445D02*
X124657688Y-46423984D01*
X170298155Y-65515831D02*
X170030165Y-65424181D01*
X105862892Y-68522548D02*
X105969346Y-68595185D01*
X129457929Y-118196670D02*
X129509271Y-118170817D01*
X141723947Y-34781326D02*
X141265427Y-34444134D01*
X124334396Y-126237775D02*
X124298187Y-126206409D01*
X143797967Y-44656680D02*
X143782404Y-44539049D01*
X191956354Y-111691863D02*
X192403289Y-111122439D01*
X128893501Y-41528157D02*
X128888357Y-41561029D01*
X113412583Y-126466041D02*
X113161601Y-126459842D01*
X202745647Y-119592457D02*
X202907691Y-118861387D01*
X143762625Y-47324767D02*
X143724072Y-47292372D01*
X106182400Y-68728703D02*
X106288853Y-68788957D01*
X184722366Y-116995582D02*
X184823426Y-116958153D01*
X194497664Y-130060461D02*
X195191569Y-129685638D01*
X128463047Y-42149524D02*
X128424860Y-42173312D01*
X197714825Y-127881142D02*
X198279674Y-127360870D01*
X103660755Y-121438648D02*
X103607736Y-121555872D01*
X203126175Y-117382072D02*
X203181467Y-116636689D01*
X124640858Y-46327161D02*
X124650461Y-46375445D01*
X173631736Y-69435736D02*
X173579336Y-69150162D01*
X202318833Y-121030271D02*
X202549170Y-120315895D01*
X123024780Y-47947227D02*
X122457965Y-48243733D01*
X173432378Y-68606005D02*
X173338534Y-68347576D01*
X143590474Y-45896303D02*
X143636667Y-45803681D01*
X106447381Y-119968421D02*
X106315069Y-119951566D01*
X103403079Y-122449163D02*
X103399629Y-122585151D01*
X194631767Y-77830801D02*
X194456712Y-77656247D01*
X127580779Y-42310316D02*
X127546929Y-42303667D01*
X109130407Y-130866148D02*
X109572051Y-131047977D01*
X199643688Y-113404894D02*
X199523546Y-113452300D01*
X141841659Y-42314746D02*
X141733153Y-42287975D01*
X203146124Y-115356735D02*
X203116507Y-115228830D01*
X142156670Y-42421321D02*
X142053533Y-42381512D01*
X124259181Y-44590058D02*
X124243947Y-44707256D01*
X128831923Y-40982466D02*
X128831931Y-40982508D01*
X189765317Y-125776428D02*
X189712056Y-125734359D01*
X110023875Y-131210443D02*
X110485174Y-131353003D01*
X203181467Y-116636689D02*
X203200026Y-115889396D01*
X137263139Y-32578478D02*
X136732897Y-32449300D01*
X103942452Y-66279891D02*
X104000230Y-66399938D01*
X108280469Y-130446565D02*
X108699645Y-130665497D01*
X197857403Y-84509611D02*
X197883445Y-84487362D01*
X117089234Y-125356711D02*
X116527085Y-126079764D01*
X167663160Y-65075271D02*
X159882834Y-65075271D01*
X173886996Y-71769545D02*
X173820837Y-71498236D01*
X128796580Y-41804794D02*
X128774209Y-41841919D01*
X128831348Y-40981363D02*
X128831362Y-40981378D01*
X192850962Y-76501780D02*
X192627200Y-76390366D01*
X128831265Y-40981219D02*
X128831293Y-40981276D01*
X124279438Y-44470238D02*
X124259181Y-44590058D01*
X143400414Y-46706725D02*
X143393421Y-46658798D01*
X168591905Y-65124908D02*
X168287092Y-65097383D01*
X178681680Y-75663804D02*
X178394413Y-75620679D01*
X198466032Y-83885581D02*
X198490238Y-83855616D01*
X103616608Y-65387969D02*
X103654616Y-65521820D01*
X105908834Y-119941358D02*
X105774619Y-119951606D01*
X143386178Y-46561925D02*
X143385964Y-46513146D01*
X198657866Y-83644217D02*
X198700425Y-83582814D01*
X106705541Y-120021338D02*
X106577594Y-119991734D01*
X198774115Y-113931917D02*
X198682144Y-114019540D01*
X153756375Y-58808726D02*
X153405074Y-57765005D01*
X111973711Y-126256683D02*
X111751313Y-126184839D01*
X126886140Y-42223085D02*
X126755762Y-42227023D01*
X108688107Y-122449149D02*
X108677866Y-122314905D01*
X192429477Y-125173164D02*
X192048009Y-125368271D01*
X202031692Y-113696378D02*
X201924273Y-113627527D01*
X195791268Y-79433189D02*
X195671385Y-79214515D01*
X124665093Y-46521458D02*
X124665305Y-46570208D01*
X129951239Y-118076911D02*
X129951292Y-118076682D01*
X124462584Y-43839015D02*
X124413862Y-43963120D01*
X128896541Y-41492540D02*
X128893501Y-41528157D01*
X154489572Y-61435351D02*
X154334067Y-61000457D01*
X113106113Y-63626147D02*
X113068299Y-63660920D01*
X105258797Y-120057162D02*
X105135936Y-120098854D01*
X126626451Y-42237363D02*
X126498410Y-42253984D01*
X125884365Y-42427051D02*
X125768210Y-42478809D01*
X137788561Y-32730781D02*
X137263139Y-32578478D01*
X198225971Y-114629217D02*
X198167448Y-114743261D01*
X139170080Y-41535593D02*
X139163450Y-41497684D01*
X128636602Y-42010877D02*
X128604463Y-42041142D01*
X203169452Y-115486911D02*
X203146124Y-115356735D01*
X108483242Y-121555775D02*
X108430172Y-121438542D01*
X143677530Y-44074528D02*
X143641127Y-43966953D01*
X139174512Y-41102170D02*
X139180790Y-41078748D01*
X113298039Y-63384854D02*
X113270590Y-63428509D01*
X127956768Y-42337945D02*
X127911827Y-42343372D01*
X199074004Y-113696371D02*
X198970212Y-113770165D01*
X133959562Y-118470771D02*
X176916472Y-118470771D01*
X116277116Y-126308411D02*
X116229794Y-126336892D01*
X124662560Y-46472686D02*
X124665093Y-46521458D01*
X189954640Y-113777807D02*
X190486893Y-113286271D01*
X182453266Y-125136723D02*
X182464771Y-125171536D01*
X139226607Y-41712877D02*
X139208776Y-41670158D01*
X152110705Y-54862510D02*
X151595346Y-53973223D01*
X106397624Y-68846128D02*
X106397625Y-68846189D01*
X106397657Y-68846279D02*
X106397750Y-68846416D01*
X121375530Y-48880838D02*
X120859914Y-49221238D01*
X103495646Y-64828056D02*
X103521068Y-64971963D01*
X195658572Y-104536874D02*
X195859715Y-103802248D01*
X124371080Y-44090716D02*
X124334442Y-44221681D01*
X115923509Y-126448533D02*
X115869928Y-126457114D01*
X131661094Y-118314920D02*
X132117576Y-118368852D01*
X128831941Y-40982536D02*
X128831958Y-40982573D01*
X157590463Y-64605731D02*
X157177301Y-64408528D01*
X190385718Y-125969493D02*
X190319900Y-125969233D01*
X197457430Y-84784007D02*
X197491075Y-84760053D01*
X175050136Y-73864760D02*
X174875058Y-73665218D01*
X182508683Y-125429224D02*
X182509413Y-125467719D01*
X128832159Y-40982897D02*
X128843006Y-41031222D01*
X109468140Y-124570148D02*
X109348548Y-124410165D01*
X123663224Y-115827429D02*
X123687839Y-115869475D01*
X143434674Y-46847469D02*
X143421058Y-46801144D01*
X116987807Y-52922420D02*
X116642994Y-53402685D01*
X177297023Y-75331634D02*
X177037522Y-75231259D01*
X198747400Y-79703780D02*
X198287039Y-79717685D01*
X198066915Y-114980500D02*
X198025241Y-115103362D01*
X184926064Y-116918036D02*
X184929257Y-116917300D01*
X106519982Y-68928756D02*
X106578731Y-68970689D01*
X108608087Y-121924405D02*
X108572367Y-121798875D01*
X195409271Y-78792036D02*
X195267388Y-78588582D01*
M02*
