G04 #@! TF.GenerationSoftware,KiCad,Pcbnew,7.0.9*
G04 #@! TF.CreationDate,2023-12-10T17:01:55-06:00*
G04 #@! TF.ProjectId,Sleigh_Controller_Ornament_2023,536c6569-6768-45f4-936f-6e74726f6c6c,rev?*
G04 #@! TF.SameCoordinates,Original*
G04 #@! TF.FileFunction,Soldermask,Top*
G04 #@! TF.FilePolarity,Negative*
%FSLAX46Y46*%
G04 Gerber Fmt 4.6, Leading zero omitted, Abs format (unit mm)*
G04 Created by KiCad (PCBNEW 7.0.9) date 2023-12-10 17:01:55*
%MOMM*%
%LPD*%
G01*
G04 APERTURE LIST*
G04 Aperture macros list*
%AMHorizOval*
0 Thick line with rounded ends*
0 $1 width*
0 $2 $3 position (X,Y) of the first rounded end (center of the circle)*
0 $4 $5 position (X,Y) of the second rounded end (center of the circle)*
0 Add line between two ends*
20,1,$1,$2,$3,$4,$5,0*
0 Add two circle primitives to create the rounded ends*
1,1,$1,$2,$3*
1,1,$1,$4,$5*%
G04 Aperture macros list end*
%ADD10C,0.000000*%
%ADD11C,0.650000*%
%ADD12HorizOval,1.000000X-0.388909X0.388909X0.388909X-0.388909X0*%
%ADD13C,1.820000*%
G04 APERTURE END LIST*
D10*
G36*
X114302744Y-69158927D02*
G01*
X114302401Y-69158927D01*
X114302744Y-69158897D01*
X114302744Y-69158927D01*
G37*
G36*
X116504988Y-64293238D02*
G01*
X116654464Y-64312647D01*
X116783587Y-64334136D01*
X116962274Y-64374367D01*
X117270884Y-64451351D01*
X117696675Y-64561840D01*
X118226908Y-64702583D01*
X119564828Y-65064781D01*
X121221049Y-65519591D01*
X129692360Y-67881721D01*
X141593956Y-71238624D01*
X142155679Y-71411032D01*
X142703976Y-71611344D01*
X143238559Y-71838657D01*
X143759138Y-72092067D01*
X144265425Y-72370672D01*
X144757130Y-72673569D01*
X145233965Y-72999854D01*
X145695639Y-73348624D01*
X146572354Y-74110009D01*
X147384963Y-74950499D01*
X148131153Y-75862870D01*
X148808613Y-76839896D01*
X149415030Y-77874354D01*
X149948093Y-78959019D01*
X150405490Y-80086667D01*
X150784908Y-81250072D01*
X151084036Y-82442011D01*
X151300561Y-83655258D01*
X151432171Y-84882590D01*
X151476555Y-86116782D01*
X151486953Y-86746773D01*
X151518369Y-87376934D01*
X151571131Y-88005767D01*
X151645570Y-88631778D01*
X151742016Y-89253470D01*
X151860798Y-89869348D01*
X152002248Y-90477916D01*
X152166695Y-91077678D01*
X152354469Y-91667138D01*
X152565899Y-92244800D01*
X152801317Y-92809169D01*
X153061052Y-93358749D01*
X153345434Y-93892043D01*
X153654793Y-94407556D01*
X153989459Y-94903793D01*
X154349762Y-95379256D01*
X154734981Y-95834037D01*
X155147034Y-96270404D01*
X155587572Y-96686848D01*
X156058244Y-97081863D01*
X156560699Y-97453940D01*
X157096587Y-97801573D01*
X157667557Y-98123252D01*
X158275259Y-98417472D01*
X158921342Y-98682724D01*
X159607456Y-98917500D01*
X160335250Y-99120293D01*
X161106373Y-99289595D01*
X161922476Y-99423899D01*
X162785206Y-99521697D01*
X163696215Y-99581482D01*
X164657150Y-99601745D01*
X176362374Y-99601745D01*
X176697007Y-99594229D01*
X177034073Y-99571712D01*
X177372606Y-99534239D01*
X177711637Y-99481855D01*
X178050201Y-99414606D01*
X178387330Y-99332538D01*
X178722057Y-99235695D01*
X179053415Y-99124124D01*
X179380438Y-98997869D01*
X179702158Y-98856977D01*
X180017609Y-98701492D01*
X180325822Y-98531460D01*
X180625833Y-98346926D01*
X180916672Y-98147937D01*
X181197375Y-97934536D01*
X181466973Y-97706771D01*
X181724689Y-97466088D01*
X181972135Y-97211367D01*
X182208433Y-96941913D01*
X182432708Y-96657027D01*
X182644081Y-96356014D01*
X182841675Y-96038174D01*
X183024613Y-95702812D01*
X183192019Y-95349231D01*
X183343014Y-94976733D01*
X183476723Y-94584621D01*
X183592267Y-94172198D01*
X183688771Y-93738767D01*
X183765356Y-93283631D01*
X183821145Y-92806092D01*
X183855262Y-92305455D01*
X183866829Y-91781020D01*
X183882918Y-91255465D01*
X183930290Y-90737021D01*
X184007602Y-90226133D01*
X184113511Y-89723250D01*
X184246673Y-89228817D01*
X184405746Y-88743282D01*
X184589385Y-88267090D01*
X184796250Y-87800689D01*
X185024995Y-87344525D01*
X185274278Y-86899044D01*
X185542756Y-86464694D01*
X185829086Y-86041921D01*
X186131925Y-85631172D01*
X186449929Y-85232893D01*
X186781755Y-84847530D01*
X187126061Y-84475532D01*
X187481499Y-84117444D01*
X187846649Y-83773811D01*
X188220065Y-83445092D01*
X188600300Y-83131743D01*
X188985908Y-82834220D01*
X189375443Y-82552982D01*
X189767458Y-82288484D01*
X190160507Y-82041184D01*
X190553145Y-81811538D01*
X190943924Y-81600005D01*
X191331399Y-81407040D01*
X191714123Y-81233100D01*
X192090650Y-81078644D01*
X192459534Y-80944127D01*
X192819328Y-80830006D01*
X193168587Y-80736739D01*
X193172585Y-80736739D01*
X193560353Y-80640714D01*
X193947097Y-80553943D01*
X194718444Y-80406399D01*
X195488493Y-80290591D01*
X196259112Y-80202999D01*
X197032165Y-80140106D01*
X197809521Y-80098392D01*
X198593046Y-80074339D01*
X199384606Y-80064429D01*
X199374843Y-80234987D01*
X199360368Y-80408269D01*
X199341126Y-80583827D01*
X199317062Y-80761213D01*
X199288120Y-80939980D01*
X199254247Y-81119680D01*
X199215387Y-81299864D01*
X199171486Y-81480085D01*
X199122489Y-81659894D01*
X199068340Y-81838845D01*
X199008986Y-82016489D01*
X198944371Y-82192378D01*
X198874441Y-82366065D01*
X198799141Y-82537101D01*
X198718415Y-82705038D01*
X198632210Y-82869430D01*
X198534004Y-83041727D01*
X198431164Y-83208282D01*
X198323882Y-83368610D01*
X198212351Y-83522222D01*
X198096763Y-83668632D01*
X197977312Y-83807354D01*
X197854189Y-83937902D01*
X197727589Y-84059788D01*
X197597703Y-84172526D01*
X197464724Y-84275629D01*
X197328845Y-84368611D01*
X197190259Y-84450986D01*
X197049158Y-84522265D01*
X196905735Y-84581964D01*
X196833213Y-84607319D01*
X196760183Y-84629595D01*
X196686668Y-84648733D01*
X196612694Y-84664672D01*
X196610695Y-84666671D01*
X193802086Y-85303840D01*
X193808083Y-85303840D01*
X193589089Y-85351593D01*
X193366494Y-85410393D01*
X193140969Y-85480132D01*
X192913188Y-85560701D01*
X192683823Y-85651994D01*
X192453546Y-85753903D01*
X192223031Y-85866320D01*
X191992949Y-85989137D01*
X191763973Y-86122247D01*
X191536777Y-86265542D01*
X191312032Y-86418914D01*
X191090411Y-86582256D01*
X190872586Y-86755460D01*
X190659231Y-86938418D01*
X190451018Y-87131023D01*
X190248619Y-87333167D01*
X190052752Y-87544838D01*
X189864176Y-87765996D01*
X189683629Y-87996504D01*
X189511848Y-88236223D01*
X189349571Y-88485014D01*
X189197536Y-88742740D01*
X189056481Y-89009262D01*
X188927141Y-89284442D01*
X188810256Y-89568141D01*
X188706563Y-89860222D01*
X188616799Y-90160545D01*
X188541702Y-90468972D01*
X188482010Y-90785366D01*
X188438459Y-91109587D01*
X188411787Y-91441498D01*
X188402733Y-91780959D01*
X188384297Y-92522013D01*
X188329824Y-93244657D01*
X188240567Y-93948295D01*
X188117778Y-94632330D01*
X187962708Y-95296165D01*
X187776611Y-95939205D01*
X187560739Y-96560852D01*
X187316343Y-97160510D01*
X187044677Y-97737583D01*
X186746993Y-98291475D01*
X186424542Y-98821588D01*
X186078577Y-99327326D01*
X185710351Y-99808094D01*
X185321116Y-100263293D01*
X184912124Y-100692329D01*
X184484627Y-101094604D01*
X184040445Y-101470925D01*
X183582638Y-101821446D01*
X183112314Y-102146377D01*
X182630576Y-102445929D01*
X182138533Y-102720310D01*
X181637288Y-102969731D01*
X181127949Y-103194402D01*
X180611622Y-103394532D01*
X180089412Y-103570332D01*
X179562425Y-103722011D01*
X179031768Y-103849778D01*
X178498546Y-103953845D01*
X177963865Y-104034420D01*
X177428831Y-104091714D01*
X176894551Y-104125937D01*
X176362129Y-104137298D01*
X164657417Y-104137298D01*
X163488473Y-104109607D01*
X162358774Y-104027759D01*
X161268584Y-103893589D01*
X160218168Y-103708933D01*
X159207790Y-103475628D01*
X158237715Y-103195508D01*
X157308207Y-102870411D01*
X156419529Y-102502172D01*
X155571947Y-102092626D01*
X154765725Y-101643610D01*
X154001126Y-101156960D01*
X153278416Y-100634511D01*
X152597859Y-100078100D01*
X151959718Y-99489561D01*
X151364259Y-98870733D01*
X150811745Y-98223449D01*
X150301094Y-97551374D01*
X149831483Y-96859623D01*
X149401796Y-96149997D01*
X149010915Y-95424292D01*
X148657724Y-94684310D01*
X148341106Y-93931848D01*
X148059943Y-93168707D01*
X147813118Y-92396685D01*
X147599515Y-91617581D01*
X147418016Y-90833196D01*
X147267505Y-90045327D01*
X147146865Y-89255774D01*
X147054977Y-88466336D01*
X146990727Y-87678813D01*
X146952995Y-86895003D01*
X146940666Y-86116706D01*
X146931066Y-85677685D01*
X146902682Y-85238209D01*
X146856143Y-84799037D01*
X146792076Y-84360925D01*
X146711108Y-83924633D01*
X146613866Y-83490918D01*
X146500979Y-83060539D01*
X146373074Y-82634254D01*
X146230777Y-82212820D01*
X146074717Y-81796997D01*
X145905522Y-81387542D01*
X145723817Y-80985213D01*
X145530231Y-80590769D01*
X145325391Y-80204968D01*
X145109925Y-79828567D01*
X144884461Y-79462325D01*
X144649730Y-79107096D01*
X144406192Y-78763408D01*
X144154396Y-78432061D01*
X143894892Y-78113859D01*
X143628231Y-77809601D01*
X143354962Y-77520091D01*
X143075635Y-77246129D01*
X142790800Y-76988518D01*
X142501007Y-76748059D01*
X142206807Y-76525553D01*
X141908748Y-76321802D01*
X141607381Y-76137608D01*
X141303255Y-75973773D01*
X140996922Y-75831097D01*
X140688930Y-75710384D01*
X140379830Y-75612434D01*
X128339220Y-72222465D01*
X119941797Y-69881515D01*
X118345337Y-69441943D01*
X117088228Y-69100173D01*
X116608346Y-68972171D01*
X116238665Y-68875892D01*
X116097878Y-68840330D01*
X116038739Y-68825759D01*
X115986994Y-68813392D01*
X115944041Y-68803251D01*
X115925606Y-68798974D01*
X115908498Y-68795191D01*
X115892190Y-68791877D01*
X115876158Y-68789006D01*
X115859874Y-68786553D01*
X115842814Y-68784492D01*
X115803753Y-68781144D01*
X115757065Y-68778255D01*
X115640366Y-68773591D01*
X115491826Y-68769978D01*
X115310557Y-68766891D01*
X114857769Y-68762137D01*
X114304926Y-68758887D01*
X112983579Y-68758260D01*
X111517505Y-68762885D01*
X107640735Y-68784583D01*
X107524810Y-68779570D01*
X107400392Y-68764556D01*
X107268321Y-68739575D01*
X107129436Y-68704661D01*
X106984579Y-68659847D01*
X106834589Y-68605167D01*
X106680306Y-68540655D01*
X106522572Y-68466345D01*
X106362226Y-68382270D01*
X106200109Y-68288463D01*
X106037061Y-68184960D01*
X105873922Y-68071793D01*
X105711533Y-67948996D01*
X105550734Y-67816602D01*
X105392365Y-67674646D01*
X105237266Y-67523162D01*
X105093642Y-67369991D01*
X104954813Y-67208070D01*
X104821283Y-67037510D01*
X104693555Y-66858422D01*
X104572132Y-66670917D01*
X104457517Y-66475106D01*
X104350214Y-66271101D01*
X104250726Y-66059012D01*
X104159555Y-65838950D01*
X104077205Y-65611026D01*
X104004180Y-65375352D01*
X103940982Y-65132038D01*
X103888115Y-64881196D01*
X103846081Y-64622936D01*
X103815384Y-64357370D01*
X103796528Y-64262000D01*
X103886000Y-64262000D01*
X105029000Y-64262000D01*
X105664000Y-64262000D01*
X106426000Y-64262000D01*
X106680000Y-64262000D01*
X106934000Y-64262000D01*
X107132656Y-64262000D01*
X107451335Y-64262000D01*
X107569000Y-64262000D01*
X107823000Y-64262000D01*
X112863924Y-64262000D01*
X114122066Y-64262000D01*
X114702607Y-64262000D01*
X115239579Y-64262000D01*
X115724574Y-64262000D01*
X116149181Y-64262000D01*
X116504988Y-64293238D01*
G37*
G36*
X135519935Y-59531039D02*
G01*
X135750096Y-59548373D01*
X135976797Y-59576924D01*
X136199759Y-59616416D01*
X136418707Y-59666571D01*
X136633363Y-59727113D01*
X136843450Y-59797764D01*
X137048691Y-59878246D01*
X137248810Y-59968284D01*
X137443529Y-60067600D01*
X137632571Y-60175917D01*
X137815659Y-60292958D01*
X137992516Y-60418446D01*
X138162866Y-60552104D01*
X138326431Y-60693654D01*
X138482933Y-60842820D01*
X138632097Y-60999325D01*
X138773645Y-61162891D01*
X138907300Y-61333242D01*
X139032785Y-61510101D01*
X139149824Y-61693190D01*
X139258138Y-61882232D01*
X139357451Y-62076950D01*
X139447487Y-62277068D01*
X139527967Y-62482308D01*
X139598615Y-62692393D01*
X139659155Y-62907047D01*
X139709308Y-63125991D01*
X139748799Y-63348950D01*
X139777349Y-63575645D01*
X139794683Y-63805800D01*
X139800522Y-64039138D01*
X140300247Y-64039138D01*
X140306087Y-63805797D01*
X140323420Y-63575640D01*
X140351971Y-63348943D01*
X140391462Y-63125982D01*
X140441616Y-62907037D01*
X140502156Y-62692382D01*
X140572805Y-62482296D01*
X140653286Y-62277055D01*
X140743322Y-62076937D01*
X140842636Y-61882218D01*
X140950951Y-61693176D01*
X141067990Y-61510087D01*
X141193476Y-61333229D01*
X141327132Y-61162879D01*
X141468680Y-60999313D01*
X141617845Y-60842809D01*
X141774348Y-60693644D01*
X141937913Y-60552094D01*
X142108263Y-60418437D01*
X142285120Y-60292950D01*
X142468209Y-60175910D01*
X142657251Y-60067594D01*
X142851969Y-59968279D01*
X143052088Y-59878242D01*
X143257329Y-59797760D01*
X143467415Y-59727110D01*
X143682070Y-59666569D01*
X143901017Y-59616415D01*
X144123978Y-59576924D01*
X144350677Y-59548372D01*
X144580836Y-59531039D01*
X144814179Y-59525199D01*
X147788674Y-59525199D01*
X147788674Y-60947341D01*
X147782836Y-61180682D01*
X147765506Y-61410837D01*
X147736962Y-61637529D01*
X147697480Y-61860481D01*
X147647338Y-62079415D01*
X147586811Y-62294057D01*
X147516177Y-62504128D01*
X147435713Y-62709351D01*
X147345695Y-62909450D01*
X147246400Y-63104149D01*
X147138106Y-63293169D01*
X147021089Y-63476235D01*
X146895625Y-63653070D01*
X146761992Y-63823396D01*
X146620467Y-63986937D01*
X146471326Y-64143416D01*
X146314846Y-64292556D01*
X146151305Y-64434080D01*
X145980978Y-64567712D01*
X145804143Y-64693175D01*
X145621077Y-64810191D01*
X145432056Y-64918485D01*
X145237358Y-65017779D01*
X145037258Y-65107796D01*
X144832035Y-65188260D01*
X144621964Y-65258893D01*
X144407323Y-65319419D01*
X144188389Y-65369561D01*
X143965438Y-65409043D01*
X143738747Y-65437586D01*
X143508593Y-65454916D01*
X143275253Y-65460754D01*
X141413864Y-65460754D01*
X141413864Y-70809783D01*
X139709684Y-70333153D01*
X138985565Y-70128900D01*
X138687416Y-70040320D01*
X138687416Y-65460754D01*
X136826035Y-65460754D01*
X136592693Y-65454916D01*
X136362535Y-65437586D01*
X136135837Y-65409043D01*
X135912877Y-65369561D01*
X135693931Y-65319419D01*
X135479276Y-65258893D01*
X135269190Y-65188260D01*
X135063949Y-65107796D01*
X134863831Y-65017779D01*
X134669112Y-64918485D01*
X134480070Y-64810191D01*
X134296981Y-64693175D01*
X134120123Y-64567712D01*
X133949772Y-64434080D01*
X133786207Y-64292556D01*
X133629703Y-64143416D01*
X133480538Y-63986937D01*
X133338988Y-63823396D01*
X133205332Y-63653070D01*
X133079845Y-63476235D01*
X132962805Y-63293169D01*
X132854490Y-63104149D01*
X132755175Y-62909450D01*
X132665138Y-62709351D01*
X132584656Y-62504128D01*
X132514006Y-62294057D01*
X132453466Y-62079415D01*
X132403311Y-61860481D01*
X132363820Y-61637529D01*
X132335269Y-61410837D01*
X132317935Y-61180682D01*
X132312096Y-60947341D01*
X132312096Y-59525199D01*
X135286591Y-59525199D01*
X135519935Y-59531039D01*
G37*
G36*
X166314955Y-82792667D02*
G01*
X166545115Y-82809984D01*
X166771814Y-82838507D01*
X166994776Y-82877960D01*
X167213723Y-82928067D01*
X167428378Y-82988552D01*
X167638465Y-83059138D01*
X167843706Y-83139550D01*
X168043824Y-83229510D01*
X168238543Y-83328743D01*
X168427585Y-83436973D01*
X168610673Y-83553923D01*
X168787531Y-83679317D01*
X168957881Y-83812878D01*
X169121445Y-83954331D01*
X169277949Y-84103398D01*
X169427113Y-84259805D01*
X169568661Y-84423274D01*
X169702317Y-84593530D01*
X169827802Y-84770295D01*
X169944841Y-84953295D01*
X170053156Y-85142252D01*
X170152470Y-85336890D01*
X170242505Y-85536933D01*
X170322986Y-85742105D01*
X170393635Y-85952129D01*
X170454175Y-86166729D01*
X170504329Y-86385630D01*
X170543820Y-86608554D01*
X170572370Y-86835225D01*
X170589704Y-87065368D01*
X170595543Y-87298705D01*
X171095268Y-87298705D01*
X171101108Y-87065370D01*
X171118442Y-86835230D01*
X171146993Y-86608561D01*
X171186484Y-86385639D01*
X171236638Y-86166740D01*
X171297178Y-85952140D01*
X171367828Y-85742117D01*
X171448309Y-85536946D01*
X171538346Y-85336903D01*
X171637660Y-85142265D01*
X171745976Y-84953308D01*
X171863015Y-84770309D01*
X171988502Y-84593543D01*
X172122158Y-84423287D01*
X172263707Y-84259817D01*
X172412872Y-84103410D01*
X172569375Y-83954341D01*
X172732940Y-83812888D01*
X172903291Y-83679326D01*
X173080148Y-83553931D01*
X173263237Y-83436980D01*
X173452279Y-83328750D01*
X173646997Y-83229515D01*
X173847115Y-83139554D01*
X174052356Y-83059141D01*
X174262442Y-82988554D01*
X174477096Y-82928069D01*
X174696042Y-82877961D01*
X174919003Y-82838507D01*
X175145700Y-82809984D01*
X175375858Y-82792667D01*
X175609200Y-82786834D01*
X178583702Y-82786834D01*
X178583702Y-84206901D01*
X178577863Y-84440243D01*
X178560529Y-84670403D01*
X178531978Y-84897101D01*
X178492486Y-85120062D01*
X178442331Y-85339009D01*
X178381790Y-85553664D01*
X178311140Y-85763751D01*
X178230658Y-85968992D01*
X178140621Y-86169110D01*
X178041305Y-86363829D01*
X177932989Y-86552871D01*
X177815949Y-86735959D01*
X177690461Y-86912817D01*
X177556804Y-87083166D01*
X177415254Y-87246731D01*
X177266089Y-87403235D01*
X177109584Y-87552399D01*
X176946018Y-87693948D01*
X176775667Y-87827603D01*
X176598809Y-87953089D01*
X176415720Y-88070128D01*
X176226677Y-88178443D01*
X176031958Y-88277757D01*
X175831840Y-88367793D01*
X175626599Y-88448274D01*
X175416512Y-88518924D01*
X175201858Y-88579463D01*
X174982912Y-88629617D01*
X174759951Y-88669108D01*
X174533254Y-88697659D01*
X174303096Y-88714993D01*
X174069756Y-88720832D01*
X172208885Y-88720832D01*
X172208885Y-99223037D01*
X169481926Y-99223037D01*
X169481926Y-88720832D01*
X167620537Y-88720832D01*
X167387198Y-88714993D01*
X167157045Y-88697659D01*
X166930354Y-88669108D01*
X166707404Y-88629617D01*
X166488470Y-88579463D01*
X166273829Y-88518924D01*
X166063759Y-88448274D01*
X165858535Y-88367793D01*
X165658436Y-88277757D01*
X165463738Y-88178443D01*
X165274717Y-88070128D01*
X165091651Y-87953089D01*
X164914816Y-87827603D01*
X164744489Y-87693948D01*
X164580947Y-87552399D01*
X164424467Y-87403235D01*
X164275326Y-87246731D01*
X164133801Y-87083166D01*
X164000168Y-86912817D01*
X163874704Y-86735959D01*
X163757686Y-86552871D01*
X163649392Y-86363829D01*
X163550097Y-86169110D01*
X163460079Y-85968992D01*
X163379614Y-85763751D01*
X163308980Y-85553664D01*
X163248453Y-85339009D01*
X163198310Y-85120062D01*
X163158829Y-84897101D01*
X163130284Y-84670403D01*
X163112955Y-84440243D01*
X163107117Y-84206901D01*
X163107117Y-82786834D01*
X166081612Y-82786834D01*
X166314955Y-82792667D01*
G37*
G36*
X164138573Y-69035201D02*
G01*
X164132733Y-69268548D01*
X164115400Y-69498721D01*
X164086849Y-69725440D01*
X164047357Y-69948430D01*
X163997203Y-70167412D01*
X163936662Y-70382109D01*
X163866013Y-70592243D01*
X163785531Y-70797537D01*
X163695494Y-70997712D01*
X163596180Y-71192492D01*
X163487864Y-71381599D01*
X163370824Y-71564754D01*
X163245338Y-71741682D01*
X163111681Y-71912103D01*
X162970132Y-72075741D01*
X162820967Y-72232317D01*
X162664463Y-72381555D01*
X162500898Y-72523176D01*
X162330548Y-72656903D01*
X162153690Y-72782459D01*
X161970601Y-72899565D01*
X161781559Y-73007945D01*
X161586841Y-73107320D01*
X161386723Y-73197413D01*
X161181483Y-73277947D01*
X160971397Y-73348644D01*
X160756742Y-73409225D01*
X160537797Y-73459415D01*
X160314837Y-73498934D01*
X160088140Y-73527506D01*
X159857982Y-73544853D01*
X159624642Y-73550697D01*
X157761193Y-73550697D01*
X157761193Y-97655318D01*
X157755427Y-97659907D01*
X157738531Y-97656099D01*
X157673748Y-97624787D01*
X157437039Y-97477850D01*
X157089504Y-97238433D01*
X156669580Y-96930465D01*
X156215704Y-96577874D01*
X155988046Y-96392322D01*
X155766315Y-96204587D01*
X155555314Y-96017660D01*
X155359849Y-95834532D01*
X155184724Y-95658194D01*
X155034744Y-95491637D01*
X155034744Y-73550704D01*
X153173355Y-73550704D01*
X152940015Y-73544860D01*
X152709862Y-73527513D01*
X152483171Y-73498941D01*
X152260220Y-73459421D01*
X152041285Y-73409231D01*
X151826645Y-73348649D01*
X151616574Y-73277951D01*
X151411351Y-73197417D01*
X151211251Y-73107323D01*
X151016553Y-73007946D01*
X150827532Y-72899566D01*
X150644466Y-72782458D01*
X150467631Y-72656902D01*
X150297304Y-72523174D01*
X150133762Y-72381552D01*
X149977283Y-72232313D01*
X149828142Y-72075736D01*
X149686617Y-71912098D01*
X149552984Y-71741676D01*
X149427520Y-71564749D01*
X149310503Y-71381593D01*
X149202209Y-71192486D01*
X149102914Y-70997706D01*
X149012896Y-70797531D01*
X148932432Y-70592238D01*
X148861798Y-70382105D01*
X148801271Y-70167410D01*
X148751128Y-69948429D01*
X148711647Y-69725441D01*
X148683103Y-69498723D01*
X148665773Y-69268553D01*
X148659935Y-69035209D01*
X148659935Y-67615150D01*
X151634423Y-67615142D01*
X151867766Y-67620980D01*
X152097926Y-67638309D01*
X152324625Y-67666853D01*
X152547587Y-67706334D01*
X152766534Y-67756476D01*
X152981189Y-67817003D01*
X153191276Y-67887636D01*
X153396517Y-67968100D01*
X153596635Y-68058117D01*
X153791354Y-68157411D01*
X153980396Y-68265704D01*
X154163484Y-68382721D01*
X154340342Y-68508183D01*
X154510691Y-68641815D01*
X154674256Y-68783340D01*
X154830759Y-68932480D01*
X154979924Y-69088959D01*
X155121472Y-69252500D01*
X155255127Y-69422826D01*
X155380613Y-69599660D01*
X155497652Y-69782726D01*
X155605966Y-69971747D01*
X155705280Y-70166445D01*
X155795316Y-70366544D01*
X155875797Y-70571768D01*
X155946446Y-70781839D01*
X156006986Y-70996480D01*
X156057140Y-71215415D01*
X156096630Y-71438367D01*
X156125181Y-71665058D01*
X156142514Y-71895213D01*
X156148354Y-72128554D01*
X156648079Y-72128554D01*
X156653918Y-71895217D01*
X156671252Y-71665065D01*
X156699803Y-71438376D01*
X156739294Y-71215426D01*
X156789448Y-70996493D01*
X156849988Y-70781853D01*
X156920637Y-70571783D01*
X157001118Y-70366561D01*
X157091154Y-70166462D01*
X157190468Y-69971764D01*
X157298783Y-69782743D01*
X157415822Y-69599677D01*
X157541308Y-69422842D01*
X157674964Y-69252516D01*
X157816512Y-69088974D01*
X157965677Y-68932494D01*
X158122180Y-68783353D01*
X158285745Y-68641828D01*
X158456095Y-68508194D01*
X158632952Y-68382731D01*
X158816040Y-68265713D01*
X159005082Y-68157418D01*
X159199801Y-68058123D01*
X159399919Y-67968105D01*
X159605160Y-67887640D01*
X159815247Y-67817006D01*
X160029902Y-67756479D01*
X160248849Y-67706336D01*
X160471810Y-67666854D01*
X160698509Y-67638310D01*
X160928668Y-67620980D01*
X161162010Y-67615142D01*
X164138573Y-67615142D01*
X164138573Y-69035201D01*
G37*
G36*
X103796889Y-64084248D02*
G01*
X103796787Y-64084243D01*
X103797046Y-64084090D01*
X103796889Y-64084248D01*
G37*
G36*
X126953124Y-42631172D02*
G01*
X127063385Y-42639024D01*
X127174081Y-42652510D01*
X127285046Y-42671728D01*
X127396113Y-42696778D01*
X128260590Y-42899585D01*
X129117879Y-43070665D01*
X129968458Y-43210997D01*
X130812804Y-43321563D01*
X131651394Y-43403342D01*
X132484706Y-43457315D01*
X133313217Y-43484461D01*
X134137404Y-43485762D01*
X134957744Y-43462197D01*
X135774716Y-43414746D01*
X136588796Y-43344390D01*
X137400461Y-43252108D01*
X138210189Y-43138882D01*
X139018457Y-43005691D01*
X139825742Y-42853515D01*
X140632523Y-42683335D01*
X140693466Y-42670680D01*
X140754600Y-42659671D01*
X140815879Y-42650352D01*
X140877260Y-42642766D01*
X140938700Y-42636957D01*
X141000153Y-42632968D01*
X141061576Y-42630842D01*
X141122925Y-42630624D01*
X141122925Y-42630120D01*
X141219169Y-42632749D01*
X141314477Y-42639461D01*
X141408753Y-42650178D01*
X141501902Y-42664823D01*
X141593829Y-42683322D01*
X141684438Y-42705595D01*
X141773635Y-42731568D01*
X141861323Y-42761163D01*
X141947407Y-42794303D01*
X142031792Y-42830912D01*
X142114383Y-42870913D01*
X142195084Y-42914230D01*
X142273800Y-42960785D01*
X142350436Y-43010502D01*
X142424896Y-43063305D01*
X142497085Y-43119116D01*
X142566907Y-43177859D01*
X142634268Y-43239458D01*
X142699071Y-43303835D01*
X142761222Y-43370913D01*
X142820625Y-43440618D01*
X142877185Y-43512870D01*
X142930807Y-43587594D01*
X142981394Y-43664714D01*
X143028853Y-43744152D01*
X143073087Y-43825831D01*
X143114001Y-43909676D01*
X143151499Y-43995609D01*
X143185487Y-44083553D01*
X143215869Y-44173433D01*
X143242550Y-44265170D01*
X143265434Y-44358689D01*
X143287313Y-44470516D01*
X143303354Y-44582083D01*
X143313664Y-44693225D01*
X143318344Y-44803779D01*
X143317501Y-44913579D01*
X143311238Y-45022463D01*
X143299659Y-45130265D01*
X143282869Y-45236822D01*
X143260972Y-45341969D01*
X143234072Y-45445542D01*
X143202273Y-45547377D01*
X143165680Y-45647311D01*
X143124396Y-45745177D01*
X143078527Y-45840814D01*
X143028176Y-45934055D01*
X142973447Y-46024737D01*
X142914445Y-46112697D01*
X142851274Y-46197769D01*
X142784038Y-46279790D01*
X142712842Y-46358595D01*
X142637789Y-46434020D01*
X142558984Y-46505901D01*
X142476532Y-46574074D01*
X142390535Y-46638374D01*
X142301100Y-46698638D01*
X142208329Y-46754701D01*
X142112327Y-46806399D01*
X142013198Y-46853568D01*
X141911047Y-46896044D01*
X141805978Y-46933662D01*
X141698095Y-46966258D01*
X141587502Y-46993669D01*
X139782223Y-47352820D01*
X138868434Y-47502097D01*
X137947227Y-47629454D01*
X137018612Y-47733601D01*
X136082602Y-47813247D01*
X135139207Y-47867101D01*
X134188437Y-47893871D01*
X133230304Y-47892269D01*
X132264820Y-47861002D01*
X131291994Y-47798779D01*
X130311839Y-47704311D01*
X129324365Y-47576307D01*
X128329583Y-47413475D01*
X127327505Y-47214525D01*
X126318140Y-46978166D01*
X126208385Y-46947570D01*
X126101487Y-46911870D01*
X125997544Y-46871234D01*
X125896658Y-46825829D01*
X125798926Y-46775821D01*
X125704450Y-46721377D01*
X125613328Y-46662666D01*
X125525659Y-46599853D01*
X125441545Y-46533105D01*
X125361083Y-46462590D01*
X125284374Y-46388475D01*
X125211517Y-46310927D01*
X125142612Y-46230112D01*
X125077759Y-46146198D01*
X125017056Y-46059352D01*
X124960604Y-45969740D01*
X124908502Y-45877530D01*
X124860850Y-45782889D01*
X124817746Y-45685984D01*
X124779292Y-45586982D01*
X124745586Y-45486049D01*
X124716728Y-45383353D01*
X124692818Y-45279062D01*
X124673955Y-45173341D01*
X124660238Y-45066358D01*
X124651768Y-44958279D01*
X124648643Y-44849273D01*
X124650964Y-44739506D01*
X124658830Y-44629144D01*
X124672340Y-44518356D01*
X124691594Y-44407308D01*
X124716692Y-44296167D01*
X124747341Y-44186518D01*
X124783076Y-44079727D01*
X124823731Y-43975895D01*
X124869139Y-43875118D01*
X124919135Y-43777498D01*
X124973552Y-43683132D01*
X125032225Y-43592120D01*
X125094987Y-43504561D01*
X125161671Y-43420555D01*
X125232113Y-43340199D01*
X125306145Y-43263594D01*
X125383602Y-43190839D01*
X125464318Y-43122033D01*
X125548126Y-43057274D01*
X125634860Y-42996662D01*
X125724355Y-42940296D01*
X125816444Y-42888275D01*
X125910961Y-42840698D01*
X126007739Y-42797665D01*
X126106614Y-42759274D01*
X126207418Y-42725625D01*
X126309985Y-42696817D01*
X126414151Y-42672948D01*
X126519747Y-42654119D01*
X126626609Y-42640427D01*
X126734570Y-42631973D01*
X126843463Y-42628855D01*
X126953124Y-42631172D01*
G37*
G36*
X200623354Y-113652918D02*
G01*
X200735682Y-113661417D01*
X200846348Y-113675412D01*
X200955213Y-113694768D01*
X201062140Y-113719347D01*
X201166994Y-113749013D01*
X201269637Y-113783628D01*
X201369931Y-113823056D01*
X201467741Y-113867159D01*
X201562929Y-113915802D01*
X201655358Y-113968846D01*
X201744891Y-114026155D01*
X201831392Y-114087593D01*
X201914723Y-114153021D01*
X201994748Y-114222304D01*
X202071329Y-114295304D01*
X202144330Y-114371885D01*
X202213614Y-114451909D01*
X202279043Y-114535240D01*
X202340482Y-114621740D01*
X202397792Y-114711274D01*
X202450837Y-114803703D01*
X202499481Y-114898891D01*
X202543585Y-114996701D01*
X202583014Y-115096996D01*
X202617630Y-115199640D01*
X202647296Y-115304495D01*
X202671876Y-115411424D01*
X202691232Y-115520291D01*
X202705228Y-115630958D01*
X202713727Y-115743289D01*
X202716591Y-115857146D01*
X202698615Y-116582633D01*
X202645049Y-117306397D01*
X202556439Y-118027042D01*
X202433331Y-118743169D01*
X202276271Y-119453383D01*
X202085803Y-120156284D01*
X201862474Y-120850476D01*
X201606830Y-121534562D01*
X201319414Y-122207143D01*
X201000774Y-122866822D01*
X200651455Y-123512203D01*
X200272002Y-124141887D01*
X199862962Y-124754476D01*
X199424878Y-125348575D01*
X198958298Y-125922784D01*
X198463766Y-126475707D01*
X197941829Y-127005946D01*
X197393031Y-127512105D01*
X196817919Y-127992784D01*
X196217038Y-128446587D01*
X195590933Y-128872117D01*
X194940150Y-129267975D01*
X194265235Y-129632765D01*
X193566733Y-129965089D01*
X192845190Y-130263550D01*
X192101151Y-130526750D01*
X191335162Y-130753292D01*
X190547768Y-130941778D01*
X189739516Y-131090811D01*
X188910950Y-131198993D01*
X188062617Y-131264927D01*
X187195061Y-131287215D01*
X113369074Y-131287215D01*
X112886224Y-131275972D01*
X112408591Y-131242594D01*
X111936838Y-131187604D01*
X111471627Y-131111529D01*
X111013622Y-131014894D01*
X110563487Y-130898223D01*
X110121883Y-130762043D01*
X109689475Y-130606877D01*
X109266926Y-130433252D01*
X108854898Y-130241692D01*
X108454055Y-130032723D01*
X108065059Y-129806870D01*
X107688576Y-129564658D01*
X107325266Y-129306612D01*
X106975793Y-129033257D01*
X106640821Y-128745118D01*
X106321013Y-128442721D01*
X106017032Y-128126591D01*
X105729540Y-127797253D01*
X105459202Y-127455232D01*
X105206679Y-127101053D01*
X104972636Y-126735242D01*
X104757736Y-126358323D01*
X104562641Y-125970822D01*
X104388015Y-125573264D01*
X104234521Y-125166173D01*
X104102822Y-124750076D01*
X103993582Y-124325498D01*
X103907462Y-123892963D01*
X103845127Y-123452997D01*
X103807240Y-123006124D01*
X103794464Y-122552871D01*
X103797335Y-122439014D01*
X103805853Y-122326672D01*
X103819878Y-122215982D01*
X103839273Y-122107082D01*
X103863902Y-122000109D01*
X103893625Y-121895203D01*
X103928305Y-121792499D01*
X103967805Y-121692136D01*
X104011986Y-121594251D01*
X104060712Y-121498983D01*
X104113844Y-121406469D01*
X104171244Y-121316846D01*
X104232776Y-121230253D01*
X104298301Y-121146826D01*
X104367682Y-121066705D01*
X104440781Y-120990026D01*
X104517459Y-120916927D01*
X104597581Y-120847546D01*
X104681007Y-120782020D01*
X104767600Y-120720488D01*
X104857223Y-120663087D01*
X104949737Y-120609954D01*
X105045006Y-120561228D01*
X105142891Y-120517046D01*
X105243254Y-120477546D01*
X105345959Y-120442866D01*
X105450867Y-120413142D01*
X105557840Y-120388514D01*
X105666741Y-120369118D01*
X105777432Y-120355092D01*
X105889776Y-120346575D01*
X106003635Y-120343703D01*
X106117499Y-120346557D01*
X106229835Y-120355058D01*
X106340507Y-120369068D01*
X106449378Y-120388449D01*
X106556311Y-120413065D01*
X106661168Y-120442776D01*
X106763814Y-120477446D01*
X106864111Y-120516937D01*
X106961922Y-120561111D01*
X107057111Y-120609830D01*
X107149541Y-120662956D01*
X107239074Y-120720353D01*
X107325574Y-120781881D01*
X107408904Y-120847404D01*
X107488927Y-120916784D01*
X107565506Y-120989883D01*
X107638505Y-121066563D01*
X107707786Y-121146686D01*
X107773213Y-121230116D01*
X107834648Y-121316713D01*
X107891956Y-121406341D01*
X107944998Y-121498862D01*
X107993639Y-121594138D01*
X108037740Y-121692031D01*
X108077167Y-121792403D01*
X108111780Y-121895118D01*
X108141444Y-122000036D01*
X108166022Y-122107021D01*
X108185377Y-122215935D01*
X108199372Y-122326639D01*
X108207870Y-122438997D01*
X108210735Y-122552871D01*
X108217337Y-122744968D01*
X108236935Y-122937750D01*
X108269213Y-123130788D01*
X108313854Y-123323653D01*
X108370544Y-123515917D01*
X108438966Y-123707150D01*
X108518805Y-123896924D01*
X108609744Y-124084809D01*
X108711469Y-124270378D01*
X108823664Y-124453200D01*
X108946013Y-124632847D01*
X109078200Y-124808890D01*
X109219909Y-124980900D01*
X109370825Y-125148448D01*
X109530633Y-125311106D01*
X109699016Y-125468444D01*
X109875804Y-125620040D01*
X110060861Y-125765429D01*
X110253918Y-125904119D01*
X110454706Y-126035615D01*
X110662955Y-126159425D01*
X110878396Y-126275055D01*
X111100759Y-126382013D01*
X111329775Y-126479806D01*
X111565175Y-126567940D01*
X111806688Y-126645922D01*
X112054046Y-126713260D01*
X112306979Y-126769459D01*
X112565218Y-126814028D01*
X112828493Y-126846472D01*
X113096535Y-126866299D01*
X113369074Y-126873016D01*
X116399904Y-126873016D01*
X117394152Y-125593505D01*
X124522913Y-116410079D01*
X125049335Y-116659598D01*
X125581218Y-116894638D01*
X126118300Y-117115290D01*
X126660318Y-117321641D01*
X127207012Y-117513783D01*
X127758118Y-117691804D01*
X128313375Y-117855794D01*
X128872521Y-118005843D01*
X121989741Y-126873000D01*
X184404000Y-126873000D01*
X177978035Y-118597533D01*
X178635596Y-118554634D01*
X179284119Y-118496633D01*
X179923060Y-118423045D01*
X180551876Y-118333385D01*
X181170022Y-118227166D01*
X181776953Y-118103904D01*
X182372125Y-117963112D01*
X182954994Y-117804305D01*
X189589730Y-126351592D01*
X189775246Y-126591888D01*
X189931313Y-126554687D01*
X190422044Y-126428133D01*
X190899509Y-126281547D01*
X191363556Y-126115591D01*
X191814032Y-125930928D01*
X192250787Y-125728222D01*
X192673669Y-125508134D01*
X193082526Y-125271329D01*
X193477206Y-125018469D01*
X193857559Y-124750218D01*
X194223431Y-124467237D01*
X194574673Y-124170191D01*
X194911131Y-123859742D01*
X195232655Y-123536553D01*
X195539092Y-123201287D01*
X196106102Y-122497176D01*
X196610948Y-121752714D01*
X197052416Y-120973203D01*
X197429294Y-120163948D01*
X197740369Y-119330253D01*
X197984428Y-118477422D01*
X198160257Y-117610757D01*
X198266644Y-116735564D01*
X198302376Y-115857146D01*
X198305242Y-115743289D01*
X198313741Y-115630958D01*
X198327738Y-115520291D01*
X198347095Y-115411424D01*
X198371675Y-115304495D01*
X198401341Y-115199640D01*
X198435958Y-115096996D01*
X198475386Y-114996701D01*
X198519491Y-114898891D01*
X198568134Y-114803703D01*
X198621179Y-114711274D01*
X198678489Y-114621740D01*
X198739927Y-114535240D01*
X198805356Y-114451909D01*
X198874639Y-114371885D01*
X198947640Y-114295304D01*
X199024221Y-114222304D01*
X199104245Y-114153021D01*
X199187576Y-114087593D01*
X199274077Y-114026155D01*
X199363610Y-113968846D01*
X199456040Y-113915802D01*
X199551228Y-113867159D01*
X199649038Y-113823056D01*
X199749333Y-113783628D01*
X199851977Y-113749013D01*
X199956832Y-113719347D01*
X200063761Y-113694768D01*
X200172628Y-113675412D01*
X200283295Y-113661417D01*
X200395626Y-113652918D01*
X200509484Y-113650054D01*
X200509499Y-113650054D01*
X200623354Y-113652918D01*
G37*
D11*
X121560583Y-58098459D03*
X125647661Y-54011381D03*
D12*
X120917116Y-59477317D03*
X127026519Y-53367914D03*
D13*
X134112000Y-34036000D03*
X184023000Y-77724000D03*
X116840000Y-107188000D03*
M02*
