M48
; DRILL file {KiCad 7.0.9} date Sunday, December 10, 2023 at 05:02:55 PM
; FORMAT={-:-/ absolute / metric / decimal}
; #@! TF.CreationDate,2023-12-10T17:02:55-06:00
; #@! TF.GenerationSoftware,Kicad,Pcbnew,7.0.9
; #@! TF.FileFunction,Plated,1,4,PTH
FMAT,2
METRIC
; #@! TA.AperFunction,Plated,PTH,ViaDrill
T1C0.300
; #@! TA.AperFunction,Plated,PTH,ComponentDrill
T2C0.600
%
G90
G05
T1
X104.699Y-123.292
X106.248Y-127.254
X108.636Y-129.337
X108.966Y-70.104
X111.125Y-90.17
X111.887Y-95.631
X112.293Y-130.658
X113.34Y-97.85
X113.62Y-96.87
X113.919Y-74.295
X114.046Y-81.407
X114.554Y-90.043
X114.554Y-104.394
X115.951Y-78.359
X116.205Y-83.82
X116.459Y-71.12
X116.459Y-76.708
X116.713Y-59.817
X117.043Y-130.658
X117.602Y-61.341
X118.161Y-109.753
X118.554Y-77.153
X119.126Y-71.374
X119.126Y-72.517
X119.253Y-55.626
X119.253Y-108.077
X119.507Y-53.34
X119.888Y-81.28
X120.142Y-61.214
X120.269Y-110.109
X120.523Y-64.135
X120.625Y-112.497
X120.904Y-83.82
X121.844Y-130.658
X121.92Y-63.119
X121.996Y-64.999
X122.047Y-53.213
X122.047Y-71.501
X122.428Y-51.181
X122.555Y-60.833
X122.555Y-85.217
X122.657Y-113.284
X122.784Y-55.829
X122.936Y-61.849
X123.215Y-64.922
X123.698Y-76.708
X123.8Y-75.057
X123.952Y-114.427
X124.206Y-54.102
X124.716Y-72.138
X124.739Y-115.646
X125.222Y-81.788
X125.476Y-85.344
X125.53Y-116.43
X125.73Y-58.547
X125.87Y-115.11
X125.984Y-48.895
X126.111Y-83.185
X126.492Y-66.18
X128.082Y-72.39
X128.143Y-36.068
X128.143Y-130.658
X128.27Y-66.421
X128.397Y-48.895
X128.778Y-37.465
X128.778Y-54.991
X129.286Y-53.34
X129.54Y-39.116
X129.54Y-42.545
X130.302Y-49.022
X130.302Y-50.673
X130.556Y-34.417
X131.699Y-54.229
X131.826Y-36.322
X132.08Y-58.674
X132.207Y-81.28
X132.715Y-52.07
X133.35Y-76.708
X133.452Y-130.658
X133.477Y-48.641
X133.477Y-50.673
X134.239Y-84.836
X134.874Y-53.594
X134.874Y-67.437
X134.874Y-86.995
X135.255Y-36.322
X135.865Y-78.054
X136.652Y-48.26
X136.652Y-50.673
X137.033Y-34.417
X137.668Y-58.547
X137.922Y-48.768
X137.947Y-77.546
X138.007Y-68.114
X138.811Y-36.449
X139.065Y-57.15
X139.065Y-59.995
X139.268Y-130.658
X139.954Y-35.052
X140.462Y-55.753
X140.462Y-58.623
X140.462Y-61.417
X140.462Y-76.708
X141.859Y-57.15
X141.859Y-60.02
X142.875Y-110.998
X143.129Y-114.554
X143.256Y-58.547
X143.256Y-107.061
X143.332Y-78.283
X143.51Y-67.183
X144.145Y-67.945
X144.907Y-65.659
X144.907Y-82.677
X145.517Y-130.658
X145.542Y-86.106
X146.025Y-83.007
X146.812Y-65.024
X147.066Y-100.457
X147.193Y-68.072
X147.193Y-97.917
X147.447Y-70.485
X147.828Y-104.013
X148.209Y-116.205
X148.336Y-97.917
X148.336Y-100.457
X148.615Y-71.831
X149.098Y-61.595
X149.479Y-63.5
X149.479Y-64.643
X149.606Y-97.917
X149.606Y-100.457
X151.384Y-109.093
X151.613Y-67.132
X151.892Y-101.727
X152.095Y-130.658
X152.146Y-85.979
X152.273Y-88.392
X153.162Y-82.931
X153.162Y-85.979
X153.162Y-88.392
X154.051Y-74.32
X154.051Y-111.887
X154.178Y-85.979
X154.178Y-88.392
X155.829Y-103.251
X156.413Y-70.764
X156.972Y-112.522
X157.226Y-130.658
X158.75Y-94.488
X159.385Y-75.946
X159.512Y-112.395
X159.766Y-90.043
X161.544Y-85.471
X161.849Y-130.658
X162.179Y-75.438
X162.306Y-112.268
X164.084Y-93.345
X166.243Y-72.771
X166.878Y-114.681
X167.208Y-130.658
X167.64Y-97.79
X168.656Y-97.79
X169.037Y-75.819
X169.418Y-110.744
X170.18Y-79.248
X170.688Y-83.566
X171.069Y-130.658
X172.593Y-73.787
X174.117Y-79.756
X174.498Y-105.41
X175.006Y-91.948
X175.362Y-130.658
X175.895Y-97.155
X178.689Y-88.011
X179.959Y-80.899
X179.959Y-91.948
X179.959Y-96.647
X180.594Y-78.232
X180.975Y-85.471
X181.102Y-115.392
X181.204Y-130.658
X181.559Y-113.944
X182.524Y-115.976
X182.855Y-117.246
X183.464Y-113.462
X184.023Y-114.935
X185.674Y-113.716
X186.893Y-130.658
X190.17Y-111.41
X190.27Y-79.79
X191.592Y-130.023
X192.03Y-101.43
X192.6Y-92.66
X193.3Y-98.81
X193.421Y-86.157
X193.83Y-90.01
X194.513Y-79.985
X195.605Y-128.245
X198.018Y-126.136
X199.822Y-123.647
X201.701Y-119.558
X201.955Y-115.773
T2
X120.528Y-59.088G85X121.306Y-59.866
G05
X126.638Y-52.979G85X127.415Y-53.757
G05
T0
M30
