%TF.GenerationSoftware,KiCad,Pcbnew,7.0.9*%
%TF.CreationDate,2023-12-10T17:03:03-06:00*%
%TF.ProjectId,Sleigh_Controller_Ornament_2023,536c6569-6768-45f4-936f-6e74726f6c6c,rev?*%
%TF.SameCoordinates,Original*%
%TF.FileFunction,Drillmap*%
%TF.FilePolarity,Positive*%
%FSLAX45Y45*%
G04 Gerber Fmt 4.5, Leading zero omitted, Abs format (unit mm)*
G04 Created by KiCad (PCBNEW 7.0.9) date 2023-12-10 17:03:03*
%MOMM*%
%LPD*%
G01*
G04 APERTURE LIST*
%ADD10C,0.199600*%
%ADD11C,0.200000*%
%ADD12C,0.100000*%
G04 APERTURE END LIST*
D10*
X10957205Y-13104798D02*
X11002388Y-13121044D01*
X19920029Y-8270340D02*
X19924501Y-8260597D01*
X19918140Y-11362752D02*
X19907400Y-11369637D01*
X18210855Y-12626740D02*
X18206942Y-12629522D01*
X17003017Y-6542418D02*
X16975514Y-6534303D01*
X19773617Y-8460259D02*
X19777044Y-8457799D01*
X19377967Y-13040190D02*
X19449766Y-13006046D01*
X12354298Y-11567104D02*
X12357629Y-11570819D01*
X12414167Y-12602567D02*
X12411572Y-12598518D01*
X13994625Y-4228590D02*
X13985369Y-4225658D01*
X13015685Y-11808689D02*
X13021367Y-11809150D01*
X14305779Y-4303279D02*
X14298007Y-4295558D01*
X10660748Y-6899244D02*
X10663567Y-6901484D01*
X12462886Y-4627922D02*
X12464086Y-4632716D01*
X12972526Y-11809853D02*
X12978118Y-11808832D01*
X19496285Y-7819813D02*
X19480054Y-7801149D01*
X14340963Y-4675420D02*
X14340041Y-4670673D01*
X18249165Y-12527919D02*
X18249797Y-12531605D01*
X10402236Y-12576528D02*
X10420549Y-12618329D01*
X17194725Y-6644488D02*
X17173847Y-6628189D01*
X17366961Y-6973020D02*
X17363174Y-6943574D01*
X10896481Y-12374872D02*
X10889364Y-12358047D01*
X12449331Y-4711993D02*
X12446498Y-4716001D01*
X10439359Y-6706982D02*
X10446543Y-6717206D01*
X13915183Y-4138580D02*
X13915048Y-4134963D01*
X18214625Y-12623777D02*
X18210855Y-12626740D01*
X18482343Y-11695815D02*
X18487346Y-11693880D01*
X12883144Y-4098149D02*
X12883148Y-4098155D01*
X12036137Y-4957607D02*
X11987990Y-4994524D01*
X20242365Y-11401955D02*
X20233165Y-11393192D01*
X15301444Y-5675900D02*
X15258336Y-5579130D01*
X14360039Y-4386167D02*
X14355543Y-4375878D01*
X10596935Y-6859518D02*
X10607587Y-6866401D01*
X12888731Y-4129061D02*
X12889174Y-4133252D01*
X18398638Y-11771588D02*
X18400106Y-11767050D01*
X19590347Y-7965658D02*
X19579127Y-7943319D01*
X12768413Y-4232678D02*
X12761501Y-4231623D01*
X10383530Y-6603488D02*
X10388715Y-6615749D01*
X20158207Y-11345231D02*
X20146191Y-11340490D01*
X17416579Y-7253972D02*
X17405986Y-7229049D01*
X17811193Y-7556569D02*
X17783461Y-7549906D01*
X10358166Y-6525191D02*
X10361661Y-6538797D01*
X19828704Y-7971768D02*
X19782857Y-7973650D01*
X10639775Y-6884642D02*
X10639793Y-6884662D01*
X19670988Y-8541737D02*
X19673962Y-8535602D01*
X14126543Y-3444413D02*
X14079579Y-3413004D01*
X15413447Y-6013042D02*
X15406947Y-5988956D01*
X19148692Y-13121163D02*
X19227373Y-13097892D01*
X19031990Y-12596923D02*
X19025432Y-12596466D01*
X12883148Y-4098155D02*
X12883152Y-4098164D01*
X17563488Y-7440859D02*
X17543043Y-7423665D01*
X10425421Y-6685625D02*
X10432295Y-6696427D01*
X17731300Y-11858132D02*
X17735884Y-11860672D01*
X14344966Y-4617311D02*
X14346828Y-4612574D01*
X18564869Y-11659853D02*
X18632504Y-11626615D01*
X12875002Y-4187797D02*
X12872409Y-4191292D01*
X17323159Y-6809835D02*
X17311190Y-6785839D01*
X19874223Y-8352056D02*
X19878329Y-8345749D01*
X14384591Y-4738434D02*
X14384561Y-4738436D01*
X19929224Y-11356378D02*
X19918140Y-11362752D01*
X12761501Y-4231623D02*
X12758078Y-4231032D01*
X20192427Y-11362753D02*
X20181342Y-11356379D01*
X19836328Y-8401483D02*
X19846603Y-8388558D01*
X14128470Y-4222715D02*
X14116956Y-4222397D01*
X10904611Y-12391631D02*
X10896481Y-12374872D01*
X20169930Y-11350532D02*
X20158207Y-11345231D01*
X10538426Y-12002142D02*
X10525880Y-12005716D01*
X12423388Y-4482209D02*
X12422913Y-4493482D01*
X18166345Y-12645417D02*
X18161351Y-12646052D01*
X18405806Y-11846311D02*
X18403619Y-11841868D01*
X20293851Y-11474326D02*
X20287996Y-11462922D01*
X19948305Y-8200644D02*
X19953419Y-8185362D01*
X12444932Y-4589797D02*
X12450566Y-4600405D01*
X19763883Y-11823932D02*
X19743355Y-11900639D01*
X18982086Y-12581444D02*
X18976532Y-12577643D01*
X14254785Y-4262122D02*
X14245349Y-4256533D01*
X12809042Y-4231168D02*
X12804614Y-4232207D01*
X10575659Y-6844641D02*
X10586289Y-6852255D01*
X19870043Y-8358281D02*
X19874223Y-8352056D01*
X12883129Y-4098128D02*
X12883131Y-4098132D01*
X15678288Y-6418053D02*
X15640877Y-6392331D01*
X19980670Y-12565698D02*
X20025796Y-12504610D01*
X19585972Y-10380225D02*
X19603770Y-10305617D01*
X20068877Y-11324766D02*
X20055278Y-11324421D01*
X10778380Y-7196796D02*
X10830295Y-7367628D01*
X12437209Y-12626740D02*
X12433440Y-12623777D01*
X10469059Y-6746417D02*
X10476855Y-6755664D01*
X19928832Y-8250773D02*
X19933019Y-8240872D01*
X11336814Y-6324725D02*
X11334689Y-6329413D01*
X12453238Y-4604797D02*
X12455661Y-4609279D01*
X19605677Y-12188362D02*
X19557842Y-12253457D01*
X14370948Y-4418431D02*
X14367753Y-4407453D01*
X12486830Y-4317448D02*
X12478820Y-4327510D01*
X19397300Y-10867081D02*
X19431024Y-10801739D01*
X11302902Y-6369390D02*
X11298835Y-6372500D01*
X12883193Y-4098251D02*
X12883194Y-4098254D01*
X17701902Y-11848277D02*
X17706972Y-11849271D01*
X18398478Y-11828152D02*
X18397233Y-11823479D01*
X19668427Y-8548099D02*
X19670988Y-8541737D01*
X19664608Y-8561424D02*
X19666295Y-8554668D01*
X19770158Y-8462634D02*
X19773617Y-8460259D01*
X11340391Y-6315087D02*
X11338717Y-6319946D01*
X12842486Y-4217331D02*
X12838569Y-4219572D01*
X10360774Y-12155587D02*
X10356033Y-12167603D01*
X11341257Y-13176003D02*
X18723759Y-13176003D01*
X11543468Y-5545716D02*
X11517535Y-5600363D01*
X14245349Y-4256533D02*
X14235676Y-4251332D01*
X12883118Y-4098103D02*
X12883123Y-4098114D01*
X18241263Y-12503966D02*
X18245327Y-12513672D01*
X10372321Y-12489934D02*
X10386136Y-12533712D01*
X12397639Y-12556975D02*
X12397253Y-12551907D01*
X10343015Y-12218263D02*
X10341331Y-12231493D01*
X12883190Y-4098238D02*
X12883191Y-4098241D01*
X10378602Y-6590999D02*
X10383530Y-6603488D01*
X18494192Y-11691470D02*
X18494729Y-11691378D01*
X19066368Y-12591386D02*
X19058666Y-12593634D01*
X10418748Y-6674579D02*
X10425421Y-6685625D01*
X10986123Y-8102536D02*
X10992706Y-8184791D01*
X19863498Y-8367591D02*
X19865787Y-8364422D01*
X14362038Y-4718580D02*
X14358986Y-4714743D01*
X19554399Y-7900074D02*
X19540927Y-7879204D01*
X13009857Y-11808164D02*
X13015685Y-11808689D01*
X19825716Y-8413880D02*
X19828435Y-8410879D01*
X12419912Y-12610250D02*
X12416950Y-12606480D01*
X12422913Y-4493482D02*
X12422983Y-4504572D01*
X19704984Y-8500644D02*
X19710678Y-8497027D01*
X17311190Y-6785839D02*
X17297982Y-6762779D01*
X18723759Y-13176003D02*
X18812759Y-13173714D01*
X10564234Y-11996848D02*
X10551217Y-11999181D01*
X12504186Y-4298640D02*
X12495292Y-4307821D01*
X14327142Y-4328340D02*
X14320358Y-4319679D01*
X13457948Y-3216389D02*
X13403695Y-3215037D01*
X19983258Y-8047212D02*
X19984677Y-8032201D01*
X18396361Y-11780831D02*
X18397389Y-11776185D01*
X10400023Y-6639994D02*
X10406039Y-6651762D01*
X13028125Y-3270380D02*
X12976019Y-3287553D01*
X18426578Y-11726785D02*
X18430378Y-11723459D01*
X19743355Y-11900639D02*
X19717175Y-11975847D01*
X14376202Y-4441891D02*
X14373687Y-4429619D01*
X19239890Y-7628685D02*
X19216624Y-7619141D01*
X10925427Y-7739709D02*
X10944900Y-7833618D01*
X12791183Y-4234337D02*
X12786682Y-4234709D01*
X19240329Y-11112244D02*
X19282856Y-11053503D01*
X12885601Y-4109431D02*
X12886956Y-4116819D01*
X18966130Y-12568826D02*
X18961327Y-12563817D01*
X12481719Y-12645417D02*
X12476805Y-12644539D01*
X11652708Y-12607976D02*
X11649010Y-12612467D01*
X12857096Y-4207017D02*
X12853617Y-4209792D01*
X20025796Y-12504610D02*
X20067938Y-12441614D01*
X15640877Y-6392331D02*
X15605652Y-6363841D01*
X11597658Y-12643706D02*
X11592351Y-12644853D01*
X11243445Y-12637054D02*
X11220151Y-12631874D01*
X12881706Y-4176662D02*
X12879658Y-4180479D01*
X11001077Y-9451605D02*
X11019106Y-9633498D01*
X17726607Y-11855846D02*
X17731300Y-11858132D01*
X15258336Y-5579130D02*
X15211070Y-5486251D01*
X14272900Y-4274426D02*
X14263972Y-4268089D01*
X18408146Y-11749656D02*
X18410692Y-11745540D01*
X12377781Y-11609292D02*
X12378912Y-11613963D01*
X12888836Y-4156103D02*
X12887849Y-4160402D01*
X12372840Y-11675646D02*
X12370744Y-11680152D01*
X11247092Y-6391715D02*
X11241947Y-6391866D01*
X19940634Y-11350532D02*
X19929224Y-11356378D01*
X12885202Y-4168725D02*
X12883556Y-4172743D01*
X19673962Y-8535602D02*
X19677333Y-8529713D01*
X12918343Y-11841570D02*
X12922446Y-11837168D01*
X17373099Y-7093497D02*
X17370807Y-7064342D01*
X14348934Y-4607892D02*
X14351284Y-4603273D01*
X13133892Y-3242981D02*
X13080776Y-3255522D01*
X12368784Y-11586947D02*
X12371026Y-11591252D01*
X19831104Y-8407803D02*
X19833732Y-8404666D01*
X12378912Y-11613963D02*
X12379818Y-11618680D01*
X11361126Y-6149249D02*
X11345197Y-6284735D01*
X12931261Y-11829260D02*
X12935945Y-11825758D01*
X15916162Y-6503094D02*
X15892681Y-6499699D01*
X11622979Y-12633689D02*
X11618119Y-12636258D01*
X14298007Y-4295558D02*
X14289929Y-4288170D01*
X11470800Y-5713532D02*
X11449999Y-5772033D01*
X20002005Y-11329802D02*
X19989211Y-11332758D01*
X13941102Y-4197852D02*
X13937893Y-4194438D01*
X12883139Y-4098141D02*
X12883142Y-4098144D01*
X18882729Y-11469741D02*
X18940140Y-11424839D01*
X18250652Y-12539110D02*
X18250868Y-12542922D01*
X14023225Y-4232945D02*
X14013627Y-4232260D01*
X14380866Y-4477187D02*
X14379797Y-4465668D01*
X12377713Y-11661745D02*
X12376323Y-11666434D01*
X16975514Y-6534303D02*
X16947345Y-6527245D01*
X19859445Y-11411144D02*
X19851120Y-11420744D01*
X19942851Y-8215832D02*
X19948305Y-8200644D01*
X17173847Y-6628189D02*
X17152016Y-6612886D01*
X10378296Y-12121367D02*
X10371922Y-12132452D01*
X17839441Y-7562068D02*
X17811193Y-7556569D01*
X10639869Y-6884729D02*
X10639932Y-6884781D01*
X20213551Y-11377017D02*
X20203169Y-11369638D01*
X12376426Y-11604677D02*
X12377781Y-11609292D01*
X11314239Y-6358967D02*
X11310611Y-6362615D01*
X12423049Y-12613871D02*
X12419912Y-12610250D01*
X18410692Y-11745540D02*
X18413451Y-11741534D01*
X10565050Y-6836708D02*
X10575659Y-6844641D01*
X12446498Y-4716001D02*
X12443457Y-4719877D01*
X14351284Y-4603273D02*
X14353881Y-4598727D01*
X19882363Y-8339366D02*
X19886327Y-8332911D01*
X15572770Y-6332741D02*
X15542386Y-6299185D01*
X20055278Y-11324421D02*
X20041679Y-11324766D01*
X18244885Y-12581084D02*
X18243098Y-12585616D01*
X14032789Y-4232827D02*
X14023225Y-4232945D01*
X15406947Y-5988956D02*
X15375637Y-5880873D01*
X11645108Y-12616687D02*
X11641014Y-12620637D01*
X18206942Y-12629522D02*
X18202893Y-12632118D01*
X19227373Y-13097892D02*
X19303817Y-13070853D01*
X12426353Y-12617337D02*
X12423049Y-12613871D01*
X12397123Y-12546772D02*
X12397196Y-12542922D01*
X18990470Y-7572496D02*
X18963800Y-7571998D01*
X10638299Y-12909665D02*
X10673369Y-12939886D01*
X15846678Y-6490152D02*
X15802081Y-6477058D01*
X12048414Y-11378303D02*
X12192028Y-11472633D01*
X14381523Y-4499516D02*
X14381443Y-4488467D01*
X12886636Y-4164610D02*
X12885202Y-4168725D01*
X13920878Y-4167016D02*
X13919335Y-4162635D01*
X14368750Y-4725836D02*
X14365293Y-4722281D01*
X17783461Y-7549906D02*
X17756285Y-7542097D01*
X13349661Y-11846399D02*
X13395956Y-11847077D01*
X10639760Y-6884602D02*
X10639762Y-6884608D01*
X12458559Y-4694836D02*
X12456572Y-4699276D01*
X12443457Y-4719877D02*
X12440211Y-4723612D01*
X11092078Y-12580876D02*
X11072918Y-12569487D01*
X20146191Y-11340490D02*
X20133899Y-11336327D01*
X18401792Y-11762580D02*
X18403695Y-11758185D01*
X11252189Y-6391268D02*
X11247092Y-6391715D01*
X12491781Y-12646437D02*
X12486713Y-12646052D01*
X10344058Y-6438315D02*
X10345530Y-6453364D01*
X19716640Y-8493812D02*
X19738867Y-8482827D01*
X14054976Y-4229253D02*
X14051836Y-4229795D01*
X18249797Y-12531605D02*
X18250294Y-12535336D01*
X17369259Y-7003349D02*
X17366961Y-6973020D01*
X18396222Y-11818770D02*
X18395442Y-11814033D01*
X10772746Y-12054315D02*
X10762745Y-12046449D01*
X18812759Y-13173714D02*
X18899809Y-13166943D01*
X10866100Y-12218259D02*
X10863769Y-12205236D01*
X19480054Y-7801149D02*
X19463177Y-7783080D01*
X10607587Y-6866401D02*
X10618240Y-6872870D01*
X19915416Y-8279994D02*
X19920029Y-8270340D01*
X14116956Y-4222397D02*
X14097822Y-4222197D01*
X12373047Y-11595648D02*
X12374848Y-11600126D01*
X19827967Y-12736087D02*
X19881699Y-12681580D01*
X11941550Y-5032864D02*
X11896818Y-5072618D01*
X12883179Y-4098216D02*
X12883184Y-4098225D01*
X19759633Y-8469401D02*
X19763162Y-8467190D01*
X19782832Y-7973651D02*
X19782810Y-7973651D01*
X15717730Y-6440853D02*
X15678288Y-6418053D01*
X12873754Y-3328850D02*
X12823753Y-3352973D01*
X18248913Y-12566884D02*
X18247799Y-12571712D01*
X19600781Y-7988452D02*
X19590347Y-7965658D01*
X18176087Y-12643424D02*
X18171259Y-12644539D01*
X12754693Y-4230367D02*
X12741426Y-4227378D01*
X18248399Y-12524279D02*
X18249165Y-12527919D01*
X10674100Y-6911288D02*
X10676499Y-6913999D01*
X19717175Y-11975847D02*
X19685438Y-12049145D01*
X10527428Y-6806770D02*
X10534140Y-6812473D01*
X12424395Y-4470726D02*
X12423388Y-4482209D01*
X19858766Y-8373706D02*
X19861154Y-8370680D01*
X17351277Y-6887356D02*
X17343238Y-6860600D01*
X10456656Y-12039074D02*
X10446283Y-12046463D01*
X14333574Y-4337295D02*
X14327142Y-4328340D01*
X11613145Y-12638545D02*
X11608067Y-12640550D01*
X17251285Y-6699288D02*
X17233480Y-6680045D01*
X14345333Y-4356053D02*
X14339641Y-4346536D01*
X19216624Y-7619141D02*
X19192938Y-7610422D01*
X12465884Y-4666727D02*
X12465219Y-4671541D01*
X19445671Y-7765625D02*
X19427555Y-7748800D01*
X12775338Y-4233713D02*
X12768413Y-4232678D01*
X14345046Y-4689309D02*
X14343467Y-4684747D01*
X18487346Y-11693880D02*
X18492299Y-11691878D01*
X19937062Y-8230903D02*
X19942851Y-8215832D01*
X13915111Y-4127987D02*
X13915295Y-4124658D01*
X10446543Y-6717206D02*
X10453894Y-6727187D01*
X18422985Y-11730264D02*
X18426578Y-11726785D01*
X12398273Y-12561969D02*
X12397639Y-12556975D01*
X11054450Y-12557395D02*
X11036700Y-12544646D01*
X10719132Y-12019930D02*
X10707411Y-12014621D01*
X19600889Y-7988443D02*
X19600781Y-7988452D01*
X10604482Y-11993790D02*
X10590883Y-11994136D01*
X10507532Y-6788452D02*
X10514120Y-6794767D01*
X20318632Y-11561919D02*
X20316945Y-11548691D01*
X19165491Y-12554882D02*
X19125031Y-12571429D01*
X11220151Y-12631874D02*
X11197371Y-12625668D01*
X10500990Y-6781918D02*
X10507532Y-6788452D01*
X12978118Y-11808832D02*
X12983758Y-11808131D01*
X18151147Y-12646567D02*
X12496916Y-12646567D01*
X19744058Y-8479591D02*
X19745743Y-8478401D01*
X15605652Y-6363841D02*
X15572770Y-6332741D01*
X12467241Y-12642080D02*
X12462604Y-12640511D01*
X12462604Y-12640511D02*
X12458073Y-12638724D01*
X12565475Y-4253600D02*
X12554418Y-4259850D01*
X17703752Y-7523126D02*
X17678473Y-7512005D01*
X20308077Y-11510336D02*
X20303908Y-11498050D01*
X14139875Y-4223523D02*
X14128470Y-4222715D01*
X19677333Y-8529713D02*
X19681085Y-8524089D01*
X10540886Y-6817989D02*
X10547664Y-6823325D01*
X19890222Y-8326388D02*
X19894050Y-8319802D01*
X19763162Y-8467190D02*
X19766672Y-8464940D01*
X12424820Y-4526303D02*
X12426614Y-4536997D01*
X12600301Y-4238085D02*
X12588436Y-4242705D01*
X19976660Y-11336327D02*
X19964369Y-11340489D01*
X12435678Y-4568706D02*
X12439974Y-4579239D01*
X13918755Y-4105750D02*
X13919473Y-4103858D01*
X10808645Y-12090225D02*
X10800320Y-12080615D01*
X10453894Y-6727187D02*
X10461402Y-6736924D01*
X11003453Y-12517361D02*
X10988017Y-12502921D01*
X20175888Y-12242611D02*
X20205521Y-12173415D01*
X10923820Y-12424753D02*
X10913731Y-12408275D01*
X19782768Y-7973651D02*
X19782745Y-7973650D01*
X15963982Y-6507027D02*
X15939935Y-6505543D01*
X19828978Y-11451845D02*
X19822597Y-11462922D01*
X19749108Y-8476005D02*
X19750808Y-8474850D01*
X12513491Y-4289917D02*
X12504186Y-4298640D01*
X19567139Y-7921451D02*
X19554399Y-7900074D01*
X12883208Y-4098278D02*
X12883216Y-4098290D01*
X12823753Y-3352973D02*
X12774612Y-3379413D01*
X13915295Y-4124658D02*
X13915571Y-4121456D01*
X12429013Y-4547612D02*
X12432029Y-4558173D01*
X14364113Y-4396695D02*
X14360039Y-4386167D01*
X11600465Y-5440344D02*
X11571112Y-5492373D01*
X11290919Y-13174827D02*
X11341257Y-13176003D01*
X18394972Y-11790240D02*
X18395555Y-11785519D01*
X14356140Y-4710777D02*
X14353500Y-4706690D01*
X19712302Y-12837519D02*
X19771483Y-12788114D01*
X10354986Y-6511365D02*
X10358166Y-6525191D01*
X18823247Y-11512430D02*
X18882729Y-11469741D01*
X18241099Y-12590036D02*
X18238895Y-12594339D01*
X10361645Y-6391869D02*
X10341738Y-6391869D01*
X19282856Y-11053503D02*
X19323202Y-10993022D01*
X19868214Y-11401954D02*
X19859445Y-11411144D01*
X10489870Y-12019943D02*
X10478466Y-12025797D01*
X12883196Y-4098257D02*
X12883199Y-4098262D01*
X12714928Y-4223490D02*
X12701738Y-4222567D01*
X17735884Y-11860672D02*
X17740349Y-11863464D01*
X10747969Y-12995602D02*
X10787358Y-13020989D01*
X19752534Y-8473757D02*
X19759633Y-8469401D01*
X11262207Y-6389522D02*
X11257230Y-6390534D01*
X19603770Y-10305617D02*
X19619240Y-10229922D01*
X19782657Y-7973650D02*
X19737209Y-7976178D01*
X14374291Y-4551521D02*
X14376772Y-4541531D01*
X19790949Y-11575341D02*
X19790604Y-11588940D01*
X19828435Y-8410879D02*
X19831104Y-8407803D01*
X19018919Y-12595582D02*
X19012476Y-12594272D01*
X11343020Y-6305162D02*
X11341828Y-6310156D01*
X11631527Y-5389639D02*
X11600465Y-5440344D01*
X12397771Y-12535336D02*
X12398267Y-12531605D01*
X11298835Y-6372500D02*
X11294637Y-6375412D01*
X11586993Y-12645711D02*
X11581596Y-12646279D01*
X13959460Y-4212806D02*
X13951690Y-4207260D01*
X17716941Y-11852042D02*
X17721817Y-11853815D01*
X19782691Y-7973649D02*
X19782657Y-7973650D01*
X19958188Y-8170007D02*
X19962605Y-8154601D01*
X11332350Y-6334003D02*
X11329804Y-6338485D01*
X10360860Y-12445249D02*
X10372321Y-12489934D01*
X14384561Y-4738436D02*
X14380314Y-4735546D01*
X12883203Y-4098269D02*
X12883208Y-4098278D01*
X10345281Y-12353372D02*
X10351823Y-12399710D01*
X18394571Y-11804512D02*
X18394479Y-11799745D01*
X10639704Y-6884561D02*
X10639733Y-6884580D01*
X11734971Y-5245570D02*
X11698781Y-5292242D01*
X19651537Y-9996916D02*
X19657554Y-9917471D01*
X18202893Y-12632118D02*
X18198714Y-12634521D01*
X12397253Y-12551907D02*
X12397123Y-12546772D01*
X13211758Y-11836885D02*
X13257564Y-11841222D01*
X19962605Y-8154601D02*
X19966667Y-8139168D01*
X12860446Y-4204114D02*
X12857096Y-4207017D01*
X12461884Y-4685709D02*
X12460330Y-4690310D01*
X12430457Y-4434753D02*
X12427944Y-4447024D01*
X19894050Y-8319802D02*
X19897813Y-8313158D01*
X11317705Y-6355158D02*
X11314239Y-6358967D01*
X10345530Y-6453364D02*
X10347369Y-6468194D01*
X12950927Y-11817082D02*
X12956182Y-11814806D01*
X12786682Y-4234709D02*
X12782182Y-4234907D01*
X10467389Y-12032180D02*
X10456656Y-12039074D01*
X10869965Y-13066550D02*
X10913041Y-13086615D01*
X20015025Y-11327473D02*
X20002005Y-11329802D01*
X19601169Y-7988426D02*
X19600989Y-7988436D01*
X18394479Y-11799745D02*
X18394612Y-11794985D01*
X10869736Y-12274686D02*
X10869156Y-12258515D01*
X12363032Y-11693160D02*
X12359983Y-11697297D01*
X13566110Y-3226033D02*
X13512113Y-3220054D01*
X12461446Y-4623173D02*
X12462886Y-4627922D01*
X10351823Y-12399710D02*
X10360860Y-12445249D01*
X12404012Y-12510249D02*
X12412980Y-12494260D01*
X12466530Y-4657021D02*
X12466321Y-4661884D01*
X12445171Y-12632118D02*
X12441122Y-12629522D01*
X12884301Y-4103122D02*
X12885601Y-4109431D01*
X11987990Y-4994524D02*
X11941550Y-5032864D01*
X19738867Y-8482827D02*
X19739754Y-8482341D01*
X11111905Y-12591517D02*
X11092078Y-12580876D01*
X12399666Y-12524279D02*
X12400563Y-12520690D01*
X14087798Y-4223177D02*
X14082798Y-4223869D01*
X20287996Y-11462922D02*
X20281614Y-11451845D01*
X10646020Y-6888827D02*
X10651998Y-6892876D01*
X12471977Y-12643424D02*
X12467241Y-12642080D01*
X18156283Y-12646437D02*
X18151147Y-12646567D01*
X20108552Y-11329802D02*
X20095531Y-11327473D01*
X10392561Y-12100244D02*
X10385181Y-12110625D01*
X11141608Y-10154142D02*
X11204158Y-10317743D01*
X14067889Y-4226542D02*
X14058059Y-4228647D01*
X11241947Y-6391866D02*
X10996745Y-6392241D01*
X11143339Y-13157624D02*
X11191889Y-13165584D01*
X17370033Y-7034553D02*
X17369259Y-7003349D01*
X13915825Y-4145998D02*
X13915440Y-4142264D01*
X19025432Y-12596466D02*
X19018919Y-12595582D01*
X12853617Y-4209792D02*
X12850018Y-4212439D01*
X18940140Y-11424839D02*
X18995464Y-11377781D01*
X17764004Y-11885448D02*
X18241263Y-12503966D01*
X19742357Y-8480742D02*
X19744058Y-8479591D01*
X13075280Y-11817862D02*
X13120618Y-11825124D01*
X19986520Y-7969221D02*
X19967592Y-7969221D01*
X12380946Y-11642648D02*
X12380485Y-11647456D01*
X12380485Y-11647456D02*
X12379793Y-11652247D01*
X19303817Y-13070853D02*
X19377967Y-13040190D01*
X10867787Y-12231490D02*
X10866100Y-12218259D01*
X15103616Y-5312404D02*
X15043203Y-5231555D01*
X13919473Y-4103858D02*
X14217056Y-3514161D01*
X19681085Y-8524089D02*
X19685200Y-8518751D01*
X10534140Y-6812473D02*
X10540886Y-6817989D01*
X17584835Y-7457092D02*
X17563488Y-7440859D01*
X12883136Y-4098138D02*
X12883139Y-4098141D01*
X12464330Y-4676315D02*
X12463217Y-4681040D01*
X19807413Y-8431547D02*
X19813628Y-8425876D01*
X19601482Y-7988401D02*
X19601406Y-7988409D01*
X10657759Y-11999173D02*
X10644738Y-11996842D01*
X10551217Y-11999181D02*
X10538426Y-12002142D01*
X10707411Y-12014621D02*
X10695397Y-12009875D01*
X12523187Y-4281664D02*
X12513491Y-4289917D01*
X12411572Y-12598518D02*
X12409169Y-12594339D01*
X12476805Y-12644539D02*
X12471977Y-12643424D01*
X11576174Y-12646554D02*
X11341258Y-12646604D01*
X13915026Y-4131427D02*
X13915111Y-4127987D01*
X14353500Y-4706690D02*
X14351070Y-4702492D01*
X17152016Y-6612886D02*
X17129268Y-6598587D01*
X14151158Y-4224812D02*
X14139875Y-4223523D01*
X12465219Y-4671541D02*
X12464330Y-4676315D01*
X17441473Y-7301466D02*
X17428421Y-7278117D01*
X12486713Y-12646052D02*
X12481719Y-12645417D01*
X18413806Y-11859130D02*
X18410899Y-11854950D01*
X19511852Y-7839056D02*
X19496285Y-7819813D01*
X13619862Y-3234325D02*
X13566110Y-3226033D01*
X12869649Y-4194674D02*
X12866730Y-4197940D01*
X10628885Y-6878896D02*
X10639516Y-6884446D01*
X14313233Y-4311322D02*
X14305779Y-4303279D01*
X18761707Y-11552845D02*
X18823247Y-11512430D01*
X12478820Y-4327510D02*
X12471282Y-4337993D01*
X19315705Y-12474133D02*
X19279920Y-12496401D01*
X19694461Y-8509010D02*
X19699572Y-8504645D01*
X14225778Y-4246529D02*
X14215667Y-4242132D01*
X19099802Y-11277437D02*
X19148789Y-11224270D01*
X19262720Y-7639037D02*
X19239890Y-7628685D01*
X12830471Y-4223630D02*
X12826306Y-4225441D01*
X17370807Y-7064342D02*
X17370033Y-7034553D01*
X14072840Y-4225569D02*
X14067889Y-4226542D01*
X19048689Y-11328627D02*
X19099802Y-11277437D01*
X13937893Y-4194438D02*
X13934861Y-4190892D01*
X13673290Y-3244930D02*
X13619862Y-3234325D01*
X12245796Y-4824373D02*
X12190821Y-4855497D01*
X14380172Y-4520947D02*
X14381101Y-4510341D01*
X19933019Y-8240872D02*
X19937062Y-8230903D01*
X11334689Y-6329413D02*
X11332350Y-6334003D01*
X19094357Y-7584151D02*
X19068839Y-7579823D01*
X14380314Y-4735546D02*
X14376262Y-4732477D01*
X17543043Y-7423665D02*
X17523539Y-7405531D01*
X12883164Y-4098190D02*
X12883173Y-4098204D01*
X15802081Y-6477058D02*
X15759046Y-6460573D01*
X10883281Y-12341206D02*
X10878255Y-12324400D01*
X13120618Y-11825124D02*
X13166109Y-11831492D01*
X18403619Y-11841868D02*
X18401669Y-11837355D01*
X17740349Y-11863464D02*
X17744683Y-11866508D01*
X12371026Y-11591252D02*
X12373047Y-11595648D01*
X19766672Y-8464940D02*
X19770158Y-8462634D01*
X11517535Y-5600363D02*
X11493313Y-5656305D01*
X12588217Y-3508350D02*
X12883113Y-4098090D01*
X12457704Y-4360176D02*
X12451704Y-4371852D01*
X10988017Y-12502921D02*
X10973417Y-12488017D01*
X18246454Y-12576447D02*
X18244885Y-12581084D01*
X10639660Y-6884533D02*
X10639704Y-6884561D01*
X19125031Y-12571429D02*
X19083432Y-12586417D01*
X11321002Y-6351196D02*
X11317705Y-6355158D01*
X11344643Y-6295020D02*
X11343961Y-6300114D01*
X18963800Y-7571998D02*
X17956833Y-7571998D01*
X17283572Y-6740662D02*
X17267994Y-6719496D01*
X10513594Y-12009885D02*
X10501585Y-12014633D01*
X10889364Y-12358047D02*
X10883281Y-12341206D01*
X11316160Y-12645984D02*
X11291475Y-12644155D01*
X20223555Y-11384874D02*
X20213551Y-11377017D01*
X20303473Y-11812411D02*
X20312618Y-11738207D01*
X18492299Y-11691878D02*
X18492606Y-11691804D01*
X13951690Y-4207260D02*
X13944477Y-4201129D01*
X17696790Y-11847545D02*
X17701902Y-11848277D01*
X12728165Y-4225089D02*
X12714928Y-4223490D01*
X18899809Y-13166943D02*
X18984853Y-13155832D01*
X14339342Y-4665880D02*
X14338867Y-4661050D01*
X20082300Y-11325789D02*
X20068877Y-11324766D01*
X11281331Y-6382876D02*
X11276683Y-6384910D01*
X19710678Y-8497027D02*
X19716640Y-8493812D01*
X18413451Y-11741534D02*
X18416419Y-11737647D01*
X18249791Y-12561969D02*
X18248913Y-12566884D01*
X18250941Y-12546772D02*
X18250811Y-12551907D01*
X19813628Y-8425876D02*
X19816705Y-8422985D01*
X12886956Y-4116819D02*
X12888201Y-4124892D01*
X14378240Y-4453905D02*
X14376202Y-4441891D01*
X14339243Y-4641532D02*
X14339915Y-4636645D01*
X12397196Y-12542922D02*
X12397413Y-12539110D01*
X14754352Y-4950050D02*
X14669778Y-4890445D01*
X11095525Y-13147512D02*
X11143339Y-13157624D01*
X19790604Y-11588940D02*
X19787603Y-11667670D01*
X10869156Y-12258515D02*
X10868811Y-12244915D01*
X10657873Y-6897069D02*
X10660748Y-6899244D01*
X19989211Y-11332758D02*
X19976660Y-11336327D01*
X10406039Y-6651762D02*
X10412284Y-6663291D01*
X15892681Y-6499699D02*
X15846678Y-6490152D01*
X20319657Y-11575341D02*
X20318632Y-11561919D01*
X17396680Y-7203370D02*
X17388700Y-7176954D01*
X12883113Y-4098090D02*
X12883118Y-4098103D01*
X16828709Y-6509738D02*
X16797739Y-6508081D01*
X13916370Y-4115493D02*
X13916879Y-4112761D01*
X13926911Y-4179491D02*
X13924675Y-4175447D01*
X13967712Y-4217740D02*
X13959460Y-4212806D01*
X14235676Y-4251332D02*
X14225778Y-4246529D01*
X19619240Y-10229922D02*
X19632366Y-10153201D01*
X10752366Y-12039060D02*
X10741626Y-12032166D01*
X12465769Y-4642398D02*
X12466256Y-4647269D01*
X14342106Y-4680114D02*
X14340963Y-4675420D01*
X11853794Y-5113775D02*
X11812478Y-5156326D01*
X15428772Y-6078151D02*
X15423907Y-6056356D01*
X18395555Y-11785519D02*
X18396361Y-11780831D01*
X12378870Y-11657013D02*
X12377713Y-11661745D01*
X12426614Y-4536997D02*
X12429013Y-4547612D01*
X18400106Y-11767050D02*
X18401792Y-11762580D01*
X13241205Y-3224844D02*
X13187394Y-3232755D01*
X10547664Y-6823325D02*
X10554471Y-6828488D01*
X12926757Y-11833064D02*
X12931261Y-11829260D01*
X19075181Y-12588837D02*
X19066368Y-12591386D01*
X19504833Y-12314993D02*
X19446743Y-12372559D01*
X12374699Y-11671071D02*
X12372840Y-11675646D01*
X12637184Y-4227676D02*
X12624695Y-4230558D01*
X19518736Y-10596938D02*
X19543441Y-10525945D01*
X14340822Y-4631770D02*
X14341965Y-4626918D01*
X10666322Y-6903799D02*
X10669002Y-6906198D01*
X13916879Y-4112761D02*
X13917451Y-4110217D01*
X10639516Y-6884446D02*
X10639660Y-6884533D01*
X19851463Y-8382597D02*
X19856346Y-8376688D01*
X19006124Y-12592540D02*
X18999886Y-12590388D01*
X11285878Y-6380609D02*
X11281331Y-6382876D01*
X14373687Y-4429619D02*
X14370948Y-4418431D01*
X14367744Y-4570934D02*
X14371284Y-4561320D01*
X12956182Y-11814806D02*
X12961543Y-11812841D01*
X15514657Y-6263331D02*
X15489738Y-6225334D01*
X14338596Y-4651315D02*
X14338804Y-4646425D01*
X10639751Y-6884593D02*
X10639760Y-6884602D01*
X17748875Y-11869802D02*
X17752914Y-11873344D01*
X20107039Y-12376854D02*
X20143042Y-12310472D01*
X10484782Y-6764664D02*
X10492830Y-6773416D01*
X10476855Y-6755664D02*
X10484782Y-6764664D01*
X12774612Y-3379413D02*
X12726409Y-3408171D01*
X18956821Y-12558411D02*
X18413806Y-11859130D01*
X19168851Y-7602546D02*
X19144380Y-7595530D01*
X10348302Y-12192447D02*
X10345345Y-12205242D01*
X19323202Y-10993022D02*
X19361355Y-10930862D01*
X19921018Y-7969516D02*
X19874740Y-7970378D01*
X17926902Y-7571366D02*
X17897335Y-7569486D01*
X14082798Y-4223869D02*
X14077811Y-4224672D01*
X10341304Y-12306289D02*
X10345281Y-12353372D01*
X12456572Y-4699276D02*
X12454370Y-4703622D01*
X10441005Y-12659059D02*
X10463534Y-12698666D01*
X10352107Y-6497196D02*
X10354986Y-6511365D01*
X19952355Y-11345230D02*
X19940634Y-11350532D01*
X19632366Y-10153201D02*
X19643136Y-10075513D01*
X12813433Y-4229969D02*
X12809042Y-4231168D01*
X14045454Y-4230767D02*
X14039058Y-4231724D01*
X18250426Y-12556975D02*
X18249791Y-12561969D01*
X11048517Y-13135300D02*
X11095525Y-13147512D01*
X15043203Y-5231555D02*
X14978182Y-5154835D01*
X15423907Y-6056356D02*
X15418802Y-6034654D01*
X18961327Y-12563817D02*
X18956821Y-12558411D01*
X18250811Y-12551907D02*
X18250426Y-12556975D01*
X10420549Y-12618329D02*
X10441005Y-12659059D01*
X19986520Y-7988148D02*
X19986520Y-7969221D01*
X14381101Y-4510341D02*
X14381523Y-4499516D01*
X18403695Y-11758185D02*
X18405813Y-11753874D01*
X19856346Y-8376688D02*
X19858766Y-8373706D01*
X20095531Y-11327473D02*
X20082300Y-11325789D01*
X17471054Y-7345688D02*
X17455697Y-7323996D01*
X13403693Y-3215002D02*
X13349433Y-3215968D01*
X14077811Y-4224672D02*
X14072840Y-4225569D01*
X19389558Y-7717115D02*
X19369713Y-7702289D01*
X10417498Y-12071429D02*
X10408736Y-12080629D01*
X13915440Y-4142264D02*
X13915183Y-4138580D01*
X10676499Y-6913999D02*
X10678785Y-6916832D01*
X20254917Y-12031589D02*
X20274565Y-11959246D01*
X17055876Y-6561790D02*
X17029816Y-6551583D01*
X13932014Y-4187217D02*
X13929361Y-4183415D01*
X16947345Y-6527245D02*
X16918544Y-6521252D01*
X10728132Y-7046065D02*
X10778380Y-7196796D01*
X12633132Y-3472639D02*
X12588217Y-3508350D01*
X19144380Y-7595530D02*
X19119543Y-7589393D01*
X13403695Y-3215037D02*
X13403693Y-3215002D01*
X12463217Y-4681040D02*
X12461884Y-4685709D01*
X14355543Y-4375878D02*
X14350638Y-4365837D01*
X19795991Y-11535673D02*
X19793660Y-11548691D01*
X10874307Y-12307678D02*
X10871460Y-12291090D01*
X14004070Y-4230799D02*
X13994625Y-4228590D01*
X12363642Y-11578647D02*
X12366322Y-11582743D01*
X12085991Y-4922124D02*
X12036137Y-4957607D01*
X18394892Y-11809278D02*
X18394571Y-11804512D01*
X11271941Y-6386701D02*
X11267114Y-6388242D01*
X10345345Y-12205242D02*
X10343015Y-12218263D01*
X12624695Y-4230558D02*
X12612394Y-4234032D01*
X19601406Y-7988409D02*
X19601330Y-7988415D01*
X10639762Y-6884608D02*
X10639762Y-6884613D01*
X12778775Y-4234278D02*
X12775338Y-4233713D01*
X10816508Y-12100230D02*
X10808645Y-12090225D01*
X12458073Y-12638724D02*
X12453652Y-12636725D01*
X13005406Y-11807933D02*
X13007909Y-11808029D01*
X10386136Y-12533712D02*
X10402236Y-12576528D01*
X10369559Y-6565345D02*
X10373942Y-6578284D01*
X12889713Y-4141505D02*
X12889768Y-4145467D01*
X14338867Y-4661050D02*
X14338618Y-4656193D01*
X10631507Y-11995157D02*
X10618083Y-11994134D01*
X14039058Y-4231724D02*
X14035898Y-4232247D01*
X19976661Y-8092919D02*
X19979245Y-8077594D01*
X18405813Y-11753874D02*
X18408146Y-11749656D01*
X10542854Y-12810198D02*
X10572971Y-12844767D01*
X14051836Y-4229795D02*
X14045454Y-4230767D01*
X12817779Y-4228613D02*
X12813433Y-4229969D01*
X13349433Y-3215968D02*
X13295244Y-3219249D01*
X18999886Y-12590388D02*
X18993786Y-12587820D01*
X19662384Y-9756272D02*
X19662384Y-8582621D01*
X17081162Y-6573032D02*
X17055876Y-6561790D01*
X12889174Y-4133252D02*
X12889508Y-4137417D01*
X19349327Y-7688165D02*
X19328417Y-7674760D01*
X10572971Y-12844767D02*
X10604810Y-12877940D01*
X11784614Y-11161266D02*
X11912500Y-11274354D01*
X12433110Y-4730625D02*
X12429259Y-4733883D01*
X12872409Y-4191292D02*
X12869649Y-4194674D01*
X14263972Y-4268089D02*
X14254785Y-4262122D01*
X13976373Y-4222033D02*
X13967712Y-4217740D01*
X19661174Y-9837236D02*
X19662384Y-9756272D01*
X12357629Y-11570819D02*
X12360744Y-11574670D01*
X19790926Y-8446469D02*
X19796049Y-8441851D01*
X11290316Y-6378118D02*
X11285878Y-6380609D01*
X10426688Y-12062657D02*
X10417498Y-12071429D01*
X10880453Y-7551090D02*
X10925427Y-7739709D01*
X17760490Y-11881169D02*
X17764004Y-11885448D01*
X19886327Y-8332911D02*
X19890222Y-8326388D01*
X11343961Y-6300114D02*
X11343020Y-6305162D01*
X19737209Y-7976178D02*
X19691878Y-7979514D01*
X19646643Y-7983605D02*
X19601482Y-7988401D01*
X12403180Y-12581084D02*
X12401611Y-12576447D01*
X14338804Y-4646425D02*
X14339243Y-4641532D01*
X19751667Y-8474294D02*
X19752534Y-8473757D01*
X19900754Y-8308365D02*
X19905777Y-8299013D01*
X10961792Y-7926015D02*
X10975676Y-8015966D01*
X19043006Y-7576426D02*
X19016878Y-7573978D01*
X19833732Y-8404666D02*
X19836328Y-8401483D01*
X11345057Y-6289891D02*
X11344643Y-6295020D01*
X19910665Y-8289554D02*
X19915416Y-8279994D01*
X12533253Y-4273894D02*
X12523187Y-4281664D01*
X12966996Y-11811189D02*
X12972526Y-11809853D01*
X14580035Y-4835267D02*
X14485010Y-4784577D01*
X15939935Y-6505543D02*
X15916162Y-6503094D01*
X10400418Y-12090239D02*
X10392561Y-12100244D01*
X19878329Y-8345749D02*
X19882363Y-8339366D01*
X12883152Y-4098164D02*
X12883157Y-4098175D01*
X20311651Y-11522883D02*
X20308077Y-11510336D01*
X14365293Y-4722281D02*
X14362038Y-4718580D01*
X20267331Y-11430740D02*
X20259464Y-11420745D01*
X10800320Y-12080615D02*
X10791551Y-12071415D01*
X10639824Y-6884690D02*
X10639869Y-6884729D01*
X11341828Y-6310156D02*
X11340391Y-6315087D01*
X13915932Y-4118396D02*
X13916370Y-4115493D01*
X19383669Y-12425743D02*
X19350292Y-12450563D01*
X18397389Y-11776185D02*
X18398638Y-11771588D01*
X12834562Y-4221673D02*
X12830471Y-4223630D01*
X12887849Y-4160402D02*
X12886636Y-4164610D01*
X11257230Y-6390534D02*
X11252189Y-6391268D01*
X20205521Y-12173415D02*
X20231883Y-12103027D01*
X12782182Y-4234907D02*
X12778775Y-4234278D01*
X20121347Y-11332759D02*
X20108552Y-11329802D01*
X10342962Y-6423049D02*
X10344058Y-6438315D01*
X12376323Y-11666434D02*
X12374699Y-11671071D01*
X10975676Y-8015966D02*
X10986123Y-8102536D01*
X10478466Y-12025797D02*
X10467389Y-12032180D01*
X19791973Y-11561919D02*
X19790949Y-11575341D01*
X12675576Y-4222702D02*
X12662645Y-4223736D01*
X11641014Y-12620637D02*
X11636742Y-12624313D01*
X12822072Y-4227103D02*
X12817779Y-4228613D01*
X11132373Y-12601362D02*
X11111905Y-12591517D01*
X10341331Y-12231493D02*
X10340308Y-12244916D01*
X19985698Y-8017338D02*
X19986314Y-8002646D01*
X19783106Y-8453133D02*
X19785740Y-8450961D01*
X13257564Y-11841222D02*
X13303532Y-11844420D01*
X13187394Y-3232755D02*
X13133892Y-3242981D01*
X12425209Y-4736965D02*
X12420963Y-4739859D01*
X16889147Y-6516331D02*
X16859191Y-6512491D01*
X14371284Y-4561320D02*
X14374291Y-4551521D01*
X17678473Y-7512005D02*
X17653903Y-7499820D01*
X17691647Y-11847077D02*
X17696790Y-11847545D01*
X17214615Y-6661776D02*
X17194725Y-6644488D01*
X17756789Y-11877134D02*
X17760490Y-11881169D01*
X12398267Y-12531605D02*
X12398900Y-12527919D01*
X12439974Y-4579239D02*
X12444932Y-4589797D01*
X10673369Y-12939886D02*
X10709949Y-12968550D01*
X12466321Y-4661884D02*
X12465884Y-4666727D01*
X16797739Y-6508081D02*
X16766316Y-6507527D01*
X18434383Y-11720295D02*
X18434383Y-11720243D01*
X14320358Y-4319679D02*
X14313233Y-4311322D01*
X17382084Y-7149824D02*
X17376871Y-7121997D01*
X19811437Y-11486041D02*
X19806692Y-11498050D01*
X17607046Y-7472343D02*
X17584835Y-7457092D01*
X11153457Y-12610366D02*
X11132373Y-12601362D01*
X11359873Y-10627141D02*
X11452384Y-10771977D01*
X19601330Y-7988415D02*
X19601169Y-7988426D01*
X11291475Y-12644155D02*
X11267228Y-12641163D01*
X12883184Y-4098225D02*
X12883188Y-4098232D01*
X11345197Y-6284735D02*
X11345057Y-6289891D01*
X10741626Y-12032166D02*
X10730543Y-12025784D01*
X12368412Y-11684579D02*
X12365841Y-11688918D01*
X12401588Y-12517154D02*
X12402738Y-12513672D01*
X10787358Y-13020989D02*
X10828047Y-13044656D01*
X12883131Y-4098132D02*
X12883133Y-4098134D01*
X18493574Y-11691591D02*
X18494192Y-11691470D01*
X12576821Y-4247881D02*
X12565475Y-4253600D01*
X11276683Y-6384910D02*
X11271941Y-6386701D01*
X12804614Y-4232207D02*
X12800157Y-4233084D01*
X12380952Y-11628218D02*
X12381179Y-11633020D01*
X13982630Y-3357118D02*
X13932803Y-3332641D01*
X12612394Y-4234032D02*
X12600301Y-4238085D01*
X20251137Y-11411144D02*
X20242365Y-11401955D01*
X15418802Y-6034654D02*
X15413447Y-6013042D01*
X10791551Y-12071415D02*
X10782354Y-12062643D01*
X14363667Y-4580368D02*
X14367744Y-4570934D01*
X11413529Y-5892819D02*
X11383904Y-6018584D01*
X12989432Y-11807750D02*
X12995124Y-11807691D01*
X12471282Y-4337993D02*
X12464236Y-4348886D01*
X12190821Y-4855497D02*
X12137553Y-4888084D01*
X10501585Y-12014633D02*
X10489870Y-12019943D01*
X18430378Y-11723459D02*
X18434383Y-11720295D01*
X18161351Y-12646052D02*
X18156283Y-12646437D01*
X12192028Y-11472633D02*
X12343016Y-11556864D01*
X11812478Y-5156326D02*
X11772870Y-5200261D01*
X14289929Y-4288170D02*
X14281556Y-4281122D01*
X19068839Y-7579823D02*
X19043006Y-7576426D01*
X19887019Y-11384874D02*
X19877412Y-11393192D01*
X14381443Y-4488467D02*
X14380866Y-4477187D01*
X15988283Y-6507527D02*
X15963982Y-6507027D01*
X14079579Y-3413004D02*
X14031582Y-3383906D01*
X19662384Y-8582621D02*
X19662637Y-8575420D01*
X10639793Y-6884662D02*
X10639824Y-6884690D01*
X19986314Y-8002646D02*
X19986520Y-7988148D01*
X14281556Y-4281122D02*
X14272900Y-4274426D01*
X20290769Y-11886139D02*
X20303473Y-11812411D01*
X19778664Y-11746138D02*
X19763883Y-11823932D01*
X19600989Y-7988436D02*
X19600889Y-7988443D01*
X17129268Y-6598587D02*
X17105638Y-6585300D01*
X18243098Y-12585616D02*
X18241099Y-12590036D01*
X12883199Y-4098262D02*
X12883203Y-4098269D01*
X15542386Y-6299185D02*
X15514657Y-6263331D01*
X12883173Y-4098204D02*
X12883179Y-4098216D01*
X12741426Y-4227378D02*
X12728165Y-4225089D01*
X18247799Y-12571712D02*
X18246454Y-12576447D01*
X12343016Y-11556864D02*
X12346990Y-11560118D01*
X12460330Y-4690310D02*
X12458559Y-4694836D01*
X10730543Y-12025784D02*
X10719132Y-12019930D01*
X10695397Y-12009875D02*
X10683106Y-12005706D01*
X19691878Y-7979514D02*
X19646643Y-7983605D01*
X10682977Y-6922906D02*
X10728132Y-7046065D01*
X11571112Y-5492373D02*
X11543468Y-5545716D01*
X12983758Y-11808131D02*
X12989432Y-11807750D01*
X12922446Y-11837168D02*
X12926757Y-11833064D01*
X12416950Y-12606480D02*
X12414167Y-12602567D01*
X10339963Y-12258515D02*
X10341304Y-12306289D01*
X10853070Y-12167594D02*
X10848324Y-12155577D01*
X11204158Y-10317743D02*
X11277022Y-10475569D01*
X19586081Y-12927886D02*
X19650482Y-12884157D01*
X11383904Y-6018584D02*
X11361126Y-6149249D01*
X12440211Y-4723612D02*
X12436761Y-4727198D01*
X12374848Y-11600126D02*
X12376426Y-11604677D01*
X10408736Y-12080629D02*
X10400418Y-12090239D01*
X18971206Y-12573436D02*
X18966130Y-12568826D01*
X19966667Y-8139168D02*
X19970367Y-8123728D01*
X19643136Y-10075513D02*
X19651537Y-9996916D01*
X15159535Y-5397322D02*
X15103616Y-5312404D01*
X18993786Y-12587820D02*
X18987844Y-12584837D01*
X11608067Y-12640550D02*
X11602901Y-12642271D01*
X12883191Y-4098241D02*
X12883192Y-4098244D01*
X19462514Y-10734895D02*
X19491756Y-10666608D01*
X11048756Y-9811539D02*
X11089699Y-9985247D01*
X17333853Y-6834758D02*
X17323159Y-6809835D01*
X11493313Y-5656305D02*
X11470800Y-5713532D01*
X13915048Y-4134963D02*
X13915026Y-4131427D01*
X18494729Y-11691378D02*
X18495230Y-11690578D01*
X18180823Y-12642080D02*
X18176087Y-12643424D01*
X19519157Y-12968564D02*
X19586081Y-12927886D01*
X13030095Y-11809789D02*
X13075280Y-11817862D01*
X19924501Y-8260597D02*
X19928832Y-8250773D01*
X12995129Y-11807668D02*
X12995129Y-11807719D01*
X11306830Y-6366092D02*
X11302902Y-6369390D01*
X19861154Y-8370680D02*
X19863498Y-8367591D01*
X19526739Y-7858858D02*
X19511852Y-7839056D01*
X18397233Y-11823479D02*
X18396222Y-11818770D01*
X18231115Y-12606480D02*
X18228152Y-12610250D01*
X20041679Y-11324766D02*
X20028255Y-11325788D01*
X14376772Y-4541531D02*
X14378730Y-4531341D01*
X19897021Y-11377016D02*
X19887019Y-11384874D01*
X18189991Y-12638724D02*
X18185460Y-12640511D01*
X12888201Y-4124892D02*
X12888731Y-4129061D01*
X12889508Y-4137417D02*
X12889713Y-4141505D01*
X14353881Y-4598727D02*
X14359047Y-4589630D01*
X18632504Y-11626615D02*
X18698121Y-11590926D01*
X11267114Y-6388242D02*
X11262207Y-6389522D01*
X12381177Y-11637834D02*
X12380946Y-11642648D01*
X18198714Y-12634521D02*
X18194412Y-12636725D01*
X12883192Y-4098244D02*
X12883192Y-4098247D01*
X11772870Y-5200261D02*
X11734971Y-5245570D01*
X10640016Y-6884846D02*
X10646020Y-6888827D01*
X12924536Y-3307043D02*
X12873754Y-3328850D01*
X10871460Y-12291090D02*
X10869736Y-12274686D01*
X19699572Y-8504645D02*
X19704984Y-8500644D01*
X19431024Y-10801739D02*
X19462514Y-10734895D01*
X13932803Y-3332641D02*
X13882180Y-3310475D01*
X11324122Y-6347091D02*
X11321002Y-6351196D01*
X17711988Y-11850527D02*
X17716941Y-11852042D01*
X10823894Y-12110612D02*
X10816508Y-12100230D01*
X19816745Y-11474326D02*
X19811437Y-11486041D01*
X19491756Y-10666608D02*
X19518736Y-10596938D01*
X12420959Y-4739881D02*
X12360866Y-4766555D01*
X19148789Y-11224270D02*
X19195635Y-11169186D01*
X12420963Y-4739859D02*
X12420959Y-4739881D01*
X19782857Y-7973650D02*
X19782832Y-7973651D01*
X12883556Y-4172743D02*
X12881706Y-4176662D01*
X17630081Y-7486593D02*
X17607046Y-7472343D01*
X10857237Y-12179887D02*
X10853070Y-12167594D01*
X14173315Y-4228798D02*
X14162309Y-4226574D01*
X18416419Y-11737647D02*
X18419598Y-11733888D01*
X19796049Y-8441851D02*
X19801167Y-8437191D01*
X18171259Y-12644539D02*
X18166345Y-12645417D01*
X14013627Y-4232260D02*
X14004070Y-4230799D01*
X12800157Y-4233084D02*
X12795677Y-4233795D01*
X12399151Y-12566884D02*
X12398273Y-12561969D01*
X13918042Y-4158148D02*
X13917008Y-4153559D01*
X10341738Y-6391869D02*
X10342962Y-6423049D01*
X10768402Y-6391866D02*
X10361644Y-6391866D01*
X12441386Y-4396312D02*
X12437108Y-4409072D01*
X15467786Y-6185350D02*
X15448957Y-6143535D01*
X10709949Y-12968550D02*
X10747969Y-12995602D01*
X19819750Y-8420034D02*
X19822756Y-8417005D01*
X12436761Y-4727198D02*
X12433110Y-4730625D01*
X12453652Y-12636725D02*
X12449350Y-12634521D01*
X12404966Y-12585616D02*
X12403180Y-12581084D01*
X10351870Y-12179895D02*
X10348302Y-12192447D01*
X12850018Y-4212439D02*
X12846305Y-4214952D01*
X19279920Y-12496401D02*
X19242948Y-12517316D01*
X14346841Y-4693793D02*
X14345046Y-4689309D01*
X10680947Y-6919798D02*
X10682977Y-6922906D01*
X14669778Y-4890445D02*
X14580035Y-4835267D01*
X14348849Y-4698190D02*
X14346841Y-4693793D01*
X10577462Y-11995161D02*
X10564234Y-11996848D01*
X20028255Y-11325788D02*
X20015025Y-11327473D01*
X10463534Y-12698666D02*
X10488065Y-12737094D01*
X12350751Y-11563534D02*
X12354298Y-11567104D01*
X12679223Y-3439246D02*
X12633132Y-3472639D01*
X19369713Y-7702289D02*
X19349327Y-7688165D01*
X11191889Y-13165584D02*
X11241106Y-13171336D01*
X17376871Y-7121997D02*
X17373099Y-7093497D01*
X14339641Y-4346536D02*
X14333574Y-4337295D01*
X13944477Y-4201129D02*
X13941102Y-4197852D01*
X14343345Y-4622095D02*
X14344966Y-4617311D01*
X19932619Y-12624736D02*
X19980670Y-12565698D01*
X12360866Y-4766555D02*
X12302478Y-4794723D01*
X10663567Y-6901484D02*
X10666322Y-6903799D01*
X20143042Y-12310472D02*
X20175888Y-12242611D01*
X11581596Y-12646279D02*
X11576174Y-12646554D01*
X19662637Y-8575420D02*
X19663384Y-8568348D01*
X17523539Y-7405531D02*
X17505014Y-7386476D01*
X19119543Y-7589393D02*
X19094357Y-7584151D01*
X12883142Y-4098144D02*
X12883144Y-4098149D01*
X19777044Y-8457799D02*
X19780435Y-8455242D01*
X12455661Y-4609279D02*
X12457835Y-4613842D01*
X17653903Y-7499820D02*
X17630081Y-7486593D01*
X14372407Y-4729237D02*
X14368750Y-4725836D01*
X10973417Y-12488017D02*
X10959676Y-12472698D01*
X20181342Y-11356379D02*
X20169930Y-11350532D01*
X12940794Y-11822560D02*
X12945793Y-11819667D01*
X19900754Y-8308417D02*
X19900754Y-8308365D01*
X11019692Y-12531286D02*
X11003453Y-12517361D01*
X12397413Y-12539110D02*
X12397771Y-12535336D01*
X12496916Y-12646567D02*
X12491781Y-12646437D01*
X19788345Y-8448736D02*
X19790926Y-8446469D01*
X11072918Y-12569487D02*
X11054450Y-12557395D01*
X12379793Y-11652247D02*
X12378870Y-11657013D01*
X12412980Y-12494260D02*
X12914464Y-11846268D01*
X12726409Y-3408171D02*
X12679223Y-3439246D01*
X10639733Y-6884580D02*
X10639751Y-6884593D01*
X14031582Y-3383906D02*
X13982630Y-3357118D01*
X19740631Y-8481829D02*
X19741498Y-8481295D01*
X19204801Y-12536827D02*
X19165491Y-12554882D01*
X18408232Y-11850674D02*
X18405806Y-11846311D01*
X19979245Y-8077594D02*
X19981446Y-8062351D01*
X12346990Y-11560118D02*
X12350751Y-11563534D01*
X10432295Y-6696427D02*
X10439359Y-6706982D01*
X19782810Y-7973651D02*
X19782789Y-7973651D01*
X17233480Y-6680045D02*
X17214615Y-6661776D01*
X19782720Y-7973649D02*
X19782691Y-7973649D01*
X18399956Y-11832780D02*
X18398478Y-11828152D01*
X17105638Y-6585300D02*
X17081162Y-6573032D01*
X12380498Y-11623435D02*
X12380952Y-11628218D01*
X19750808Y-8474850D02*
X19751667Y-8474294D01*
X15340507Y-5776500D02*
X15301444Y-5675900D01*
X12838569Y-4219572D02*
X12834562Y-4221673D01*
X19849024Y-8385562D02*
X19851463Y-8382597D01*
X18225015Y-12613871D02*
X18221711Y-12617337D01*
X12464236Y-4348886D02*
X12457704Y-4360176D01*
X17744683Y-11866508D02*
X17748875Y-11869802D01*
X17956833Y-7571998D02*
X17926902Y-7571366D01*
X19361355Y-10930862D02*
X19397300Y-10867081D01*
X20320003Y-11588940D02*
X20319657Y-11575341D01*
X13303532Y-11844420D02*
X13349661Y-11846399D01*
X11449999Y-5772033D02*
X11413529Y-5892819D01*
X19973700Y-8108304D02*
X19976661Y-8092919D01*
X19741498Y-8481295D02*
X19742357Y-8480742D01*
X12441122Y-12629522D02*
X12437209Y-12626740D01*
X19663384Y-8568348D02*
X19664608Y-8561424D01*
X19685438Y-12049145D02*
X19648240Y-12120121D01*
X19851120Y-11420744D02*
X19843256Y-11430739D01*
X14908442Y-5082305D02*
X14833869Y-5014023D01*
X10994995Y-9266341D02*
X11001077Y-9451605D01*
X19083432Y-12586417D02*
X19075181Y-12588837D01*
X12400563Y-12520690D02*
X12401588Y-12517154D01*
X10843017Y-12143854D02*
X10837165Y-12132441D01*
X11664299Y-5340269D02*
X11631527Y-5389639D01*
X19798952Y-11522883D02*
X19795991Y-11535673D01*
X10863769Y-12205236D02*
X10860809Y-12192440D01*
X12360744Y-11574670D02*
X12363642Y-11578647D01*
X13916345Y-4149768D02*
X13915825Y-4145998D01*
X18492926Y-11691730D02*
X18493574Y-11691591D01*
X14833869Y-5014023D02*
X14754352Y-4950050D01*
X19427555Y-7748800D02*
X19408844Y-7732624D01*
X12450566Y-4600405D02*
X12453238Y-4604797D01*
X13915571Y-4121456D02*
X13915932Y-4118396D01*
X19408844Y-7732624D02*
X19389558Y-7717115D01*
X11241106Y-13171336D02*
X11290919Y-13174827D01*
X10373942Y-6578284D02*
X10378602Y-6590999D01*
X12433444Y-4422168D02*
X12430457Y-4434753D01*
X19058666Y-12593634D02*
X19051715Y-12595698D01*
X18462092Y-11703252D02*
X18472237Y-11699558D01*
X10944900Y-7833618D02*
X10961792Y-7926015D01*
X19666295Y-8554668D02*
X19668427Y-8548099D01*
X14341965Y-4626918D02*
X14343345Y-4622095D01*
X10436289Y-12054329D02*
X10426688Y-12062657D01*
X18247502Y-12520690D02*
X18248399Y-12524279D01*
X11267228Y-12641163D02*
X11243445Y-12637054D01*
X14358986Y-4714743D02*
X14356140Y-4710777D01*
X18233897Y-12602567D02*
X18231115Y-12606480D01*
X11089699Y-9985247D02*
X11141608Y-10154142D01*
X10994995Y-8261799D02*
X10994995Y-9266341D01*
X10446283Y-12046463D02*
X10436289Y-12054329D01*
X11636742Y-12624313D02*
X11632303Y-12627715D01*
X11665081Y-11039520D02*
X11784614Y-11161266D01*
X19012476Y-12594272D02*
X19006124Y-12592540D01*
X11896818Y-5072618D02*
X11853794Y-5113775D01*
X10347369Y-6468194D02*
X10349565Y-6482806D01*
X19051715Y-12595698D02*
X19045154Y-12596542D01*
X19780435Y-8455242D02*
X19783106Y-8453133D01*
X12398900Y-12527919D02*
X12399666Y-12524279D01*
X17752914Y-11873344D02*
X17756789Y-11877134D01*
X14058059Y-4228647D02*
X14054976Y-4229253D01*
X18698121Y-11590926D02*
X18761707Y-11552845D01*
X10604810Y-12877940D02*
X10638299Y-12909665D01*
X13882180Y-3310475D02*
X13830838Y-3290621D01*
X11338717Y-6319946D02*
X11336814Y-6324725D01*
X12402738Y-12513672D02*
X12404012Y-12510249D01*
X15489738Y-6225334D02*
X15467786Y-6185350D01*
X10371922Y-12132452D02*
X10366076Y-12143865D01*
X12406965Y-12590036D02*
X12404966Y-12585616D01*
X12459763Y-4618476D02*
X12461446Y-4623173D01*
X11912500Y-11274354D02*
X12048414Y-11378303D01*
X19350292Y-12450563D02*
X19315705Y-12474133D01*
X13007909Y-11808029D02*
X13009857Y-11808164D01*
X19657554Y-9917471D02*
X19661174Y-9837236D01*
X18452020Y-11707041D02*
X18462092Y-11703252D01*
X17455697Y-7323996D02*
X17441473Y-7301466D01*
X18218246Y-12620641D02*
X18214625Y-12623777D01*
X20299160Y-11486041D02*
X20293851Y-11474326D01*
X19984677Y-8032201D02*
X19985698Y-8017338D01*
X12543670Y-4266618D02*
X12533253Y-4273894D01*
X13985369Y-4225658D02*
X13976373Y-4222033D01*
X11649010Y-12612467D02*
X11645108Y-12616687D01*
X10992706Y-8184791D02*
X10994995Y-8261799D01*
X10830785Y-12121355D02*
X10823894Y-12110612D01*
X10671598Y-6908691D02*
X10674100Y-6911288D01*
X12370744Y-11680152D02*
X12368412Y-11684579D01*
X13295244Y-3219249D02*
X13241205Y-3224844D01*
X10959676Y-12472698D02*
X10946814Y-12457015D01*
X20303908Y-11498050D02*
X20299160Y-11486041D01*
X13080776Y-3255522D02*
X13028125Y-3270380D01*
X12866730Y-4197940D02*
X12863660Y-4201088D01*
X17428421Y-7278117D02*
X17416579Y-7253972D01*
X18401669Y-11837355D02*
X18399956Y-11832780D01*
X14351070Y-4702492D02*
X14348849Y-4698190D01*
X10514529Y-12774289D02*
X10542854Y-12810198D01*
X10520753Y-6800870D02*
X10527428Y-6806770D01*
X19685200Y-8518751D02*
X19689665Y-8513718D01*
X12883157Y-4098175D02*
X12883164Y-4098190D01*
X12423614Y-4515503D02*
X12424820Y-4526303D01*
X10639932Y-6884781D02*
X10640016Y-6884846D01*
X18984853Y-13155832D02*
X19067833Y-13140524D01*
X11294637Y-6375412D02*
X11290316Y-6378118D01*
X19739754Y-8482341D02*
X19740631Y-8481829D01*
X12961543Y-11812841D02*
X12966996Y-11811189D01*
X10412284Y-6663291D02*
X10418748Y-6674579D01*
X14485010Y-4784577D02*
X14384591Y-4738434D01*
X10669002Y-6906198D02*
X10671598Y-6908691D01*
X18228152Y-12610250D02*
X18225015Y-12613871D01*
X11327059Y-6342851D02*
X11324122Y-6347091D01*
X12457835Y-4613842D02*
X12459763Y-4618476D01*
X12883133Y-4098134D02*
X12883135Y-4098136D01*
X12359983Y-11697297D02*
X11708923Y-12535671D01*
X11602901Y-12642271D02*
X11597658Y-12643706D01*
X12449350Y-12634521D02*
X12445171Y-12632118D01*
X12432029Y-4558173D02*
X12435678Y-4568706D01*
X18238895Y-12594339D02*
X18236492Y-12598518D01*
X14339915Y-4636645D02*
X14340822Y-4631770D01*
X17706972Y-11849271D02*
X17711988Y-11850527D01*
X19953419Y-8185362D02*
X19958188Y-8170007D01*
X12889768Y-4145467D02*
X12889654Y-4149254D01*
X18250294Y-12535336D02*
X18250652Y-12539110D01*
X19881699Y-12681580D02*
X19932619Y-12624736D01*
X10461402Y-6736924D02*
X10469059Y-6746417D01*
X12883188Y-4098232D02*
X12883190Y-4098238D01*
X12409169Y-12594339D02*
X12406965Y-12590036D01*
X11277022Y-10475569D02*
X11359873Y-10627141D01*
X11452384Y-10771977D02*
X11554229Y-10909597D01*
X17897335Y-7569486D02*
X17868168Y-7566380D01*
X12379818Y-11618680D02*
X12380498Y-11623435D01*
X12935945Y-11825758D02*
X12940794Y-11822560D01*
X12495292Y-4307821D02*
X12486830Y-4317448D01*
X12701738Y-4222567D02*
X12688614Y-4222309D01*
X14194849Y-4234596D02*
X14184166Y-4231475D01*
X11175131Y-12618484D02*
X11153457Y-12610366D01*
X10996745Y-6392241D02*
X10768402Y-6391866D01*
X18236492Y-12598518D02*
X18233897Y-12602567D01*
X19307001Y-7662091D02*
X19285096Y-7650178D01*
X12429819Y-12620641D02*
X12426353Y-12617337D01*
X10385181Y-12110625D02*
X10378296Y-12121367D01*
X14162309Y-4226574D02*
X14151158Y-4224812D01*
X18185460Y-12640511D02*
X18180823Y-12642080D01*
X19648240Y-12120121D02*
X19605677Y-12188362D01*
X12883123Y-4098114D02*
X12883126Y-4098122D01*
X20281614Y-11451845D02*
X20274720Y-11441112D01*
X14346828Y-4612574D02*
X14348934Y-4607892D01*
X10356033Y-12167603D02*
X10351870Y-12179895D01*
X17756285Y-7542097D02*
X17729702Y-7533163D01*
X17297982Y-6762779D02*
X17283572Y-6740662D01*
X10830295Y-7367628D02*
X10880453Y-7551090D01*
X19650482Y-12884157D02*
X19712302Y-12837519D01*
X13924675Y-4175447D02*
X13922661Y-4171288D01*
X19897813Y-8313158D02*
X19900754Y-8308417D01*
X10488065Y-12737094D02*
X10514529Y-12774289D01*
X10554471Y-6828488D02*
X10565050Y-6836708D01*
X20133899Y-11336327D02*
X20121347Y-11332759D01*
X18495230Y-11690578D02*
X18564869Y-11659853D01*
X14092807Y-4222614D02*
X14087798Y-4223177D01*
X19045154Y-12596542D02*
X19038572Y-12596949D01*
X13919335Y-4162635D02*
X13918042Y-4158148D01*
X12826306Y-4225441D02*
X12822072Y-4227103D01*
X10618083Y-11994134D02*
X10604482Y-11993790D01*
X10837165Y-12132441D02*
X10830785Y-12121355D01*
X13021367Y-11809150D02*
X13030095Y-11809789D01*
X14205353Y-4238151D02*
X14194849Y-4234596D01*
X12422983Y-4504572D02*
X12423614Y-4515503D01*
X18987844Y-12584837D02*
X18982086Y-12581444D01*
X13934861Y-4190892D02*
X13932014Y-4187217D01*
X19557842Y-12253457D02*
X19504833Y-12314993D01*
X12429259Y-4733883D02*
X12425209Y-4736965D01*
X19801167Y-8437191D02*
X19807413Y-8431547D01*
X19446743Y-12372559D02*
X19383669Y-12425743D01*
X19981446Y-8062351D02*
X19983258Y-8047212D01*
X17405986Y-7229049D02*
X17396680Y-7203370D01*
X20259464Y-11420745D02*
X20251137Y-11411144D01*
X12365841Y-11688918D02*
X12363032Y-11693160D01*
X14978182Y-5154835D02*
X14908442Y-5082305D01*
X11036700Y-12544646D02*
X11019692Y-12531286D01*
X13512113Y-3220054D02*
X13457948Y-3216389D01*
X10388715Y-6615749D02*
X10394245Y-6627989D01*
X18194412Y-12636725D02*
X18189991Y-12638724D01*
X12401611Y-12576447D02*
X12400266Y-12571712D01*
X18419598Y-11733888D02*
X18422985Y-11730264D01*
X10782354Y-12062643D02*
X10772746Y-12054315D01*
X10639763Y-6884619D02*
X10639766Y-6884628D01*
X10492830Y-6773416D02*
X10500990Y-6781918D01*
X10762745Y-12046449D02*
X10752366Y-12039060D01*
X10878255Y-12324400D02*
X10874307Y-12307678D01*
X13830838Y-3290621D02*
X13778856Y-3273078D01*
X15433407Y-6100046D02*
X15428772Y-6078151D01*
X12554418Y-4259850D02*
X12543670Y-4266618D01*
X19067833Y-13140524D02*
X19148692Y-13121163D01*
X20067938Y-12441614D02*
X20107039Y-12376854D01*
X12454370Y-4703622D02*
X12451956Y-4707864D01*
X12400266Y-12571712D02*
X12399151Y-12566884D01*
X14378730Y-4531341D02*
X14380172Y-4520947D01*
X11019106Y-9633498D02*
X11048756Y-9811539D01*
X11632303Y-12627715D02*
X11627712Y-12630841D01*
X14035898Y-4232247D02*
X14032789Y-4232827D01*
X19328417Y-7674760D02*
X19307001Y-7662091D01*
X19543441Y-10525945D02*
X19565857Y-10453687D01*
X14350638Y-4365837D02*
X14345333Y-4356053D01*
X19905777Y-8299013D02*
X19910665Y-8289554D01*
X18221711Y-12617337D02*
X18218246Y-12620641D01*
X10683106Y-12005706D02*
X10670554Y-12002134D01*
X19782789Y-7973651D02*
X19782768Y-7973651D01*
X19970367Y-8123728D02*
X19973700Y-8108304D01*
X18394612Y-11794985D02*
X18394972Y-11790240D01*
X19782745Y-7973650D02*
X19782720Y-7973649D01*
X20274720Y-11441112D02*
X20267331Y-11430740D01*
X12451704Y-4371852D02*
X12446258Y-4383902D01*
X12451956Y-4707864D02*
X12449331Y-4711993D01*
X12976019Y-3287553D02*
X12924536Y-3307043D01*
X19689665Y-8513718D02*
X19694461Y-8509010D01*
X10365462Y-6552182D02*
X10369559Y-6565345D01*
X12995129Y-11807719D02*
X13005406Y-11807933D01*
X19816705Y-8422985D02*
X19819750Y-8420034D01*
X18246477Y-12517154D02*
X18247502Y-12520690D01*
X19967592Y-7969221D02*
X19921018Y-7969516D01*
X17357934Y-6915016D02*
X17351277Y-6887356D01*
X19016878Y-7573978D02*
X18990470Y-7572496D01*
X19822756Y-8417005D02*
X19825716Y-8413880D01*
X10678785Y-6916832D02*
X10680947Y-6919798D01*
X18395442Y-11814033D02*
X18394892Y-11809278D01*
X12649841Y-4225398D02*
X12637184Y-4227676D01*
X12914464Y-11846268D02*
X12918343Y-11841570D01*
X10934855Y-12441016D02*
X10923820Y-12424753D01*
X18434383Y-11720243D02*
X18452020Y-11707041D01*
X19843256Y-11430739D02*
X19835869Y-11441112D01*
X18410899Y-11854950D02*
X18408232Y-11850674D01*
X17721817Y-11853815D02*
X17726607Y-11855846D01*
X11618119Y-12636258D02*
X11613145Y-12638545D01*
X20233165Y-11393192D02*
X20223555Y-11384874D01*
X17267994Y-6719496D02*
X17251285Y-6699288D01*
X16918544Y-6521252D02*
X16889147Y-6516331D01*
X10514120Y-6794767D02*
X10520753Y-6800870D01*
X14217056Y-3514161D02*
X14172395Y-3478133D01*
X10913731Y-12408275D02*
X10904611Y-12391631D01*
X19787603Y-11667670D02*
X19778664Y-11746138D01*
X13929361Y-4183415D02*
X13926911Y-4179491D01*
X12877421Y-4184192D02*
X12875002Y-4187797D01*
X19835869Y-11441112D02*
X19828978Y-11451845D01*
X19793660Y-11548691D02*
X19791973Y-11561919D01*
X17487506Y-7366522D02*
X17471054Y-7345688D01*
X11554229Y-10909597D02*
X11665081Y-11039520D01*
X14097822Y-4222197D02*
X14092807Y-4222614D01*
X19192938Y-7610422D02*
X19168851Y-7602546D01*
X13918079Y-4107875D02*
X13918755Y-4105750D01*
X19802524Y-11510336D02*
X19798952Y-11522883D01*
X12381179Y-11633020D02*
X12381177Y-11637834D01*
X12465046Y-4637545D02*
X12465769Y-4642398D01*
X17029816Y-6551583D02*
X17003017Y-6542418D01*
X10586289Y-6852255D02*
X10596935Y-6859518D01*
X12945793Y-11819667D02*
X12950927Y-11817082D01*
X14172395Y-3478133D02*
X14126543Y-3444413D01*
X12433440Y-12623777D02*
X12429819Y-12620641D01*
X14379797Y-4465668D02*
X14378240Y-4453905D01*
X19195635Y-11169186D02*
X19240329Y-11112244D01*
X12889350Y-4152816D02*
X12888836Y-4156103D01*
X11341258Y-12646604D02*
X11316160Y-12645984D01*
X20274565Y-11959246D02*
X20290769Y-11886139D01*
X14376262Y-4732477D02*
X14372407Y-4729237D01*
X10618240Y-6872870D02*
X10628885Y-6878896D01*
X18472237Y-11699558D02*
X18482343Y-11695815D01*
X19449766Y-13006046D02*
X19519157Y-12968564D01*
X12846305Y-4214952D02*
X12842486Y-4217331D01*
X19771483Y-12788114D02*
X19827967Y-12736087D01*
X10366076Y-12143865D02*
X10360774Y-12155587D01*
X20312618Y-11738207D02*
X20318147Y-11663669D01*
X12464086Y-4632716D02*
X12465046Y-4637545D01*
X17363174Y-6943574D02*
X17357934Y-6915016D01*
X20231883Y-12103027D02*
X20254917Y-12031589D01*
X12302478Y-4794723D02*
X12245796Y-4824373D01*
X17343238Y-6860600D02*
X17333853Y-6834758D01*
X14359047Y-4589630D02*
X14363667Y-4580368D01*
X10644738Y-11996842D02*
X10631507Y-11995157D01*
X10340308Y-12244916D02*
X10339963Y-12258515D01*
X19463177Y-7783080D02*
X19445671Y-7765625D01*
X12758078Y-4231032D02*
X12754693Y-4230367D01*
X10913041Y-13086615D02*
X10957205Y-13104798D01*
X19964369Y-11340489D02*
X19952355Y-11345230D01*
X14184166Y-4231475D02*
X14173315Y-4228798D01*
X20314612Y-11535673D02*
X20311651Y-11522883D01*
X14215667Y-4242132D02*
X14205353Y-4238151D01*
X12425918Y-4459006D02*
X12424395Y-4470726D01*
X12883192Y-4098247D02*
X12883193Y-4098251D01*
X18976532Y-12577643D02*
X18971206Y-12573436D01*
X11002388Y-13121044D02*
X11048517Y-13135300D01*
X20318147Y-11663669D02*
X20320003Y-11588940D01*
X13726314Y-3257848D02*
X13673290Y-3244930D01*
X10394245Y-6627989D02*
X10400023Y-6639994D01*
X10828047Y-13044656D02*
X10869965Y-13066550D01*
X19785740Y-8450961D02*
X19788345Y-8448736D01*
X11708923Y-12535671D02*
X11652708Y-12607976D01*
X16766316Y-6507527D02*
X15988283Y-6507527D01*
X17388700Y-7176954D02*
X17382084Y-7149824D01*
X12879658Y-4180479D02*
X12877421Y-4184192D01*
X12883135Y-4098136D02*
X12883136Y-4098138D01*
X19285096Y-7650178D02*
X19262720Y-7639037D01*
X12883126Y-4098122D02*
X12883129Y-4098128D01*
X12427944Y-4447024D02*
X12425918Y-4459006D01*
X14340041Y-4670673D02*
X14339342Y-4665880D01*
X16859191Y-6512491D02*
X16828709Y-6509738D01*
X17868168Y-7566380D02*
X17839441Y-7562068D01*
X19846603Y-8388558D02*
X19849024Y-8385562D01*
X10361661Y-6538797D02*
X10365462Y-6552182D01*
X10590883Y-11994136D02*
X10577462Y-11995161D01*
X14338618Y-4656193D02*
X14338596Y-4651315D01*
X19865787Y-8364422D02*
X19870043Y-8358281D01*
X10670554Y-12002134D02*
X10657759Y-11999173D01*
X19877412Y-11393192D02*
X19868214Y-11401954D01*
X15375637Y-5880873D02*
X15340507Y-5776500D01*
X11197371Y-12625668D02*
X11175131Y-12618484D01*
X12688614Y-4222309D02*
X12675576Y-4222702D01*
X10868811Y-12244915D02*
X10867787Y-12231490D01*
X19242948Y-12517316D02*
X19204801Y-12536827D01*
X20203169Y-11369638D02*
X20192427Y-11362753D01*
X19579127Y-7943319D02*
X19567139Y-7921451D01*
X12466509Y-4652146D02*
X12466530Y-4657021D01*
X12995124Y-11807691D02*
X12995129Y-11807668D01*
X12446258Y-4383902D02*
X12441386Y-4396312D01*
X12889654Y-4149254D02*
X12889350Y-4152816D01*
X15448957Y-6143535D02*
X15433407Y-6100046D01*
X11310611Y-6362615D02*
X11306830Y-6366092D01*
X10525880Y-12005716D02*
X10513594Y-12009885D01*
X12662645Y-4223736D02*
X12649841Y-4225398D01*
X12588436Y-4242705D02*
X12576821Y-4247881D01*
X13778856Y-3273078D02*
X13726314Y-3257848D01*
X19822597Y-11462922D02*
X19816745Y-11474326D01*
X13917008Y-4153559D02*
X13916345Y-4149768D01*
X12863660Y-4201088D02*
X12860446Y-4204114D01*
X20316945Y-11548691D02*
X20314612Y-11535673D01*
X10848324Y-12155577D02*
X10843017Y-12143854D01*
X14367753Y-4407453D02*
X14364113Y-4396695D01*
X13917451Y-4110217D02*
X13918079Y-4107875D01*
X11329804Y-6338485D02*
X11327059Y-6342851D01*
X12795677Y-4233795D02*
X12791183Y-4234337D01*
X19907400Y-11369637D02*
X19897021Y-11377016D01*
X13395956Y-11847077D02*
X17691647Y-11847077D01*
X11627712Y-12630841D02*
X11622979Y-12633689D01*
X12466256Y-4647269D02*
X12466509Y-4652146D01*
X18995464Y-11377781D02*
X19048689Y-11328627D01*
X18245327Y-12513672D02*
X18246477Y-12517154D01*
X13922661Y-4171288D02*
X13920878Y-4167016D01*
X15211070Y-5486251D02*
X15159535Y-5397322D01*
X10639762Y-6884613D02*
X10639763Y-6884619D01*
X10639766Y-6884628D02*
X10639775Y-6884642D01*
X12137553Y-4888084D02*
X12085991Y-4922124D01*
X10349565Y-6482806D02*
X10352107Y-6497196D01*
X19565857Y-10453687D02*
X19585972Y-10380225D01*
X12437108Y-4409072D02*
X12433444Y-4422168D01*
X11592351Y-12644853D02*
X11586993Y-12645711D01*
X13166109Y-11831492D02*
X13211758Y-11836885D01*
X12883194Y-4098254D02*
X12883196Y-4098257D01*
X15759046Y-6460573D02*
X15717730Y-6440853D01*
X19038572Y-12596949D02*
X19031990Y-12596923D01*
X19745743Y-8478401D02*
X19749108Y-8476005D01*
X17505014Y-7386476D02*
X17487506Y-7366522D01*
X18250868Y-12542922D02*
X18250941Y-12546772D01*
X12883216Y-4098290D02*
X12884301Y-4103122D01*
X10946814Y-12457015D02*
X10934855Y-12441016D01*
X12366322Y-11582743D02*
X12368784Y-11586947D01*
X14343467Y-4684747D02*
X14342106Y-4680114D01*
X11698781Y-5292242D02*
X11664299Y-5340269D01*
X17729702Y-7533163D02*
X17703752Y-7523126D01*
X19874740Y-7970378D02*
X19828704Y-7971768D01*
X19806692Y-11498050D02*
X19802524Y-11510336D01*
X18492606Y-11691804D02*
X18492926Y-11691730D01*
X10651998Y-6892876D02*
X10657873Y-6897069D01*
X10860809Y-12192440D02*
X10857237Y-12179887D01*
X19540927Y-7879204D02*
X19526739Y-7858858D01*
D11*
D12*
X10454880Y-12314160D02*
X10484880Y-12344160D01*
X10484880Y-12314160D02*
X10454880Y-12344160D01*
X10609820Y-12710400D02*
X10639820Y-12740400D01*
X10639820Y-12710400D02*
X10609820Y-12740400D01*
X10848580Y-12918680D02*
X10878580Y-12948680D01*
X10878580Y-12918680D02*
X10848580Y-12948680D01*
X10881600Y-6995400D02*
X10911600Y-7025400D01*
X10911600Y-6995400D02*
X10881600Y-7025400D01*
X11097500Y-9002000D02*
X11127500Y-9032000D01*
X11127500Y-9002000D02*
X11097500Y-9032000D01*
X11173700Y-9548100D02*
X11203700Y-9578100D01*
X11203700Y-9548100D02*
X11173700Y-9578100D01*
X11214340Y-13050760D02*
X11244340Y-13080760D01*
X11244340Y-13050760D02*
X11214340Y-13080760D01*
X11319000Y-9770000D02*
X11349000Y-9800000D01*
X11349000Y-9770000D02*
X11319000Y-9800000D01*
X11347000Y-9672000D02*
X11377000Y-9702000D01*
X11377000Y-9672000D02*
X11347000Y-9702000D01*
X11376900Y-7414500D02*
X11406900Y-7444500D01*
X11406900Y-7414500D02*
X11376900Y-7444500D01*
X11389600Y-8125700D02*
X11419600Y-8155700D01*
X11419600Y-8125700D02*
X11389600Y-8155700D01*
X11440400Y-8989300D02*
X11470400Y-9019300D01*
X11470400Y-8989300D02*
X11440400Y-9019300D01*
X11440400Y-10424400D02*
X11470400Y-10454400D01*
X11470400Y-10424400D02*
X11440400Y-10454400D01*
X11580100Y-7820900D02*
X11610100Y-7850900D01*
X11610100Y-7820900D02*
X11580100Y-7850900D01*
X11605500Y-8367000D02*
X11635500Y-8397000D01*
X11635500Y-8367000D02*
X11605500Y-8397000D01*
X11630900Y-7097000D02*
X11660900Y-7127000D01*
X11660900Y-7097000D02*
X11630900Y-7127000D01*
X11630900Y-7655800D02*
X11660900Y-7685800D01*
X11660900Y-7655800D02*
X11630900Y-7685800D01*
X11656300Y-5966700D02*
X11686300Y-5996700D01*
X11686300Y-5966700D02*
X11656300Y-5996700D01*
X11689320Y-13050760D02*
X11719320Y-13080760D01*
X11719320Y-13050760D02*
X11689320Y-13080760D01*
X11745200Y-6119100D02*
X11775200Y-6149100D01*
X11775200Y-6119100D02*
X11745200Y-6149100D01*
X11801080Y-10960340D02*
X11831080Y-10990340D01*
X11831080Y-10960340D02*
X11801080Y-10990340D01*
X11840450Y-7700250D02*
X11870450Y-7730250D01*
X11870450Y-7700250D02*
X11840450Y-7730250D01*
X11897600Y-7122400D02*
X11927600Y-7152400D01*
X11927600Y-7122400D02*
X11897600Y-7152400D01*
X11897600Y-7236700D02*
X11927600Y-7266700D01*
X11927600Y-7236700D02*
X11897600Y-7266700D01*
X11910300Y-5547600D02*
X11940300Y-5577600D01*
X11940300Y-5547600D02*
X11910300Y-5577600D01*
X11910300Y-10792700D02*
X11940300Y-10822700D01*
X11940300Y-10792700D02*
X11910300Y-10822700D01*
X11935700Y-5319000D02*
X11965700Y-5349000D01*
X11965700Y-5319000D02*
X11935700Y-5349000D01*
X11973800Y-8113000D02*
X12003800Y-8143000D01*
X12003800Y-8113000D02*
X11973800Y-8143000D01*
X11999200Y-6106400D02*
X12029200Y-6136400D01*
X12029200Y-6106400D02*
X11999200Y-6136400D01*
X12011900Y-10995900D02*
X12041900Y-11025900D01*
X12041900Y-10995900D02*
X12011900Y-11025900D01*
X12037300Y-6398500D02*
X12067300Y-6428500D01*
X12067300Y-6398500D02*
X12037300Y-6428500D01*
X12047460Y-11234660D02*
X12077460Y-11264660D01*
X12077460Y-11234660D02*
X12047460Y-11264660D01*
X12075400Y-8367000D02*
X12105400Y-8397000D01*
X12105400Y-8367000D02*
X12075400Y-8397000D01*
X12169380Y-13050760D02*
X12199380Y-13080760D01*
X12199380Y-13050760D02*
X12169380Y-13080760D01*
X12177000Y-6296900D02*
X12207000Y-6326900D01*
X12207000Y-6296900D02*
X12177000Y-6326900D01*
X12184620Y-6484860D02*
X12214620Y-6514860D01*
X12214620Y-6484860D02*
X12184620Y-6514860D01*
X12189700Y-5306300D02*
X12219700Y-5336300D01*
X12219700Y-5306300D02*
X12189700Y-5336300D01*
X12189700Y-7135100D02*
X12219700Y-7165100D01*
X12219700Y-7135100D02*
X12189700Y-7165100D01*
X12227800Y-5103100D02*
X12257800Y-5133100D01*
X12257800Y-5103100D02*
X12227800Y-5133100D01*
X12240500Y-6068300D02*
X12270500Y-6098300D01*
X12270500Y-6068300D02*
X12240500Y-6098300D01*
X12240500Y-8506700D02*
X12270500Y-8536700D01*
X12270500Y-8506700D02*
X12240500Y-8536700D01*
X12250660Y-11313400D02*
X12280660Y-11343400D01*
X12280660Y-11313400D02*
X12250660Y-11343400D01*
X12263360Y-5567920D02*
X12293360Y-5597920D01*
X12293360Y-5567920D02*
X12263360Y-5597920D01*
X12278600Y-6169900D02*
X12308600Y-6199900D01*
X12308600Y-6169900D02*
X12278600Y-6199900D01*
X12306540Y-6477240D02*
X12336540Y-6507240D01*
X12336540Y-6477240D02*
X12306540Y-6507240D01*
X12354800Y-7655800D02*
X12384800Y-7685800D01*
X12384800Y-7655800D02*
X12354800Y-7685800D01*
X12364960Y-7490700D02*
X12394960Y-7520700D01*
X12394960Y-7490700D02*
X12364960Y-7520700D01*
X12380200Y-11427700D02*
X12410200Y-11457700D01*
X12410200Y-11427700D02*
X12380200Y-11457700D01*
X12405600Y-5395200D02*
X12435600Y-5425200D01*
X12435600Y-5395200D02*
X12405600Y-5425200D01*
X12456600Y-7198800D02*
X12486600Y-7228800D01*
X12486600Y-7198800D02*
X12456600Y-7228800D01*
X12458940Y-11549620D02*
X12488940Y-11579620D01*
X12488940Y-11549620D02*
X12458940Y-11579620D01*
X12507200Y-8163800D02*
X12537200Y-8193800D01*
X12537200Y-8163800D02*
X12507200Y-8193800D01*
X12532600Y-8519400D02*
X12562600Y-8549400D01*
X12562600Y-8519400D02*
X12532600Y-8549400D01*
X12538000Y-11628000D02*
X12568000Y-11658000D01*
X12568000Y-11628000D02*
X12538000Y-11658000D01*
X12558000Y-5839700D02*
X12588000Y-5869700D01*
X12588000Y-5839700D02*
X12558000Y-5869700D01*
X12572000Y-11496000D02*
X12602000Y-11526000D01*
X12602000Y-11496000D02*
X12572000Y-11526000D01*
X12583400Y-4874500D02*
X12613400Y-4904500D01*
X12613400Y-4874500D02*
X12583400Y-4904500D01*
X12596100Y-8303500D02*
X12626100Y-8333500D01*
X12626100Y-8303500D02*
X12596100Y-8333500D01*
X12634200Y-6603000D02*
X12664200Y-6633000D01*
X12664200Y-6603000D02*
X12634200Y-6633000D01*
X12793200Y-7224000D02*
X12823200Y-7254000D01*
X12823200Y-7224000D02*
X12793200Y-7254000D01*
X12799300Y-3591800D02*
X12829300Y-3621800D01*
X12829300Y-3591800D02*
X12799300Y-3621800D01*
X12799300Y-13050760D02*
X12829300Y-13080760D01*
X12829300Y-13050760D02*
X12799300Y-13080760D01*
X12812000Y-6627100D02*
X12842000Y-6657100D01*
X12842000Y-6627100D02*
X12812000Y-6657100D01*
X12824700Y-4874500D02*
X12854700Y-4904500D01*
X12854700Y-4874500D02*
X12824700Y-4904500D01*
X12862800Y-3731500D02*
X12892800Y-3761500D01*
X12892800Y-3731500D02*
X12862800Y-3761500D01*
X12862800Y-5484100D02*
X12892800Y-5514100D01*
X12892800Y-5484100D02*
X12862800Y-5514100D01*
X12913600Y-5319000D02*
X12943600Y-5349000D01*
X12943600Y-5319000D02*
X12913600Y-5349000D01*
X12939000Y-3896600D02*
X12969000Y-3926600D01*
X12969000Y-3896600D02*
X12939000Y-3926600D01*
X12939000Y-4239500D02*
X12969000Y-4269500D01*
X12969000Y-4239500D02*
X12939000Y-4269500D01*
X13015200Y-4887200D02*
X13045200Y-4917200D01*
X13045200Y-4887200D02*
X13015200Y-4917200D01*
X13015200Y-5052300D02*
X13045200Y-5082300D01*
X13045200Y-5052300D02*
X13015200Y-5082300D01*
X13040600Y-3426700D02*
X13070600Y-3456700D01*
X13070600Y-3426700D02*
X13040600Y-3456700D01*
X13154900Y-5407900D02*
X13184900Y-5437900D01*
X13184900Y-5407900D02*
X13154900Y-5437900D01*
X13167600Y-3617200D02*
X13197600Y-3647200D01*
X13197600Y-3617200D02*
X13167600Y-3647200D01*
X13193000Y-5852400D02*
X13223000Y-5882400D01*
X13223000Y-5852400D02*
X13193000Y-5882400D01*
X13205700Y-8113000D02*
X13235700Y-8143000D01*
X13235700Y-8113000D02*
X13205700Y-8143000D01*
X13256500Y-5192000D02*
X13286500Y-5222000D01*
X13286500Y-5192000D02*
X13256500Y-5222000D01*
X13320000Y-7655800D02*
X13350000Y-7685800D01*
X13350000Y-7655800D02*
X13320000Y-7685800D01*
X13330160Y-13050760D02*
X13360160Y-13080760D01*
X13360160Y-13050760D02*
X13330160Y-13080760D01*
X13332700Y-4849100D02*
X13362700Y-4879100D01*
X13362700Y-4849100D02*
X13332700Y-4879100D01*
X13332700Y-5052300D02*
X13362700Y-5082300D01*
X13362700Y-5052300D02*
X13332700Y-5082300D01*
X13408900Y-8468600D02*
X13438900Y-8498600D01*
X13438900Y-8468600D02*
X13408900Y-8498600D01*
X13472400Y-5344400D02*
X13502400Y-5374400D01*
X13502400Y-5344400D02*
X13472400Y-5374400D01*
X13472400Y-6728700D02*
X13502400Y-6758700D01*
X13502400Y-6728700D02*
X13472400Y-6758700D01*
X13472400Y-8684500D02*
X13502400Y-8714500D01*
X13502400Y-8684500D02*
X13472400Y-8714500D01*
X13510500Y-3617200D02*
X13540500Y-3647200D01*
X13540500Y-3617200D02*
X13510500Y-3647200D01*
X13571460Y-7790420D02*
X13601460Y-7820420D01*
X13601460Y-7790420D02*
X13571460Y-7820420D01*
X13650200Y-4811000D02*
X13680200Y-4841000D01*
X13680200Y-4811000D02*
X13650200Y-4841000D01*
X13650200Y-5052300D02*
X13680200Y-5082300D01*
X13680200Y-5052300D02*
X13650200Y-5082300D01*
X13688300Y-3426700D02*
X13718300Y-3456700D01*
X13718300Y-3426700D02*
X13688300Y-3456700D01*
X13751800Y-5839700D02*
X13781800Y-5869700D01*
X13781800Y-5839700D02*
X13751800Y-5869700D01*
X13777200Y-4861800D02*
X13807200Y-4891800D01*
X13807200Y-4861800D02*
X13777200Y-4891800D01*
X13779740Y-7739620D02*
X13809740Y-7769620D01*
X13809740Y-7739620D02*
X13779740Y-7769620D01*
X13785741Y-6796359D02*
X13815741Y-6826359D01*
X13815741Y-6796359D02*
X13785741Y-6826359D01*
X13866100Y-3629900D02*
X13896100Y-3659900D01*
X13896100Y-3629900D02*
X13866100Y-3659900D01*
X13891500Y-5700000D02*
X13921500Y-5730000D01*
X13921500Y-5700000D02*
X13891500Y-5730000D01*
X13891500Y-5984480D02*
X13921500Y-6014480D01*
X13921500Y-5984480D02*
X13891500Y-6014480D01*
X13911820Y-13050760D02*
X13941820Y-13080760D01*
X13941820Y-13050760D02*
X13911820Y-13080760D01*
X13980400Y-3490200D02*
X14010400Y-3520200D01*
X14010400Y-3490200D02*
X13980400Y-3520200D01*
X14031200Y-5560300D02*
X14061200Y-5590300D01*
X14061200Y-5560300D02*
X14031200Y-5590300D01*
X14031200Y-5847320D02*
X14061200Y-5877320D01*
X14061200Y-5847320D02*
X14031200Y-5877320D01*
X14031200Y-6126720D02*
X14061200Y-6156720D01*
X14061200Y-6126720D02*
X14031200Y-6156720D01*
X14031200Y-7655800D02*
X14061200Y-7685800D01*
X14061200Y-7655800D02*
X14031200Y-7685800D01*
X14170900Y-5700000D02*
X14200900Y-5730000D01*
X14200900Y-5700000D02*
X14170900Y-5730000D01*
X14170900Y-5987020D02*
X14200900Y-6017020D01*
X14200900Y-5987020D02*
X14170900Y-6017020D01*
X14272500Y-11084800D02*
X14302500Y-11114800D01*
X14302500Y-11084800D02*
X14272500Y-11114800D01*
X14297900Y-11440400D02*
X14327900Y-11470400D01*
X14327900Y-11440400D02*
X14297900Y-11470400D01*
X14310600Y-5839700D02*
X14340600Y-5869700D01*
X14340600Y-5839700D02*
X14310600Y-5869700D01*
X14310600Y-10691100D02*
X14340600Y-10721100D01*
X14340600Y-10691100D02*
X14310600Y-10721100D01*
X14318220Y-7813280D02*
X14348220Y-7843280D01*
X14348220Y-7813280D02*
X14318220Y-7843280D01*
X14336000Y-6703300D02*
X14366000Y-6733300D01*
X14366000Y-6703300D02*
X14336000Y-6733300D01*
X14399500Y-6779500D02*
X14429500Y-6809500D01*
X14429500Y-6779500D02*
X14399500Y-6809500D01*
X14475700Y-6550900D02*
X14505700Y-6580900D01*
X14505700Y-6550900D02*
X14475700Y-6580900D01*
X14475700Y-8252700D02*
X14505700Y-8282700D01*
X14505700Y-8252700D02*
X14475700Y-8282700D01*
X14536660Y-13050760D02*
X14566660Y-13080760D01*
X14566660Y-13050760D02*
X14536660Y-13080760D01*
X14539200Y-8595600D02*
X14569200Y-8625600D01*
X14569200Y-8595600D02*
X14539200Y-8625600D01*
X14587460Y-8285720D02*
X14617460Y-8315720D01*
X14617460Y-8285720D02*
X14587460Y-8315720D01*
X14666200Y-6487400D02*
X14696200Y-6517400D01*
X14696200Y-6487400D02*
X14666200Y-6517400D01*
X14691600Y-10030700D02*
X14721600Y-10060700D01*
X14721600Y-10030700D02*
X14691600Y-10060700D01*
X14704300Y-6792200D02*
X14734300Y-6822200D01*
X14734300Y-6792200D02*
X14704300Y-6822200D01*
X14704300Y-9776700D02*
X14734300Y-9806700D01*
X14734300Y-9776700D02*
X14704300Y-9806700D01*
X14729700Y-7033500D02*
X14759700Y-7063500D01*
X14759700Y-7033500D02*
X14729700Y-7063500D01*
X14767800Y-10386300D02*
X14797800Y-10416300D01*
X14797800Y-10386300D02*
X14767800Y-10416300D01*
X14805900Y-11605500D02*
X14835900Y-11635500D01*
X14835900Y-11605500D02*
X14805900Y-11635500D01*
X14818600Y-9776700D02*
X14848600Y-9806700D01*
X14848600Y-9776700D02*
X14818600Y-9806700D01*
X14818600Y-10030700D02*
X14848600Y-10060700D01*
X14848600Y-10030700D02*
X14818600Y-10060700D01*
X14846540Y-7168120D02*
X14876540Y-7198120D01*
X14876540Y-7168120D02*
X14846540Y-7198120D01*
X14894800Y-6144500D02*
X14924800Y-6174500D01*
X14924800Y-6144500D02*
X14894800Y-6174500D01*
X14932900Y-6335000D02*
X14962900Y-6365000D01*
X14962900Y-6335000D02*
X14932900Y-6365000D01*
X14932900Y-6449300D02*
X14962900Y-6479300D01*
X14962900Y-6449300D02*
X14932900Y-6479300D01*
X14945600Y-9776700D02*
X14975600Y-9806700D01*
X14975600Y-9776700D02*
X14945600Y-9806700D01*
X14945600Y-10030700D02*
X14975600Y-10060700D01*
X14975600Y-10030700D02*
X14945600Y-10060700D01*
X15123400Y-10894300D02*
X15153400Y-10924300D01*
X15153400Y-10894300D02*
X15123400Y-10924300D01*
X15146260Y-6698220D02*
X15176260Y-6728220D01*
X15176260Y-6698220D02*
X15146260Y-6728220D01*
X15174200Y-10157700D02*
X15204200Y-10187700D01*
X15204200Y-10157700D02*
X15174200Y-10187700D01*
X15194520Y-13050760D02*
X15224520Y-13080760D01*
X15224520Y-13050760D02*
X15194520Y-13080760D01*
X15199600Y-8582900D02*
X15229600Y-8612900D01*
X15229600Y-8582900D02*
X15199600Y-8612900D01*
X15212300Y-8824200D02*
X15242300Y-8854200D01*
X15242300Y-8824200D02*
X15212300Y-8854200D01*
X15301200Y-8278100D02*
X15331200Y-8308100D01*
X15331200Y-8278100D02*
X15301200Y-8308100D01*
X15301200Y-8582900D02*
X15331200Y-8612900D01*
X15331200Y-8582900D02*
X15301200Y-8612900D01*
X15301200Y-8824200D02*
X15331200Y-8854200D01*
X15331200Y-8824200D02*
X15301200Y-8854200D01*
X15390100Y-7417040D02*
X15420100Y-7447040D01*
X15420100Y-7417040D02*
X15390100Y-7447040D01*
X15390100Y-11173700D02*
X15420100Y-11203700D01*
X15420100Y-11173700D02*
X15390100Y-11203700D01*
X15402800Y-8582900D02*
X15432800Y-8612900D01*
X15432800Y-8582900D02*
X15402800Y-8612900D01*
X15402800Y-8824200D02*
X15432800Y-8854200D01*
X15432800Y-8824200D02*
X15402800Y-8854200D01*
X15567900Y-10310100D02*
X15597900Y-10340100D01*
X15597900Y-10310100D02*
X15567900Y-10340100D01*
X15626320Y-7061440D02*
X15656320Y-7091440D01*
X15656320Y-7061440D02*
X15626320Y-7091440D01*
X15682200Y-11237200D02*
X15712200Y-11267200D01*
X15712200Y-11237200D02*
X15682200Y-11267200D01*
X15707600Y-13050760D02*
X15737600Y-13080760D01*
X15737600Y-13050760D02*
X15707600Y-13080760D01*
X15860000Y-9433800D02*
X15890000Y-9463800D01*
X15890000Y-9433800D02*
X15860000Y-9463800D01*
X15923500Y-7579600D02*
X15953500Y-7609600D01*
X15953500Y-7579600D02*
X15923500Y-7609600D01*
X15936200Y-11224500D02*
X15966200Y-11254500D01*
X15966200Y-11224500D02*
X15936200Y-11254500D01*
X15961600Y-8989300D02*
X15991600Y-9019300D01*
X15991600Y-8989300D02*
X15961600Y-9019300D01*
X16139400Y-8532100D02*
X16169400Y-8562100D01*
X16169400Y-8532100D02*
X16139400Y-8562100D01*
X16169880Y-13050760D02*
X16199880Y-13080760D01*
X16199880Y-13050760D02*
X16169880Y-13080760D01*
X16202900Y-7528800D02*
X16232900Y-7558800D01*
X16232900Y-7528800D02*
X16202900Y-7558800D01*
X16215600Y-11211800D02*
X16245600Y-11241800D01*
X16245600Y-11211800D02*
X16215600Y-11241800D01*
X16393400Y-9319500D02*
X16423400Y-9349500D01*
X16423400Y-9319500D02*
X16393400Y-9349500D01*
X16609300Y-7262100D02*
X16639300Y-7292100D01*
X16639300Y-7262100D02*
X16609300Y-7292100D01*
X16672800Y-11453100D02*
X16702800Y-11483100D01*
X16702800Y-11453100D02*
X16672800Y-11483100D01*
X16705820Y-13050760D02*
X16735820Y-13080760D01*
X16735820Y-13050760D02*
X16705820Y-13080760D01*
X16749000Y-9764000D02*
X16779000Y-9794000D01*
X16779000Y-9764000D02*
X16749000Y-9794000D01*
X16850600Y-9764000D02*
X16880600Y-9794000D01*
X16880600Y-9764000D02*
X16850600Y-9794000D01*
X16888700Y-7566900D02*
X16918700Y-7596900D01*
X16918700Y-7566900D02*
X16888700Y-7596900D01*
X16926800Y-11059400D02*
X16956800Y-11089400D01*
X16956800Y-11059400D02*
X16926800Y-11089400D01*
X17003000Y-7909800D02*
X17033000Y-7939800D01*
X17033000Y-7909800D02*
X17003000Y-7939800D01*
X17053800Y-8341600D02*
X17083800Y-8371600D01*
X17083800Y-8341600D02*
X17053800Y-8371600D01*
X17091900Y-13050760D02*
X17121900Y-13080760D01*
X17121900Y-13050760D02*
X17091900Y-13080760D01*
X17244300Y-7363700D02*
X17274300Y-7393700D01*
X17274300Y-7363700D02*
X17244300Y-7393700D01*
X17396700Y-7960600D02*
X17426700Y-7990600D01*
X17426700Y-7960600D02*
X17396700Y-7990600D01*
X17434800Y-10526000D02*
X17464800Y-10556000D01*
X17464800Y-10526000D02*
X17434800Y-10556000D01*
X17485600Y-9179800D02*
X17515600Y-9209800D01*
X17515600Y-9179800D02*
X17485600Y-9209800D01*
X17521160Y-13050760D02*
X17551160Y-13080760D01*
X17551160Y-13050760D02*
X17521160Y-13080760D01*
X17574500Y-9700500D02*
X17604500Y-9730500D01*
X17604500Y-9700500D02*
X17574500Y-9730500D01*
X17853900Y-8786100D02*
X17883900Y-8816100D01*
X17883900Y-8786100D02*
X17853900Y-8816100D01*
X17980900Y-8074900D02*
X18010900Y-8104900D01*
X18010900Y-8074900D02*
X17980900Y-8104900D01*
X17980900Y-9179800D02*
X18010900Y-9209800D01*
X18010900Y-9179800D02*
X17980900Y-9209800D01*
X17980900Y-9649700D02*
X18010900Y-9679700D01*
X18010900Y-9649700D02*
X17980900Y-9679700D01*
X18044400Y-7808200D02*
X18074400Y-7838200D01*
X18074400Y-7808200D02*
X18044400Y-7838200D01*
X18082500Y-8532100D02*
X18112500Y-8562100D01*
X18112500Y-8532100D02*
X18082500Y-8562100D01*
X18095200Y-11524220D02*
X18125200Y-11554220D01*
X18125200Y-11524220D02*
X18095200Y-11554220D01*
X18105360Y-13050760D02*
X18135360Y-13080760D01*
X18135360Y-13050760D02*
X18105360Y-13080760D01*
X18140920Y-11379440D02*
X18170920Y-11409440D01*
X18170920Y-11379440D02*
X18140920Y-11409440D01*
X18237440Y-11582640D02*
X18267440Y-11612640D01*
X18267440Y-11582640D02*
X18237440Y-11612640D01*
X18270460Y-11709640D02*
X18300460Y-11739640D01*
X18300460Y-11709640D02*
X18270460Y-11739640D01*
X18331420Y-11331180D02*
X18361420Y-11361180D01*
X18361420Y-11331180D02*
X18331420Y-11361180D01*
X18387300Y-11478500D02*
X18417300Y-11508500D01*
X18417300Y-11478500D02*
X18387300Y-11508500D01*
X18552400Y-11356580D02*
X18582400Y-11386580D01*
X18582400Y-11356580D02*
X18552400Y-11386580D01*
X18674320Y-13050760D02*
X18704320Y-13080760D01*
X18704320Y-13050760D02*
X18674320Y-13080760D01*
X19001980Y-11126000D02*
X19031980Y-11156000D01*
X19031980Y-11126000D02*
X19001980Y-11156000D01*
X19012000Y-7964000D02*
X19042000Y-7994000D01*
X19042000Y-7964000D02*
X19012000Y-7994000D01*
X19144220Y-12987260D02*
X19174220Y-13017260D01*
X19174220Y-12987260D02*
X19144220Y-13017260D01*
X19188000Y-10128000D02*
X19218000Y-10158000D01*
X19218000Y-10128000D02*
X19188000Y-10158000D01*
X19245000Y-9251000D02*
X19275000Y-9281000D01*
X19275000Y-9251000D02*
X19245000Y-9281000D01*
X19315000Y-9866000D02*
X19345000Y-9896000D01*
X19345000Y-9866000D02*
X19315000Y-9896000D01*
X19327100Y-8600680D02*
X19357100Y-8630680D01*
X19357100Y-8600680D02*
X19327100Y-8630680D01*
X19368000Y-8986000D02*
X19398000Y-9016000D01*
X19398000Y-8986000D02*
X19368000Y-9016000D01*
X19436320Y-7983460D02*
X19466320Y-8013460D01*
X19466320Y-7983460D02*
X19436320Y-8013460D01*
X19545540Y-12809460D02*
X19575540Y-12839460D01*
X19575540Y-12809460D02*
X19545540Y-12839460D01*
X19786840Y-12598640D02*
X19816840Y-12628640D01*
X19816840Y-12598640D02*
X19786840Y-12628640D01*
X19967180Y-12349720D02*
X19997180Y-12379720D01*
X19997180Y-12349720D02*
X19967180Y-12379720D01*
X20155140Y-11940780D02*
X20185140Y-11970780D01*
X20185140Y-11940780D02*
X20155140Y-11970780D01*
X20180540Y-11562320D02*
X20210540Y-11592320D01*
X20210540Y-11562320D02*
X20180540Y-11592320D01*
X12121712Y-5947732D02*
G75*
G03*
X12121712Y-5947732I-30000J0D01*
G01*
X12031607Y-5930054D02*
X12109389Y-6007836D01*
X12109389Y-6007836D02*
G75*
G03*
X12151816Y-5965409I21213J21213D01*
G01*
X12151816Y-5965409D02*
X12074034Y-5887628D01*
X12074034Y-5887628D02*
G75*
G03*
X12031607Y-5930054I-21213J-21213D01*
G01*
X12732652Y-5336791D02*
G75*
G03*
X12732652Y-5336791I-30000J0D01*
G01*
X12642548Y-5319114D02*
X12720330Y-5396896D01*
X12720330Y-5396896D02*
G75*
G03*
X12762756Y-5354469I21213J21213D01*
G01*
X12762756Y-5354469D02*
X12684974Y-5276687D01*
X12684974Y-5276687D02*
G75*
G03*
X12642548Y-5319114I-21213J-21213D01*
G01*
D11*
X10590760Y-13497467D02*
X10590760Y-13297467D01*
X10590760Y-13297467D02*
X10638379Y-13297467D01*
X10638379Y-13297467D02*
X10666950Y-13306991D01*
X10666950Y-13306991D02*
X10685998Y-13326038D01*
X10685998Y-13326038D02*
X10695522Y-13345086D01*
X10695522Y-13345086D02*
X10705045Y-13383181D01*
X10705045Y-13383181D02*
X10705045Y-13411753D01*
X10705045Y-13411753D02*
X10695522Y-13449848D01*
X10695522Y-13449848D02*
X10685998Y-13468895D01*
X10685998Y-13468895D02*
X10666950Y-13487943D01*
X10666950Y-13487943D02*
X10638379Y-13497467D01*
X10638379Y-13497467D02*
X10590760Y-13497467D01*
X10790760Y-13497467D02*
X10790760Y-13364134D01*
X10790760Y-13402229D02*
X10800284Y-13383181D01*
X10800284Y-13383181D02*
X10809807Y-13373657D01*
X10809807Y-13373657D02*
X10828855Y-13364134D01*
X10828855Y-13364134D02*
X10847903Y-13364134D01*
X10914569Y-13497467D02*
X10914569Y-13364134D01*
X10914569Y-13297467D02*
X10905045Y-13306991D01*
X10905045Y-13306991D02*
X10914569Y-13316515D01*
X10914569Y-13316515D02*
X10924093Y-13306991D01*
X10924093Y-13306991D02*
X10914569Y-13297467D01*
X10914569Y-13297467D02*
X10914569Y-13316515D01*
X11038379Y-13497467D02*
X11019331Y-13487943D01*
X11019331Y-13487943D02*
X11009807Y-13468895D01*
X11009807Y-13468895D02*
X11009807Y-13297467D01*
X11143141Y-13497467D02*
X11124093Y-13487943D01*
X11124093Y-13487943D02*
X11114569Y-13468895D01*
X11114569Y-13468895D02*
X11114569Y-13297467D01*
X11371712Y-13497467D02*
X11371712Y-13297467D01*
X11371712Y-13297467D02*
X11438379Y-13440324D01*
X11438379Y-13440324D02*
X11505045Y-13297467D01*
X11505045Y-13297467D02*
X11505045Y-13497467D01*
X11685998Y-13497467D02*
X11685998Y-13392705D01*
X11685998Y-13392705D02*
X11676474Y-13373657D01*
X11676474Y-13373657D02*
X11657426Y-13364134D01*
X11657426Y-13364134D02*
X11619331Y-13364134D01*
X11619331Y-13364134D02*
X11600283Y-13373657D01*
X11685998Y-13487943D02*
X11666950Y-13497467D01*
X11666950Y-13497467D02*
X11619331Y-13497467D01*
X11619331Y-13497467D02*
X11600283Y-13487943D01*
X11600283Y-13487943D02*
X11590760Y-13468895D01*
X11590760Y-13468895D02*
X11590760Y-13449848D01*
X11590760Y-13449848D02*
X11600283Y-13430800D01*
X11600283Y-13430800D02*
X11619331Y-13421276D01*
X11619331Y-13421276D02*
X11666950Y-13421276D01*
X11666950Y-13421276D02*
X11685998Y-13411753D01*
X11781236Y-13364134D02*
X11781236Y-13564134D01*
X11781236Y-13373657D02*
X11800283Y-13364134D01*
X11800283Y-13364134D02*
X11838379Y-13364134D01*
X11838379Y-13364134D02*
X11857426Y-13373657D01*
X11857426Y-13373657D02*
X11866950Y-13383181D01*
X11866950Y-13383181D02*
X11876474Y-13402229D01*
X11876474Y-13402229D02*
X11876474Y-13459372D01*
X11876474Y-13459372D02*
X11866950Y-13478419D01*
X11866950Y-13478419D02*
X11857426Y-13487943D01*
X11857426Y-13487943D02*
X11838379Y-13497467D01*
X11838379Y-13497467D02*
X11800283Y-13497467D01*
X11800283Y-13497467D02*
X11781236Y-13487943D01*
X11962188Y-13478419D02*
X11971712Y-13487943D01*
X11971712Y-13487943D02*
X11962188Y-13497467D01*
X11962188Y-13497467D02*
X11952664Y-13487943D01*
X11952664Y-13487943D02*
X11962188Y-13478419D01*
X11962188Y-13478419D02*
X11962188Y-13497467D01*
X11962188Y-13373657D02*
X11971712Y-13383181D01*
X11971712Y-13383181D02*
X11962188Y-13392705D01*
X11962188Y-13392705D02*
X11952664Y-13383181D01*
X11952664Y-13383181D02*
X11962188Y-13373657D01*
X11962188Y-13373657D02*
X11962188Y-13392705D01*
D12*
X10299983Y-13810983D02*
X10329983Y-13840983D01*
X10329983Y-13810983D02*
X10299983Y-13840983D01*
D11*
X10628855Y-13717467D02*
X10647903Y-13717467D01*
X10647903Y-13717467D02*
X10666950Y-13726991D01*
X10666950Y-13726991D02*
X10676474Y-13736515D01*
X10676474Y-13736515D02*
X10685998Y-13755562D01*
X10685998Y-13755562D02*
X10695522Y-13793657D01*
X10695522Y-13793657D02*
X10695522Y-13841276D01*
X10695522Y-13841276D02*
X10685998Y-13879372D01*
X10685998Y-13879372D02*
X10676474Y-13898419D01*
X10676474Y-13898419D02*
X10666950Y-13907943D01*
X10666950Y-13907943D02*
X10647903Y-13917467D01*
X10647903Y-13917467D02*
X10628855Y-13917467D01*
X10628855Y-13917467D02*
X10609807Y-13907943D01*
X10609807Y-13907943D02*
X10600284Y-13898419D01*
X10600284Y-13898419D02*
X10590760Y-13879372D01*
X10590760Y-13879372D02*
X10581236Y-13841276D01*
X10581236Y-13841276D02*
X10581236Y-13793657D01*
X10581236Y-13793657D02*
X10590760Y-13755562D01*
X10590760Y-13755562D02*
X10600284Y-13736515D01*
X10600284Y-13736515D02*
X10609807Y-13726991D01*
X10609807Y-13726991D02*
X10628855Y-13717467D01*
X10781236Y-13898419D02*
X10790760Y-13907943D01*
X10790760Y-13907943D02*
X10781236Y-13917467D01*
X10781236Y-13917467D02*
X10771712Y-13907943D01*
X10771712Y-13907943D02*
X10781236Y-13898419D01*
X10781236Y-13898419D02*
X10781236Y-13917467D01*
X10857426Y-13717467D02*
X10981236Y-13717467D01*
X10981236Y-13717467D02*
X10914569Y-13793657D01*
X10914569Y-13793657D02*
X10943141Y-13793657D01*
X10943141Y-13793657D02*
X10962188Y-13803181D01*
X10962188Y-13803181D02*
X10971712Y-13812705D01*
X10971712Y-13812705D02*
X10981236Y-13831753D01*
X10981236Y-13831753D02*
X10981236Y-13879372D01*
X10981236Y-13879372D02*
X10971712Y-13898419D01*
X10971712Y-13898419D02*
X10962188Y-13907943D01*
X10962188Y-13907943D02*
X10943141Y-13917467D01*
X10943141Y-13917467D02*
X10885998Y-13917467D01*
X10885998Y-13917467D02*
X10866950Y-13907943D01*
X10866950Y-13907943D02*
X10857426Y-13898419D01*
X11105045Y-13717467D02*
X11124093Y-13717467D01*
X11124093Y-13717467D02*
X11143141Y-13726991D01*
X11143141Y-13726991D02*
X11152665Y-13736515D01*
X11152665Y-13736515D02*
X11162188Y-13755562D01*
X11162188Y-13755562D02*
X11171712Y-13793657D01*
X11171712Y-13793657D02*
X11171712Y-13841276D01*
X11171712Y-13841276D02*
X11162188Y-13879372D01*
X11162188Y-13879372D02*
X11152665Y-13898419D01*
X11152665Y-13898419D02*
X11143141Y-13907943D01*
X11143141Y-13907943D02*
X11124093Y-13917467D01*
X11124093Y-13917467D02*
X11105045Y-13917467D01*
X11105045Y-13917467D02*
X11085998Y-13907943D01*
X11085998Y-13907943D02*
X11076474Y-13898419D01*
X11076474Y-13898419D02*
X11066950Y-13879372D01*
X11066950Y-13879372D02*
X11057426Y-13841276D01*
X11057426Y-13841276D02*
X11057426Y-13793657D01*
X11057426Y-13793657D02*
X11066950Y-13755562D01*
X11066950Y-13755562D02*
X11076474Y-13736515D01*
X11076474Y-13736515D02*
X11085998Y-13726991D01*
X11085998Y-13726991D02*
X11105045Y-13717467D01*
X11295522Y-13717467D02*
X11314569Y-13717467D01*
X11314569Y-13717467D02*
X11333617Y-13726991D01*
X11333617Y-13726991D02*
X11343141Y-13736515D01*
X11343141Y-13736515D02*
X11352664Y-13755562D01*
X11352664Y-13755562D02*
X11362188Y-13793657D01*
X11362188Y-13793657D02*
X11362188Y-13841276D01*
X11362188Y-13841276D02*
X11352664Y-13879372D01*
X11352664Y-13879372D02*
X11343141Y-13898419D01*
X11343141Y-13898419D02*
X11333617Y-13907943D01*
X11333617Y-13907943D02*
X11314569Y-13917467D01*
X11314569Y-13917467D02*
X11295522Y-13917467D01*
X11295522Y-13917467D02*
X11276474Y-13907943D01*
X11276474Y-13907943D02*
X11266950Y-13898419D01*
X11266950Y-13898419D02*
X11257426Y-13879372D01*
X11257426Y-13879372D02*
X11247903Y-13841276D01*
X11247903Y-13841276D02*
X11247903Y-13793657D01*
X11247903Y-13793657D02*
X11257426Y-13755562D01*
X11257426Y-13755562D02*
X11266950Y-13736515D01*
X11266950Y-13736515D02*
X11276474Y-13726991D01*
X11276474Y-13726991D02*
X11295522Y-13717467D01*
X11447903Y-13917467D02*
X11447903Y-13784134D01*
X11447903Y-13803181D02*
X11457426Y-13793657D01*
X11457426Y-13793657D02*
X11476474Y-13784134D01*
X11476474Y-13784134D02*
X11505045Y-13784134D01*
X11505045Y-13784134D02*
X11524093Y-13793657D01*
X11524093Y-13793657D02*
X11533617Y-13812705D01*
X11533617Y-13812705D02*
X11533617Y-13917467D01*
X11533617Y-13812705D02*
X11543141Y-13793657D01*
X11543141Y-13793657D02*
X11562188Y-13784134D01*
X11562188Y-13784134D02*
X11590760Y-13784134D01*
X11590760Y-13784134D02*
X11609807Y-13793657D01*
X11609807Y-13793657D02*
X11619331Y-13812705D01*
X11619331Y-13812705D02*
X11619331Y-13917467D01*
X11714569Y-13917467D02*
X11714569Y-13784134D01*
X11714569Y-13803181D02*
X11724093Y-13793657D01*
X11724093Y-13793657D02*
X11743141Y-13784134D01*
X11743141Y-13784134D02*
X11771712Y-13784134D01*
X11771712Y-13784134D02*
X11790760Y-13793657D01*
X11790760Y-13793657D02*
X11800284Y-13812705D01*
X11800284Y-13812705D02*
X11800284Y-13917467D01*
X11800284Y-13812705D02*
X11809807Y-13793657D01*
X11809807Y-13793657D02*
X11828855Y-13784134D01*
X11828855Y-13784134D02*
X11857426Y-13784134D01*
X11857426Y-13784134D02*
X11876474Y-13793657D01*
X11876474Y-13793657D02*
X11885998Y-13812705D01*
X11885998Y-13812705D02*
X11885998Y-13917467D01*
X12276474Y-13707943D02*
X12105046Y-13965086D01*
X12533617Y-13717467D02*
X12552665Y-13717467D01*
X12552665Y-13717467D02*
X12571712Y-13726991D01*
X12571712Y-13726991D02*
X12581236Y-13736515D01*
X12581236Y-13736515D02*
X12590760Y-13755562D01*
X12590760Y-13755562D02*
X12600284Y-13793657D01*
X12600284Y-13793657D02*
X12600284Y-13841276D01*
X12600284Y-13841276D02*
X12590760Y-13879372D01*
X12590760Y-13879372D02*
X12581236Y-13898419D01*
X12581236Y-13898419D02*
X12571712Y-13907943D01*
X12571712Y-13907943D02*
X12552665Y-13917467D01*
X12552665Y-13917467D02*
X12533617Y-13917467D01*
X12533617Y-13917467D02*
X12514569Y-13907943D01*
X12514569Y-13907943D02*
X12505046Y-13898419D01*
X12505046Y-13898419D02*
X12495522Y-13879372D01*
X12495522Y-13879372D02*
X12485998Y-13841276D01*
X12485998Y-13841276D02*
X12485998Y-13793657D01*
X12485998Y-13793657D02*
X12495522Y-13755562D01*
X12495522Y-13755562D02*
X12505046Y-13736515D01*
X12505046Y-13736515D02*
X12514569Y-13726991D01*
X12514569Y-13726991D02*
X12533617Y-13717467D01*
X12685998Y-13898419D02*
X12695522Y-13907943D01*
X12695522Y-13907943D02*
X12685998Y-13917467D01*
X12685998Y-13917467D02*
X12676474Y-13907943D01*
X12676474Y-13907943D02*
X12685998Y-13898419D01*
X12685998Y-13898419D02*
X12685998Y-13917467D01*
X12819331Y-13717467D02*
X12838379Y-13717467D01*
X12838379Y-13717467D02*
X12857427Y-13726991D01*
X12857427Y-13726991D02*
X12866950Y-13736515D01*
X12866950Y-13736515D02*
X12876474Y-13755562D01*
X12876474Y-13755562D02*
X12885998Y-13793657D01*
X12885998Y-13793657D02*
X12885998Y-13841276D01*
X12885998Y-13841276D02*
X12876474Y-13879372D01*
X12876474Y-13879372D02*
X12866950Y-13898419D01*
X12866950Y-13898419D02*
X12857427Y-13907943D01*
X12857427Y-13907943D02*
X12838379Y-13917467D01*
X12838379Y-13917467D02*
X12819331Y-13917467D01*
X12819331Y-13917467D02*
X12800284Y-13907943D01*
X12800284Y-13907943D02*
X12790760Y-13898419D01*
X12790760Y-13898419D02*
X12781236Y-13879372D01*
X12781236Y-13879372D02*
X12771712Y-13841276D01*
X12771712Y-13841276D02*
X12771712Y-13793657D01*
X12771712Y-13793657D02*
X12781236Y-13755562D01*
X12781236Y-13755562D02*
X12790760Y-13736515D01*
X12790760Y-13736515D02*
X12800284Y-13726991D01*
X12800284Y-13726991D02*
X12819331Y-13717467D01*
X13076474Y-13917467D02*
X12962188Y-13917467D01*
X13019331Y-13917467D02*
X13019331Y-13717467D01*
X13019331Y-13717467D02*
X13000284Y-13746038D01*
X13000284Y-13746038D02*
X12981236Y-13765086D01*
X12981236Y-13765086D02*
X12962188Y-13774610D01*
X13266950Y-13917467D02*
X13152665Y-13917467D01*
X13209807Y-13917467D02*
X13209807Y-13717467D01*
X13209807Y-13717467D02*
X13190760Y-13746038D01*
X13190760Y-13746038D02*
X13171712Y-13765086D01*
X13171712Y-13765086D02*
X13152665Y-13774610D01*
X13381236Y-13803181D02*
X13362188Y-13793657D01*
X13362188Y-13793657D02*
X13352665Y-13784134D01*
X13352665Y-13784134D02*
X13343141Y-13765086D01*
X13343141Y-13765086D02*
X13343141Y-13755562D01*
X13343141Y-13755562D02*
X13352665Y-13736515D01*
X13352665Y-13736515D02*
X13362188Y-13726991D01*
X13362188Y-13726991D02*
X13381236Y-13717467D01*
X13381236Y-13717467D02*
X13419331Y-13717467D01*
X13419331Y-13717467D02*
X13438379Y-13726991D01*
X13438379Y-13726991D02*
X13447903Y-13736515D01*
X13447903Y-13736515D02*
X13457427Y-13755562D01*
X13457427Y-13755562D02*
X13457427Y-13765086D01*
X13457427Y-13765086D02*
X13447903Y-13784134D01*
X13447903Y-13784134D02*
X13438379Y-13793657D01*
X13438379Y-13793657D02*
X13419331Y-13803181D01*
X13419331Y-13803181D02*
X13381236Y-13803181D01*
X13381236Y-13803181D02*
X13362188Y-13812705D01*
X13362188Y-13812705D02*
X13352665Y-13822229D01*
X13352665Y-13822229D02*
X13343141Y-13841276D01*
X13343141Y-13841276D02*
X13343141Y-13879372D01*
X13343141Y-13879372D02*
X13352665Y-13898419D01*
X13352665Y-13898419D02*
X13362188Y-13907943D01*
X13362188Y-13907943D02*
X13381236Y-13917467D01*
X13381236Y-13917467D02*
X13419331Y-13917467D01*
X13419331Y-13917467D02*
X13438379Y-13907943D01*
X13438379Y-13907943D02*
X13447903Y-13898419D01*
X13447903Y-13898419D02*
X13457427Y-13879372D01*
X13457427Y-13879372D02*
X13457427Y-13841276D01*
X13457427Y-13841276D02*
X13447903Y-13822229D01*
X13447903Y-13822229D02*
X13438379Y-13812705D01*
X13438379Y-13812705D02*
X13419331Y-13803181D01*
X13533617Y-13717467D02*
X13533617Y-13755562D01*
X13609808Y-13717467D02*
X13609808Y-13755562D01*
X13905046Y-13993657D02*
X13895522Y-13984134D01*
X13895522Y-13984134D02*
X13876474Y-13955562D01*
X13876474Y-13955562D02*
X13866950Y-13936515D01*
X13866950Y-13936515D02*
X13857427Y-13907943D01*
X13857427Y-13907943D02*
X13847903Y-13860324D01*
X13847903Y-13860324D02*
X13847903Y-13822229D01*
X13847903Y-13822229D02*
X13857427Y-13774610D01*
X13857427Y-13774610D02*
X13866950Y-13746038D01*
X13866950Y-13746038D02*
X13876474Y-13726991D01*
X13876474Y-13726991D02*
X13895522Y-13698419D01*
X13895522Y-13698419D02*
X13905046Y-13688895D01*
X13971712Y-13736515D02*
X13981236Y-13726991D01*
X13981236Y-13726991D02*
X14000284Y-13717467D01*
X14000284Y-13717467D02*
X14047903Y-13717467D01*
X14047903Y-13717467D02*
X14066950Y-13726991D01*
X14066950Y-13726991D02*
X14076474Y-13736515D01*
X14076474Y-13736515D02*
X14085998Y-13755562D01*
X14085998Y-13755562D02*
X14085998Y-13774610D01*
X14085998Y-13774610D02*
X14076474Y-13803181D01*
X14076474Y-13803181D02*
X13962189Y-13917467D01*
X13962189Y-13917467D02*
X14085998Y-13917467D01*
X14209808Y-13717467D02*
X14228855Y-13717467D01*
X14228855Y-13717467D02*
X14247903Y-13726991D01*
X14247903Y-13726991D02*
X14257427Y-13736515D01*
X14257427Y-13736515D02*
X14266950Y-13755562D01*
X14266950Y-13755562D02*
X14276474Y-13793657D01*
X14276474Y-13793657D02*
X14276474Y-13841276D01*
X14276474Y-13841276D02*
X14266950Y-13879372D01*
X14266950Y-13879372D02*
X14257427Y-13898419D01*
X14257427Y-13898419D02*
X14247903Y-13907943D01*
X14247903Y-13907943D02*
X14228855Y-13917467D01*
X14228855Y-13917467D02*
X14209808Y-13917467D01*
X14209808Y-13917467D02*
X14190760Y-13907943D01*
X14190760Y-13907943D02*
X14181236Y-13898419D01*
X14181236Y-13898419D02*
X14171712Y-13879372D01*
X14171712Y-13879372D02*
X14162189Y-13841276D01*
X14162189Y-13841276D02*
X14162189Y-13793657D01*
X14162189Y-13793657D02*
X14171712Y-13755562D01*
X14171712Y-13755562D02*
X14181236Y-13736515D01*
X14181236Y-13736515D02*
X14190760Y-13726991D01*
X14190760Y-13726991D02*
X14209808Y-13717467D01*
X14343141Y-13717467D02*
X14466950Y-13717467D01*
X14466950Y-13717467D02*
X14400284Y-13793657D01*
X14400284Y-13793657D02*
X14428855Y-13793657D01*
X14428855Y-13793657D02*
X14447903Y-13803181D01*
X14447903Y-13803181D02*
X14457427Y-13812705D01*
X14457427Y-13812705D02*
X14466950Y-13831753D01*
X14466950Y-13831753D02*
X14466950Y-13879372D01*
X14466950Y-13879372D02*
X14457427Y-13898419D01*
X14457427Y-13898419D02*
X14447903Y-13907943D01*
X14447903Y-13907943D02*
X14428855Y-13917467D01*
X14428855Y-13917467D02*
X14371712Y-13917467D01*
X14371712Y-13917467D02*
X14352665Y-13907943D01*
X14352665Y-13907943D02*
X14343141Y-13898419D01*
X14705046Y-13917467D02*
X14705046Y-13717467D01*
X14790760Y-13917467D02*
X14790760Y-13812705D01*
X14790760Y-13812705D02*
X14781236Y-13793657D01*
X14781236Y-13793657D02*
X14762189Y-13784134D01*
X14762189Y-13784134D02*
X14733617Y-13784134D01*
X14733617Y-13784134D02*
X14714570Y-13793657D01*
X14714570Y-13793657D02*
X14705046Y-13803181D01*
X14914570Y-13917467D02*
X14895522Y-13907943D01*
X14895522Y-13907943D02*
X14885998Y-13898419D01*
X14885998Y-13898419D02*
X14876474Y-13879372D01*
X14876474Y-13879372D02*
X14876474Y-13822229D01*
X14876474Y-13822229D02*
X14885998Y-13803181D01*
X14885998Y-13803181D02*
X14895522Y-13793657D01*
X14895522Y-13793657D02*
X14914570Y-13784134D01*
X14914570Y-13784134D02*
X14943141Y-13784134D01*
X14943141Y-13784134D02*
X14962189Y-13793657D01*
X14962189Y-13793657D02*
X14971712Y-13803181D01*
X14971712Y-13803181D02*
X14981236Y-13822229D01*
X14981236Y-13822229D02*
X14981236Y-13879372D01*
X14981236Y-13879372D02*
X14971712Y-13898419D01*
X14971712Y-13898419D02*
X14962189Y-13907943D01*
X14962189Y-13907943D02*
X14943141Y-13917467D01*
X14943141Y-13917467D02*
X14914570Y-13917467D01*
X15095522Y-13917467D02*
X15076474Y-13907943D01*
X15076474Y-13907943D02*
X15066951Y-13888895D01*
X15066951Y-13888895D02*
X15066951Y-13717467D01*
X15247903Y-13907943D02*
X15228855Y-13917467D01*
X15228855Y-13917467D02*
X15190760Y-13917467D01*
X15190760Y-13917467D02*
X15171712Y-13907943D01*
X15171712Y-13907943D02*
X15162189Y-13888895D01*
X15162189Y-13888895D02*
X15162189Y-13812705D01*
X15162189Y-13812705D02*
X15171712Y-13793657D01*
X15171712Y-13793657D02*
X15190760Y-13784134D01*
X15190760Y-13784134D02*
X15228855Y-13784134D01*
X15228855Y-13784134D02*
X15247903Y-13793657D01*
X15247903Y-13793657D02*
X15257427Y-13812705D01*
X15257427Y-13812705D02*
X15257427Y-13831753D01*
X15257427Y-13831753D02*
X15162189Y-13850800D01*
X15333617Y-13907943D02*
X15352665Y-13917467D01*
X15352665Y-13917467D02*
X15390760Y-13917467D01*
X15390760Y-13917467D02*
X15409808Y-13907943D01*
X15409808Y-13907943D02*
X15419332Y-13888895D01*
X15419332Y-13888895D02*
X15419332Y-13879372D01*
X15419332Y-13879372D02*
X15409808Y-13860324D01*
X15409808Y-13860324D02*
X15390760Y-13850800D01*
X15390760Y-13850800D02*
X15362189Y-13850800D01*
X15362189Y-13850800D02*
X15343141Y-13841276D01*
X15343141Y-13841276D02*
X15333617Y-13822229D01*
X15333617Y-13822229D02*
X15333617Y-13812705D01*
X15333617Y-13812705D02*
X15343141Y-13793657D01*
X15343141Y-13793657D02*
X15362189Y-13784134D01*
X15362189Y-13784134D02*
X15390760Y-13784134D01*
X15390760Y-13784134D02*
X15409808Y-13793657D01*
X15485998Y-13993657D02*
X15495522Y-13984134D01*
X15495522Y-13984134D02*
X15514570Y-13955562D01*
X15514570Y-13955562D02*
X15524093Y-13936515D01*
X15524093Y-13936515D02*
X15533617Y-13907943D01*
X15533617Y-13907943D02*
X15543141Y-13860324D01*
X15543141Y-13860324D02*
X15543141Y-13822229D01*
X15543141Y-13822229D02*
X15533617Y-13774610D01*
X15533617Y-13774610D02*
X15524093Y-13746038D01*
X15524093Y-13746038D02*
X15514570Y-13726991D01*
X15514570Y-13726991D02*
X15495522Y-13698419D01*
X15495522Y-13698419D02*
X15485998Y-13688895D01*
D12*
X10329983Y-14089983D02*
G75*
G03*
X10329983Y-14089983I-30000J0D01*
G01*
D11*
X10628855Y-13981467D02*
X10647903Y-13981467D01*
X10647903Y-13981467D02*
X10666950Y-13990991D01*
X10666950Y-13990991D02*
X10676474Y-14000515D01*
X10676474Y-14000515D02*
X10685998Y-14019562D01*
X10685998Y-14019562D02*
X10695522Y-14057657D01*
X10695522Y-14057657D02*
X10695522Y-14105276D01*
X10695522Y-14105276D02*
X10685998Y-14143372D01*
X10685998Y-14143372D02*
X10676474Y-14162419D01*
X10676474Y-14162419D02*
X10666950Y-14171943D01*
X10666950Y-14171943D02*
X10647903Y-14181467D01*
X10647903Y-14181467D02*
X10628855Y-14181467D01*
X10628855Y-14181467D02*
X10609807Y-14171943D01*
X10609807Y-14171943D02*
X10600284Y-14162419D01*
X10600284Y-14162419D02*
X10590760Y-14143372D01*
X10590760Y-14143372D02*
X10581236Y-14105276D01*
X10581236Y-14105276D02*
X10581236Y-14057657D01*
X10581236Y-14057657D02*
X10590760Y-14019562D01*
X10590760Y-14019562D02*
X10600284Y-14000515D01*
X10600284Y-14000515D02*
X10609807Y-13990991D01*
X10609807Y-13990991D02*
X10628855Y-13981467D01*
X10781236Y-14162419D02*
X10790760Y-14171943D01*
X10790760Y-14171943D02*
X10781236Y-14181467D01*
X10781236Y-14181467D02*
X10771712Y-14171943D01*
X10771712Y-14171943D02*
X10781236Y-14162419D01*
X10781236Y-14162419D02*
X10781236Y-14181467D01*
X10962188Y-13981467D02*
X10924093Y-13981467D01*
X10924093Y-13981467D02*
X10905045Y-13990991D01*
X10905045Y-13990991D02*
X10895522Y-14000515D01*
X10895522Y-14000515D02*
X10876474Y-14029086D01*
X10876474Y-14029086D02*
X10866950Y-14067181D01*
X10866950Y-14067181D02*
X10866950Y-14143372D01*
X10866950Y-14143372D02*
X10876474Y-14162419D01*
X10876474Y-14162419D02*
X10885998Y-14171943D01*
X10885998Y-14171943D02*
X10905045Y-14181467D01*
X10905045Y-14181467D02*
X10943141Y-14181467D01*
X10943141Y-14181467D02*
X10962188Y-14171943D01*
X10962188Y-14171943D02*
X10971712Y-14162419D01*
X10971712Y-14162419D02*
X10981236Y-14143372D01*
X10981236Y-14143372D02*
X10981236Y-14095753D01*
X10981236Y-14095753D02*
X10971712Y-14076705D01*
X10971712Y-14076705D02*
X10962188Y-14067181D01*
X10962188Y-14067181D02*
X10943141Y-14057657D01*
X10943141Y-14057657D02*
X10905045Y-14057657D01*
X10905045Y-14057657D02*
X10885998Y-14067181D01*
X10885998Y-14067181D02*
X10876474Y-14076705D01*
X10876474Y-14076705D02*
X10866950Y-14095753D01*
X11105045Y-13981467D02*
X11124093Y-13981467D01*
X11124093Y-13981467D02*
X11143141Y-13990991D01*
X11143141Y-13990991D02*
X11152665Y-14000515D01*
X11152665Y-14000515D02*
X11162188Y-14019562D01*
X11162188Y-14019562D02*
X11171712Y-14057657D01*
X11171712Y-14057657D02*
X11171712Y-14105276D01*
X11171712Y-14105276D02*
X11162188Y-14143372D01*
X11162188Y-14143372D02*
X11152665Y-14162419D01*
X11152665Y-14162419D02*
X11143141Y-14171943D01*
X11143141Y-14171943D02*
X11124093Y-14181467D01*
X11124093Y-14181467D02*
X11105045Y-14181467D01*
X11105045Y-14181467D02*
X11085998Y-14171943D01*
X11085998Y-14171943D02*
X11076474Y-14162419D01*
X11076474Y-14162419D02*
X11066950Y-14143372D01*
X11066950Y-14143372D02*
X11057426Y-14105276D01*
X11057426Y-14105276D02*
X11057426Y-14057657D01*
X11057426Y-14057657D02*
X11066950Y-14019562D01*
X11066950Y-14019562D02*
X11076474Y-14000515D01*
X11076474Y-14000515D02*
X11085998Y-13990991D01*
X11085998Y-13990991D02*
X11105045Y-13981467D01*
X11295522Y-13981467D02*
X11314569Y-13981467D01*
X11314569Y-13981467D02*
X11333617Y-13990991D01*
X11333617Y-13990991D02*
X11343141Y-14000515D01*
X11343141Y-14000515D02*
X11352664Y-14019562D01*
X11352664Y-14019562D02*
X11362188Y-14057657D01*
X11362188Y-14057657D02*
X11362188Y-14105276D01*
X11362188Y-14105276D02*
X11352664Y-14143372D01*
X11352664Y-14143372D02*
X11343141Y-14162419D01*
X11343141Y-14162419D02*
X11333617Y-14171943D01*
X11333617Y-14171943D02*
X11314569Y-14181467D01*
X11314569Y-14181467D02*
X11295522Y-14181467D01*
X11295522Y-14181467D02*
X11276474Y-14171943D01*
X11276474Y-14171943D02*
X11266950Y-14162419D01*
X11266950Y-14162419D02*
X11257426Y-14143372D01*
X11257426Y-14143372D02*
X11247903Y-14105276D01*
X11247903Y-14105276D02*
X11247903Y-14057657D01*
X11247903Y-14057657D02*
X11257426Y-14019562D01*
X11257426Y-14019562D02*
X11266950Y-14000515D01*
X11266950Y-14000515D02*
X11276474Y-13990991D01*
X11276474Y-13990991D02*
X11295522Y-13981467D01*
X11447903Y-14181467D02*
X11447903Y-14048134D01*
X11447903Y-14067181D02*
X11457426Y-14057657D01*
X11457426Y-14057657D02*
X11476474Y-14048134D01*
X11476474Y-14048134D02*
X11505045Y-14048134D01*
X11505045Y-14048134D02*
X11524093Y-14057657D01*
X11524093Y-14057657D02*
X11533617Y-14076705D01*
X11533617Y-14076705D02*
X11533617Y-14181467D01*
X11533617Y-14076705D02*
X11543141Y-14057657D01*
X11543141Y-14057657D02*
X11562188Y-14048134D01*
X11562188Y-14048134D02*
X11590760Y-14048134D01*
X11590760Y-14048134D02*
X11609807Y-14057657D01*
X11609807Y-14057657D02*
X11619331Y-14076705D01*
X11619331Y-14076705D02*
X11619331Y-14181467D01*
X11714569Y-14181467D02*
X11714569Y-14048134D01*
X11714569Y-14067181D02*
X11724093Y-14057657D01*
X11724093Y-14057657D02*
X11743141Y-14048134D01*
X11743141Y-14048134D02*
X11771712Y-14048134D01*
X11771712Y-14048134D02*
X11790760Y-14057657D01*
X11790760Y-14057657D02*
X11800284Y-14076705D01*
X11800284Y-14076705D02*
X11800284Y-14181467D01*
X11800284Y-14076705D02*
X11809807Y-14057657D01*
X11809807Y-14057657D02*
X11828855Y-14048134D01*
X11828855Y-14048134D02*
X11857426Y-14048134D01*
X11857426Y-14048134D02*
X11876474Y-14057657D01*
X11876474Y-14057657D02*
X11885998Y-14076705D01*
X11885998Y-14076705D02*
X11885998Y-14181467D01*
X12276474Y-13971943D02*
X12105046Y-14229086D01*
X12533617Y-13981467D02*
X12552665Y-13981467D01*
X12552665Y-13981467D02*
X12571712Y-13990991D01*
X12571712Y-13990991D02*
X12581236Y-14000515D01*
X12581236Y-14000515D02*
X12590760Y-14019562D01*
X12590760Y-14019562D02*
X12600284Y-14057657D01*
X12600284Y-14057657D02*
X12600284Y-14105276D01*
X12600284Y-14105276D02*
X12590760Y-14143372D01*
X12590760Y-14143372D02*
X12581236Y-14162419D01*
X12581236Y-14162419D02*
X12571712Y-14171943D01*
X12571712Y-14171943D02*
X12552665Y-14181467D01*
X12552665Y-14181467D02*
X12533617Y-14181467D01*
X12533617Y-14181467D02*
X12514569Y-14171943D01*
X12514569Y-14171943D02*
X12505046Y-14162419D01*
X12505046Y-14162419D02*
X12495522Y-14143372D01*
X12495522Y-14143372D02*
X12485998Y-14105276D01*
X12485998Y-14105276D02*
X12485998Y-14057657D01*
X12485998Y-14057657D02*
X12495522Y-14019562D01*
X12495522Y-14019562D02*
X12505046Y-14000515D01*
X12505046Y-14000515D02*
X12514569Y-13990991D01*
X12514569Y-13990991D02*
X12533617Y-13981467D01*
X12685998Y-14162419D02*
X12695522Y-14171943D01*
X12695522Y-14171943D02*
X12685998Y-14181467D01*
X12685998Y-14181467D02*
X12676474Y-14171943D01*
X12676474Y-14171943D02*
X12685998Y-14162419D01*
X12685998Y-14162419D02*
X12685998Y-14181467D01*
X12819331Y-13981467D02*
X12838379Y-13981467D01*
X12838379Y-13981467D02*
X12857427Y-13990991D01*
X12857427Y-13990991D02*
X12866950Y-14000515D01*
X12866950Y-14000515D02*
X12876474Y-14019562D01*
X12876474Y-14019562D02*
X12885998Y-14057657D01*
X12885998Y-14057657D02*
X12885998Y-14105276D01*
X12885998Y-14105276D02*
X12876474Y-14143372D01*
X12876474Y-14143372D02*
X12866950Y-14162419D01*
X12866950Y-14162419D02*
X12857427Y-14171943D01*
X12857427Y-14171943D02*
X12838379Y-14181467D01*
X12838379Y-14181467D02*
X12819331Y-14181467D01*
X12819331Y-14181467D02*
X12800284Y-14171943D01*
X12800284Y-14171943D02*
X12790760Y-14162419D01*
X12790760Y-14162419D02*
X12781236Y-14143372D01*
X12781236Y-14143372D02*
X12771712Y-14105276D01*
X12771712Y-14105276D02*
X12771712Y-14057657D01*
X12771712Y-14057657D02*
X12781236Y-14019562D01*
X12781236Y-14019562D02*
X12790760Y-14000515D01*
X12790760Y-14000515D02*
X12800284Y-13990991D01*
X12800284Y-13990991D02*
X12819331Y-13981467D01*
X12962188Y-14000515D02*
X12971712Y-13990991D01*
X12971712Y-13990991D02*
X12990760Y-13981467D01*
X12990760Y-13981467D02*
X13038379Y-13981467D01*
X13038379Y-13981467D02*
X13057427Y-13990991D01*
X13057427Y-13990991D02*
X13066950Y-14000515D01*
X13066950Y-14000515D02*
X13076474Y-14019562D01*
X13076474Y-14019562D02*
X13076474Y-14038610D01*
X13076474Y-14038610D02*
X13066950Y-14067181D01*
X13066950Y-14067181D02*
X12952665Y-14181467D01*
X12952665Y-14181467D02*
X13076474Y-14181467D01*
X13143141Y-13981467D02*
X13266950Y-13981467D01*
X13266950Y-13981467D02*
X13200284Y-14057657D01*
X13200284Y-14057657D02*
X13228855Y-14057657D01*
X13228855Y-14057657D02*
X13247903Y-14067181D01*
X13247903Y-14067181D02*
X13257427Y-14076705D01*
X13257427Y-14076705D02*
X13266950Y-14095753D01*
X13266950Y-14095753D02*
X13266950Y-14143372D01*
X13266950Y-14143372D02*
X13257427Y-14162419D01*
X13257427Y-14162419D02*
X13247903Y-14171943D01*
X13247903Y-14171943D02*
X13228855Y-14181467D01*
X13228855Y-14181467D02*
X13171712Y-14181467D01*
X13171712Y-14181467D02*
X13152665Y-14171943D01*
X13152665Y-14171943D02*
X13143141Y-14162419D01*
X13438379Y-13981467D02*
X13400284Y-13981467D01*
X13400284Y-13981467D02*
X13381236Y-13990991D01*
X13381236Y-13990991D02*
X13371712Y-14000515D01*
X13371712Y-14000515D02*
X13352665Y-14029086D01*
X13352665Y-14029086D02*
X13343141Y-14067181D01*
X13343141Y-14067181D02*
X13343141Y-14143372D01*
X13343141Y-14143372D02*
X13352665Y-14162419D01*
X13352665Y-14162419D02*
X13362188Y-14171943D01*
X13362188Y-14171943D02*
X13381236Y-14181467D01*
X13381236Y-14181467D02*
X13419331Y-14181467D01*
X13419331Y-14181467D02*
X13438379Y-14171943D01*
X13438379Y-14171943D02*
X13447903Y-14162419D01*
X13447903Y-14162419D02*
X13457427Y-14143372D01*
X13457427Y-14143372D02*
X13457427Y-14095753D01*
X13457427Y-14095753D02*
X13447903Y-14076705D01*
X13447903Y-14076705D02*
X13438379Y-14067181D01*
X13438379Y-14067181D02*
X13419331Y-14057657D01*
X13419331Y-14057657D02*
X13381236Y-14057657D01*
X13381236Y-14057657D02*
X13362188Y-14067181D01*
X13362188Y-14067181D02*
X13352665Y-14076705D01*
X13352665Y-14076705D02*
X13343141Y-14095753D01*
X13533617Y-13981467D02*
X13533617Y-14019562D01*
X13609808Y-13981467D02*
X13609808Y-14019562D01*
X13905046Y-14257657D02*
X13895522Y-14248134D01*
X13895522Y-14248134D02*
X13876474Y-14219562D01*
X13876474Y-14219562D02*
X13866950Y-14200515D01*
X13866950Y-14200515D02*
X13857427Y-14171943D01*
X13857427Y-14171943D02*
X13847903Y-14124324D01*
X13847903Y-14124324D02*
X13847903Y-14086229D01*
X13847903Y-14086229D02*
X13857427Y-14038610D01*
X13857427Y-14038610D02*
X13866950Y-14010038D01*
X13866950Y-14010038D02*
X13876474Y-13990991D01*
X13876474Y-13990991D02*
X13895522Y-13962419D01*
X13895522Y-13962419D02*
X13905046Y-13952895D01*
X14019331Y-13981467D02*
X14038379Y-13981467D01*
X14038379Y-13981467D02*
X14057427Y-13990991D01*
X14057427Y-13990991D02*
X14066950Y-14000515D01*
X14066950Y-14000515D02*
X14076474Y-14019562D01*
X14076474Y-14019562D02*
X14085998Y-14057657D01*
X14085998Y-14057657D02*
X14085998Y-14105276D01*
X14085998Y-14105276D02*
X14076474Y-14143372D01*
X14076474Y-14143372D02*
X14066950Y-14162419D01*
X14066950Y-14162419D02*
X14057427Y-14171943D01*
X14057427Y-14171943D02*
X14038379Y-14181467D01*
X14038379Y-14181467D02*
X14019331Y-14181467D01*
X14019331Y-14181467D02*
X14000284Y-14171943D01*
X14000284Y-14171943D02*
X13990760Y-14162419D01*
X13990760Y-14162419D02*
X13981236Y-14143372D01*
X13981236Y-14143372D02*
X13971712Y-14105276D01*
X13971712Y-14105276D02*
X13971712Y-14057657D01*
X13971712Y-14057657D02*
X13981236Y-14019562D01*
X13981236Y-14019562D02*
X13990760Y-14000515D01*
X13990760Y-14000515D02*
X14000284Y-13990991D01*
X14000284Y-13990991D02*
X14019331Y-13981467D01*
X14324093Y-14181467D02*
X14324093Y-13981467D01*
X14409808Y-14181467D02*
X14409808Y-14076705D01*
X14409808Y-14076705D02*
X14400284Y-14057657D01*
X14400284Y-14057657D02*
X14381236Y-14048134D01*
X14381236Y-14048134D02*
X14352665Y-14048134D01*
X14352665Y-14048134D02*
X14333617Y-14057657D01*
X14333617Y-14057657D02*
X14324093Y-14067181D01*
X14533617Y-14181467D02*
X14514570Y-14171943D01*
X14514570Y-14171943D02*
X14505046Y-14162419D01*
X14505046Y-14162419D02*
X14495522Y-14143372D01*
X14495522Y-14143372D02*
X14495522Y-14086229D01*
X14495522Y-14086229D02*
X14505046Y-14067181D01*
X14505046Y-14067181D02*
X14514570Y-14057657D01*
X14514570Y-14057657D02*
X14533617Y-14048134D01*
X14533617Y-14048134D02*
X14562189Y-14048134D01*
X14562189Y-14048134D02*
X14581236Y-14057657D01*
X14581236Y-14057657D02*
X14590760Y-14067181D01*
X14590760Y-14067181D02*
X14600284Y-14086229D01*
X14600284Y-14086229D02*
X14600284Y-14143372D01*
X14600284Y-14143372D02*
X14590760Y-14162419D01*
X14590760Y-14162419D02*
X14581236Y-14171943D01*
X14581236Y-14171943D02*
X14562189Y-14181467D01*
X14562189Y-14181467D02*
X14533617Y-14181467D01*
X14714570Y-14181467D02*
X14695522Y-14171943D01*
X14695522Y-14171943D02*
X14685998Y-14152895D01*
X14685998Y-14152895D02*
X14685998Y-13981467D01*
X14866951Y-14171943D02*
X14847903Y-14181467D01*
X14847903Y-14181467D02*
X14809808Y-14181467D01*
X14809808Y-14181467D02*
X14790760Y-14171943D01*
X14790760Y-14171943D02*
X14781236Y-14152895D01*
X14781236Y-14152895D02*
X14781236Y-14076705D01*
X14781236Y-14076705D02*
X14790760Y-14057657D01*
X14790760Y-14057657D02*
X14809808Y-14048134D01*
X14809808Y-14048134D02*
X14847903Y-14048134D01*
X14847903Y-14048134D02*
X14866951Y-14057657D01*
X14866951Y-14057657D02*
X14876474Y-14076705D01*
X14876474Y-14076705D02*
X14876474Y-14095753D01*
X14876474Y-14095753D02*
X14781236Y-14114800D01*
X14952665Y-14171943D02*
X14971712Y-14181467D01*
X14971712Y-14181467D02*
X15009808Y-14181467D01*
X15009808Y-14181467D02*
X15028855Y-14171943D01*
X15028855Y-14171943D02*
X15038379Y-14152895D01*
X15038379Y-14152895D02*
X15038379Y-14143372D01*
X15038379Y-14143372D02*
X15028855Y-14124324D01*
X15028855Y-14124324D02*
X15009808Y-14114800D01*
X15009808Y-14114800D02*
X14981236Y-14114800D01*
X14981236Y-14114800D02*
X14962189Y-14105276D01*
X14962189Y-14105276D02*
X14952665Y-14086229D01*
X14952665Y-14086229D02*
X14952665Y-14076705D01*
X14952665Y-14076705D02*
X14962189Y-14057657D01*
X14962189Y-14057657D02*
X14981236Y-14048134D01*
X14981236Y-14048134D02*
X15009808Y-14048134D01*
X15009808Y-14048134D02*
X15028855Y-14057657D01*
X15276474Y-14105276D02*
X15428855Y-14105276D01*
X15352665Y-14181467D02*
X15352665Y-14029086D01*
X15666951Y-14000515D02*
X15676474Y-13990991D01*
X15676474Y-13990991D02*
X15695522Y-13981467D01*
X15695522Y-13981467D02*
X15743141Y-13981467D01*
X15743141Y-13981467D02*
X15762189Y-13990991D01*
X15762189Y-13990991D02*
X15771713Y-14000515D01*
X15771713Y-14000515D02*
X15781236Y-14019562D01*
X15781236Y-14019562D02*
X15781236Y-14038610D01*
X15781236Y-14038610D02*
X15771713Y-14067181D01*
X15771713Y-14067181D02*
X15657427Y-14181467D01*
X15657427Y-14181467D02*
X15781236Y-14181467D01*
X16009808Y-14171943D02*
X16028855Y-14181467D01*
X16028855Y-14181467D02*
X16066951Y-14181467D01*
X16066951Y-14181467D02*
X16085998Y-14171943D01*
X16085998Y-14171943D02*
X16095522Y-14152895D01*
X16095522Y-14152895D02*
X16095522Y-14143372D01*
X16095522Y-14143372D02*
X16085998Y-14124324D01*
X16085998Y-14124324D02*
X16066951Y-14114800D01*
X16066951Y-14114800D02*
X16038379Y-14114800D01*
X16038379Y-14114800D02*
X16019332Y-14105276D01*
X16019332Y-14105276D02*
X16009808Y-14086229D01*
X16009808Y-14086229D02*
X16009808Y-14076705D01*
X16009808Y-14076705D02*
X16019332Y-14057657D01*
X16019332Y-14057657D02*
X16038379Y-14048134D01*
X16038379Y-14048134D02*
X16066951Y-14048134D01*
X16066951Y-14048134D02*
X16085998Y-14057657D01*
X16209808Y-14181467D02*
X16190760Y-14171943D01*
X16190760Y-14171943D02*
X16181236Y-14152895D01*
X16181236Y-14152895D02*
X16181236Y-13981467D01*
X16314570Y-14181467D02*
X16295522Y-14171943D01*
X16295522Y-14171943D02*
X16285998Y-14162419D01*
X16285998Y-14162419D02*
X16276475Y-14143372D01*
X16276475Y-14143372D02*
X16276475Y-14086229D01*
X16276475Y-14086229D02*
X16285998Y-14067181D01*
X16285998Y-14067181D02*
X16295522Y-14057657D01*
X16295522Y-14057657D02*
X16314570Y-14048134D01*
X16314570Y-14048134D02*
X16343141Y-14048134D01*
X16343141Y-14048134D02*
X16362189Y-14057657D01*
X16362189Y-14057657D02*
X16371713Y-14067181D01*
X16371713Y-14067181D02*
X16381236Y-14086229D01*
X16381236Y-14086229D02*
X16381236Y-14143372D01*
X16381236Y-14143372D02*
X16371713Y-14162419D01*
X16371713Y-14162419D02*
X16362189Y-14171943D01*
X16362189Y-14171943D02*
X16343141Y-14181467D01*
X16343141Y-14181467D02*
X16314570Y-14181467D01*
X16438379Y-14048134D02*
X16514570Y-14048134D01*
X16466951Y-13981467D02*
X16466951Y-14152895D01*
X16466951Y-14152895D02*
X16476475Y-14171943D01*
X16476475Y-14171943D02*
X16495522Y-14181467D01*
X16495522Y-14181467D02*
X16514570Y-14181467D01*
X16571713Y-14171943D02*
X16590760Y-14181467D01*
X16590760Y-14181467D02*
X16628855Y-14181467D01*
X16628855Y-14181467D02*
X16647903Y-14171943D01*
X16647903Y-14171943D02*
X16657427Y-14152895D01*
X16657427Y-14152895D02*
X16657427Y-14143372D01*
X16657427Y-14143372D02*
X16647903Y-14124324D01*
X16647903Y-14124324D02*
X16628855Y-14114800D01*
X16628855Y-14114800D02*
X16600284Y-14114800D01*
X16600284Y-14114800D02*
X16581236Y-14105276D01*
X16581236Y-14105276D02*
X16571713Y-14086229D01*
X16571713Y-14086229D02*
X16571713Y-14076705D01*
X16571713Y-14076705D02*
X16581236Y-14057657D01*
X16581236Y-14057657D02*
X16600284Y-14048134D01*
X16600284Y-14048134D02*
X16628855Y-14048134D01*
X16628855Y-14048134D02*
X16647903Y-14057657D01*
X16724094Y-14257657D02*
X16733617Y-14248134D01*
X16733617Y-14248134D02*
X16752665Y-14219562D01*
X16752665Y-14219562D02*
X16762189Y-14200515D01*
X16762189Y-14200515D02*
X16771713Y-14171943D01*
X16771713Y-14171943D02*
X16781237Y-14124324D01*
X16781237Y-14124324D02*
X16781237Y-14086229D01*
X16781237Y-14086229D02*
X16771713Y-14038610D01*
X16771713Y-14038610D02*
X16762189Y-14010038D01*
X16762189Y-14010038D02*
X16752665Y-13990991D01*
X16752665Y-13990991D02*
X16733617Y-13962419D01*
X16733617Y-13962419D02*
X16724094Y-13952895D01*
M02*
