<?xml version="1.0" encoding="UTF-8" standalone="no"?>
<!-- Created with Inkscape (http://www.inkscape.org/) -->

<svg
   width="111.12283mm"
   height="109.44151mm"
   viewBox="0 0 111.12283 109.44151"
   version="1.1"
   id="svg1"
   sodipodi:docname="sleigh_silk.svg"
   inkscape:version="1.3 (0e150ed, 2023-07-21)"
   xmlns:inkscape="http://www.inkscape.org/namespaces/inkscape"
   xmlns:sodipodi="http://sodipodi.sourceforge.net/DTD/sodipodi-0.dtd"
   xmlns="http://www.w3.org/2000/svg"
   xmlns:svg="http://www.w3.org/2000/svg">
  <sodipodi:namedview
     id="namedview1"
     pagecolor="#ffffff"
     bordercolor="#000000"
     borderopacity="0.25"
     inkscape:showpageshadow="2"
     inkscape:pageopacity="0.0"
     inkscape:pagecheckerboard="0"
     inkscape:deskcolor="#d1d1d1"
     inkscape:document-units="mm"
     inkscape:zoom="1.2387768"
     inkscape:cx="194.95038"
     inkscape:cy="247.42149"
     inkscape:window-width="1512"
     inkscape:window-height="848"
     inkscape:window-x="0"
     inkscape:window-y="38"
     inkscape:window-maximized="1"
     inkscape:current-layer="layer1" />
  <defs
     id="defs1" />
  <g
     inkscape:label="SolderMask"
     inkscape:groupmode="layer"
     id="layer1"
     style="display:inline"
     transform="translate(-49.52442,-54.119915)">
    <path
       style="color:#000000;fill:#d50000;fill-opacity:1;stroke-width:9.83288;stroke-linecap:square;-inkscape-stroke:none"
       d="M 49.52442,54.119915 H 160.64725 V 163.56143 H 49.52442 Z"
       id="path85-8-3"
       sodipodi:nodetypes="ccccc" />
    <path
       id="rect1-6"
       style="display:inline;fill:#00ff00;stroke-width:0.799999;stroke-linecap:round;stroke-linejoin:round"
       d="M 34.778481,163.56143 H 49.52442 v 14.74594 H 34.778481 Z" />
  </g>
  <g
     inkscape:groupmode="layer"
     id="layer3"
     inkscape:label="Copper"
     style="display:none"
     transform="translate(-49.52442,-54.119915)">
    <path
       id="path87-9-8"
       style="color:#000000;fill:#f8c430;fill-opacity:1;stroke-width:0.998003;stroke-linecap:round;-inkscape-stroke:none"
       d="m 94.298303,70.221465 v 5.17e-4 c -0.16346,-0.002 -0.32818,0.01681 -0.4904,0.05271 -4.30233,0.953896 -8.60585,1.181426 -13.23641,0.01344 -1.18467,-0.29866 -2.38021,0.414913 -2.67942,1.599386 -0.29923,1.18541 0.41585,2.38345 1.60145,2.682 5.40269,1.36263 10.49499,1.07408 15.26936,0.0155 1.19374,-0.26414 1.9428,-1.44135 1.67793,-2.63498 -0.22351,-1.006764 -1.11125,-1.722569 -2.14251,-1.728569 z m -8.81083,16.895093 v 1.42214 c 0,2.50498 2.00897,4.51341 4.51394,4.51341 h 1.86138 v 4.57957 c 0,0.01 1.81723,0.5144 2.72645,0.76946 v -5.34903 h 1.86139 c 2.50497,0 4.513417,-2.00843 4.513417,-4.51341 v -1.42214 h -2.974497 c -2.50498,0 -4.51393,2.00898 -4.51393,4.51394 h -0.2496 -0.25012 c 0,-2.50493 -2.00893,-4.51394 -4.51393,-4.51394 z m -28.51505,4.55889 -5.2e-4,5.2e-4 c 0.0681,1.47372 0.66285,2.64517 1.44074,3.43855 0.81698,0.83327 1.80935,1.26141 2.40347,1.26142 0.002,0 1.90249,-0.0147 3.87677,-0.0217 0.98763,-0.004 1.99276,-0.007 2.78742,-0.004 0.39733,0.002 0.74171,0.004 1.00563,0.008 0.26391,0.004 0.43816,0.008 0.53226,0.0176 0.047,0.005 0.0801,0.0139 0.14418,0.0289 0.0641,0.015 0.1477,0.036 0.25167,0.0625 0.20793,0.0531 0.4947,0.12888 0.84956,0.22428 0.70971,0.19073 1.69139,0.46021 2.85357,0.78134 2.32438,0.64229 5.36976,1.49205 8.39742,2.34095 6.05529,1.697762 12.04061,3.389972 12.04061,3.389972 1.65051,0.46027 3.2772,1.92599 4.50463,3.84989 1.22803,1.92485 2.056207,4.3155 2.056207,6.65438 0,4.13302 1.03618,8.57801 3.87108,12.10675 2.83175,3.52479 7.50712,5.91385 13.84567,5.91385 h 11.70471 c 2.83266,0 5.79182,-0.96647 8.1225,-3.0427 2.3271,-2.07305 3.91811,-5.31333 3.91811,-9.31365 0,-1.83035 0.78312,-3.34443 1.84588,-4.44779 1.06276,-1.10335 2.4023,-1.80429 3.55947,-2.02933 h -0.006 l 2.80861,-0.63717 0.002,-0.002 c 0.79143,-0.15273 1.50846,-0.86188 2.01952,-1.79524 0.47447,-0.8665 0.7128,-1.90342 0.7524,-2.805 -2.1232,0.0107 -4.14078,0.13472 -6.21202,0.67231 h -0.002 -0.002 c -1.83205,0.441 -4.17533,1.79125 -6.04252,3.73879 -1.86718,1.94756 -3.25923,4.48436 -3.25923,7.3055 0,2.86167 -0.99954,4.6783 -2.39986,5.92574 -1.40652,1.25298 -3.32809,1.89497 -5.1046,1.89497 h -11.70522 c -5.26106,0 -8.32152,-1.75056 -10.30739,-4.22248 -1.99057,-2.47775 -2.87321,-5.90564 -2.87321,-9.26248 0,-6.58781 -3.82031,-13.19117 -9.882597,-14.878162 0,0 -5.86524,-1.66211 -11.9016,-3.3569 -3.01817,-0.84742 -6.08062,-1.70242 -8.47131,-2.36213 -1.19534,-0.32985 -2.2232,-0.61064 -2.99414,-0.81701 -0.77094,-0.20638 -1.29735,-0.34075 -1.44332,-0.36845 -0.63251,-0.12029 -2.17829,-0.14849 -3.91966,-0.13849 -1.74136,0.01 -3.69592,0.0506 -5.22397,0.0506 h -0.18862 v -0.008 c -1.00613,-3.3e-4 -0.55277,-0.017 -3.65455,-0.154 z m 44.862887,3.53106 v 1.42006 c 0,2.50495 2.00845,4.515492 4.51342,4.515492 h 1.86139 V 123.083 c 0.7243,0.8569 2.72645,2.25874 2.72645,2.16369 v -24.10463 h 1.86345 c 2.50496,0 4.51393,-2.010512 4.51393,-4.515492 v -1.42006 h -2.97656 c -2.50498,0 -4.51393,2.00847 -4.51393,4.51341 h -0.2496 -0.25012 c 0,-2.50498 -2.00894,-4.51341 -4.51393,-4.51341 z m 14.44718,15.171682 v 1.42007 c 0,2.50498 2.00846,4.51393 4.51342,4.51393 h 1.86139 v 10.50221 h 2.72696 v -10.50221 h 1.86087 c 2.50496,0 4.51394,-2.00895 4.51394,-4.51393 v -1.42007 h -2.9745 c -2.50497,0 -4.51393,2.00691 -4.51393,4.51187 h -0.25012 -0.2496 c 0,-2.50499 -2.00894,-4.51187 -4.51393,-4.51187 z m 37.40237,30.86323 c -1.22214,2e-5 -2.20707,0.98495 -2.2071,2.2071 0,4.68407 -3.06637,9.45684 -8.37107,10.69754 l -0.15606,0.0372 -0.18552,-0.2403 -6.63473,-8.54728 c -1.53743,0.44793 -3.2119,0.69853 -4.97696,0.79323 l 6.42596,8.27547 H 75.165113 l 6.88278,-8.86716 c -1.49601,-0.38162 -2.95333,-0.911 -4.34961,-1.59577 l -7.12876,9.18342 -0.99425,1.27951 h -3.03083 c -1.46506,1e-5 -2.74972,-0.58038 -3.67006,-1.40457 -0.92035,-0.82419 -1.48828,-1.89364 -1.48828,-2.91558 -2e-5,-1.22225 -0.98489,-2.20933 -2.2071,-2.20917 -1.22208,3e-5 -2.20914,0.9871 -2.20917,2.20917 0,4.86686 4.39875,8.73435 9.57461,8.73435 h 73.825987 c 9.3545,0 15.52153,-7.68733 15.52153,-15.43007 -2e-5,-1.22214 -0.98498,-2.20707 -2.2071,-2.2071 z"
       sodipodi:nodetypes="cccccccscccsccccsscscccsccsssccscssssscssssssssccccsccccssssssscssscssccccssccccsscscccsccssccccsscscccscsscccccccccccsssssssssssc" />
    <path
       id="rect1"
       style="display:inline;fill:#f8c430;stroke-width:0.799999;stroke-linecap:round;stroke-linejoin:round"
       d="M 34.778481,163.56143 H 49.52442 v 14.74594 H 34.778481 Z" />
  </g>
  <g
     inkscape:groupmode="layer"
     id="layer5"
     inkscape:label="Cutout"
     style="display:none"
     transform="translate(-49.52442,-54.119915)">
    <path
       id="path90-7-9-7-4"
       style="display:inline;fill:#000000;fill-opacity:1;stroke:#000000;stroke-width:0.199601;stroke-linecap:round;stroke-linejoin:round;stroke-dasharray:none;stroke-opacity:1"
       d="m 83.082733,145.63509 v 5.1e-4 c 0.20788,0.004 0.0683,9.7e-4 0.34966,0.0207 1.20292,0.22538 2.42187,0.37288 3.65861,0.37288 H 130.0479 c 0.27493,0.0179 0.54129,0.14898 0.72357,0.38371 l 4.69368,6.04489 c -0.001,-8.9e-4 -1.3e-4,0.002 0.006,0.0114 0.008,0.009 0.0102,0.011 0.01,0.009 l 10e-6,-4e-5 -0.01,-0.009 c 0.10721,0.15907 0.16967,0.35075 0.16968,0.55699 -3e-5,0.55114 -0.4468,0.99792 -0.99794,0.99795 H 78.100583 c -0.55114,-3e-5 -0.9979,-0.44681 -0.99793,-0.99795 1e-5,-0.20624 0.0625,-0.39792 0.16967,-0.55699 l -0.0412,0.0667 0.035,-0.062 c -0.004,0.005 -0.005,0.008 0.006,-0.005 0.007,-0.01 0.008,-0.0123 0.007,-0.0114 l 4.99693,-6.43634 c 0.2007,-0.25845 0.50279,-0.39126 0.8066,-0.38577 z"
       sodipodi:nodetypes="cccscccccccsccscccccccc" />
    <path
       id="rect1-1"
       style="display:inline;stroke-width:0.799999;stroke-linecap:round;stroke-linejoin:round"
       d="M 34.778481,163.56143 H 49.52442 v 14.74594 H 34.778481 Z" />
  </g>
  <g
     inkscape:groupmode="layer"
     id="layer2"
     inkscape:label="Silkscreen"
     style="display:inline"
     transform="translate(-49.52442,-54.119915)">
    <path
       id="path94-7-7-7"
       style="color:#000000;display:inline;fill:#ffffff;stroke-linecap:round;stroke-linejoin:round;-inkscape-stroke:none"
       d="m 81.555823,62.509465 a 0.80000001,0.80000001 0 0 0 -0.4067,0.07648 0.80000001,0.80000001 0 0 0 -0.3731,1.068152 l 2.11511,4.398698 a 0.80000001,0.80000001 0 0 0 1.06867,0.374654 0.80000001,0.80000001 0 0 0 0.37466,-1.068152 l -2.11719,-4.398698 a 0.80000001,0.80000001 0 0 0 -0.45682,-0.407727 0.80000001,0.80000001 0 0 0 -0.20463,-0.04341 z m 15.5608,14.332458 c -0.066,6e-5 -0.13162,0.009 -0.19533,0.02584 -0.19395,0.0513 -0.35958,0.177473 -0.46044,0.350883 -0.20882,0.361737 -0.0848,0.824272 0.27698,1.033012 2.0486,1.182754 3.814467,2.801014 5.171267,4.738728 0.2397,0.34156 0.71082,0.424352 1.05264,0.185002 0.34123,-0.2397 0.42401,-0.710412 0.18501,-1.052132 -1.48346,-2.118584 -3.412557,-3.887925 -5.652367,-5.181079 -0.11496,-0.066 -0.24523,-0.100512 -0.37776,-0.100254 z m -8.78034,16.535942 c -1.44004,0 -2.5655,1.083103 -2.7559,2.46755 2.84209,0.800517 4.08774,1.152927 5.88232,1.659847 v -0.146761 -3.906739 h -1.46089 c -0.28165,0 -0.5562,-0.0286 -0.82475,-0.0739 h -0.84026 z m 8.93899,0 c -0.26855,0.0453 -0.54259,0.0739 -0.82424,0.0739 h -1.46089 v 4.676201 0.379305 c 6.195487,1.797629 10.039687,8.511469 10.039687,15.201139 0,3.28487 0.86901,6.62809 2.7802,9.01443 v -21.15633 h -6.31796 c -0.11064,0 -0.21962,0.007 -0.33125,0.0196 l -0.21084,0.0253 v -5.397601 c 0,-1.574207 -1.261807,-2.836003 -2.835997,-2.836003 z m 24.699267,0.640788 a 0.62388003,0.62388003 0 0 0 -0.58343,0.514697 0.62388003,0.62388003 0 0 0 0.50591,0.722437 c 0.73187,0.129047 1.38242,0.543624 1.80868,1.152384 a 0.62388003,0.62388003 0 0 0 0.86713,0.152445 0.62388003,0.62388003 0 0 0 0.15451,-0.869197 c -0.61579,-0.879446 -1.55598,-1.477549 -2.61328,-1.663981 a 0.62388003,0.62388003 0 0 0 -0.13952,-0.0088 z m -54.496417,2.731616 v 5.17e-4 c -0.79236,-0.0026 -1.79673,-7.81e-4 -2.78329,0.0031 -0.48791,0.0017 -0.50725,0.0026 -0.959115,0.0052 l -2.343527,4.059184 c 0.424155,1.42694 0.838957,2.93287 1.161687,4.46949 l 4.928895,-8.537459 c -0.002,-7e-6 -0.003,4e-6 -0.005,0 z m 3.43803,0.533818 -7.734923,13.397113 v 6.48126 L 74.144383,98.173955 c -0.33807,-0.09369 -0.81968,-0.229088 -1.13326,-0.315743 -0.85357,-0.235862 -1.47297,-0.404759 -2.09497,-0.574125 z m 6.45129,1.788004 -14.001212,24.250719 c 0.184485,1.64703 0.515474,3.24538 0.980302,4.78368 l 16.24449,-28.136263 c -1.16085,-0.325113 -2.12046,-0.590627 -3.22358,-0.898136 z m 6.44302,1.802469 -17.95601,31.10043 c 0.54989,1.12782 1.17228,2.21104 1.87482,3.2334 l 19.29908,-33.42742 c -1.2563,-0.35426 -1.66997,-0.47111 -3.21789,-0.90641 z m 27.524927,0.69195 v 23.37584 0.59996 c 1.33297,0.71229 2.57083,1.00637 4.61884,1.19063 -0.0162,-0.12756 -0.0362,-0.25406 -0.0362,-0.38603 v -6.76393 c 0,-1.74098 1.38183,-3.1472 3.10885,-3.20393 -1.84023,-0.70932 -3.14451,-2.48743 -3.14451,-4.58112 v -1.81849 h 3.37499 c 0.42872,0 0.84034,0.0582 1.23197,0.16226 v -5.74125 c 0,-1.57418 -1.26233,-2.83394 -2.83652,-2.83394 z m -21.088117,1.12086 -20.34811,35.24385 c 0.75263,0.81808 1.55922,1.58506 2.41846,2.29236 l 21.14806,-36.62877 c -0.006,-0.002 -0.0114,-0.004 -0.017,-0.006 h -0.002 c 0,0 -2.46442,-0.69362 -3.19929,-0.90124 z m 54.242687,1.90945 a 0.62388003,0.62388003 0 0 0 -0.58291,0.51418 0.62388003,0.62388003 0 0 0 0.50539,0.72295 c 0.73188,0.12905 1.38241,0.54363 1.80868,1.15239 a 0.62388003,0.62388003 0 0 0 0.8692,0.15399 0.62388003,0.62388003 0 0 0 0.15451,-0.86868 c -0.6158,-0.87945 -1.55808,-1.47962 -2.61534,-1.66605 a 0.62388003,0.62388003 0 0 0 -0.13953,-0.009 z m -25.35763,12.15016 c -1.5742,0 -2.836,1.26183 -2.836,2.836 v 6.76393 c 0,0.14067 0.0137,0.27745 0.0336,0.41238 0.48025,0.0337 0.97663,0.0553 1.50223,0.0553 h 4.42506 v -0.24908 -9.81852 h -1.76785 z m 6.65231,0 v 9.81852 0.24908 h 3.75274 c 0.7223,0 1.47131,-0.13822 2.20039,-0.36225 0.002,-0.0348 0.006,-0.0708 0.006,-0.10542 v -6.76393 c 10e-6,-1.18045 -0.70977,-2.1855 -1.72858,-2.61431 h -5.2e-4 c -0.25461,-0.10711 -0.52848,-0.1783 -0.81545,-0.20722 h -5.2e-4 c -0.0957,-0.01 -0.19255,-0.0145 -0.29094,-0.0145 z m -33.074977,0.339 a 0.51273,0.51273 0 0 0 -0.51367,0.5116 v 1.14928 l -0.77566,-0.79944 a 0.51273,0.51273 0 0 0 -0.35915,-0.15451 0.51273,0.51273 0 0 0 -0.36535,0.1447 0.51273,0.51273 0 0 0 -0.01,0.7245 l 1.50998,1.55598 v 3.27267 l -2.80086,-1.63298 -0.59583,-2.08618 a 0.51273,0.51273 0 0 0 -0.63252,-0.35191 0.51273,0.51273 0 0 0 -0.35347,0.63303 l 0.3049,1.06867 -0.99633,-0.57464 a 0.51273,0.51273 0 0 0 -0.38912,-0.0506 0.51273,0.51273 0 0 0 -0.31213,0.23822 0.51273,0.51273 0 0 0 0.18914,0.70125 l 0.99529,0.57361 -1.07901,0.27027 a 0.51273,0.51273 0 0 0 -0.3731,0.62063 0.51273,0.51273 0 0 0 0.62322,0.37311 l 2.10633,-0.5271 2.80913,1.63762 -2.80913,1.63763 -2.10633,-0.5271 a 0.51273,0.51273 0 0 0 -0.62322,0.3731 0.51273,0.51273 0 0 0 0.3731,0.62064 l 1.07901,0.27027 -0.99529,0.5736 a 0.51273,0.51273 0 0 0 -0.18914,0.70125 0.51273,0.51273 0 0 0 0.70125,0.18759 l 0.99633,-0.57464 -0.3049,1.06867 a 0.51273,0.51273 0 0 0 0.35347,0.63303 0.51273,0.51273 0 0 0 0.63252,-0.35191 l 0.59583,-2.08618 2.80086,-1.63298 v 3.27267 l -1.50998,1.5565 a 0.51273,0.51273 0 0 0 0.0103,0.7245 0.51273,0.51273 0 0 0 0.72451,-0.0103 l 0.77514,-0.79891 v 1.14876 a 0.51273,0.51273 0 0 0 0.51367,0.5116 0.51273,0.51273 0 0 0 0.51159,-0.5116 v -1.15083 l 0.77722,0.80098 a 0.51273,0.51273 0 0 0 0.7245,0.0103 0.51273,0.51273 0 0 0 0.01,-0.7245 l -1.51154,-1.55805 v -3.27215 l 2.80293,1.63401 0.59532,2.08618 a 0.51273,0.51273 0 0 0 0.63303,0.35191 0.51273,0.51273 0 0 0 0.35347,-0.63303 l -0.30489,-1.06867 0.99632,0.57464 a 0.51273,0.51273 0 0 0 0.69918,-0.18759 0.51273,0.51273 0 0 0 -0.18758,-0.70125 l -0.99478,-0.5736 1.07901,-0.27027 a 0.51273,0.51273 0 0 0 0.3731,-0.62064 0.51273,0.51273 0 0 0 -0.62322,-0.3731 l -2.10633,0.5271 -2.80913,-1.63763 2.80913,-1.63762 2.10633,0.5271 a 0.51273,0.51273 0 0 0 0.62322,-0.37311 0.51273,0.51273 0 0 0 -0.3731,-0.62063 l -1.07901,-0.27027 0.99478,-0.57361 a 0.51273,0.51273 0 0 0 0.18758,-0.70125 0.51273,0.51273 0 0 0 -0.69918,-0.18758 l -0.99632,0.57464 0.30489,-1.06867 a 0.51273,0.51273 0 0 0 -0.35347,-0.63303 0.51273,0.51273 0 0 0 -0.63303,0.35191 l -0.59532,2.08618 -2.80293,1.63401 v -3.27164 l 1.51206,-1.55856 a 0.51273,0.51273 0 0 0 -0.0103,-0.7245 0.51273,0.51273 0 0 0 -0.36484,-0.14469 v 5.1e-4 a 0.51273,0.51273 0 0 0 -0.35966,0.15451 l -0.77722,0.80099 v -1.15083 a 0.51273,0.51273 0 0 0 -0.51159,-0.5116 z m 51.591677,7.87859 a 0.25000149,0.25000149 0 0 0 -0.25011,0.25011 v 0.55862 l -0.37673,-0.3886 a 0.25000149,0.25000149 0 0 0 -0.1757,-0.076 0.25000149,0.25000149 0 0 0 -0.17776,0.0703 0.25000149,0.25000149 0 0 0 -0.006,0.35347 l 0.73639,0.75964 v 1.59525 l -1.36581,-0.79581 -0.29042,-1.01803 a 0.25000149,0.25000149 0 0 0 -0.30851,-0.17208 0.25000149,0.25000149 0 0 0 -0.17208,0.30851 l 0.14934,0.52245 -0.48679,-0.28009 a 0.25000149,0.25000149 0 0 0 -0.18965,-0.0253 0.25000149,0.25000149 0 0 0 -0.15245,0.1173 0.25000149,0.25000149 0 0 0 0.092,0.33952 l 0.48628,0.2806 -0.52555,0.13178 a 0.25000149,0.25000149 0 0 0 -0.18345,0.3023 0.25000149,0.25000149 0 0 0 0.30489,0.1819 l 1.02681,-0.25631 1.36994,0.7984 -1.36994,0.7984 -1.02681,-0.25631 a 0.25000149,0.25000149 0 0 0 -0.30489,0.18138 0.25000149,0.25000149 0 0 0 0.18345,0.30282 l 0.52503,0.13126 -0.48576,0.2806 a 0.25000149,0.25000149 0 0 0 -0.092,0.34004 0.25000149,0.25000149 0 0 0 0.3421,0.092 l 0.48627,-0.28009 -0.14882,0.52194 a 0.25000149,0.25000149 0 0 0 0.17208,0.3085 0.25000149,0.25000149 0 0 0 0.30851,-0.17156 l 0.29042,-1.01803 1.36581,-0.79581 v 1.59525 l -0.73639,0.75964 a 0.25000149,0.25000149 0 0 0 0.006,0.35347 0.25000149,0.25000149 0 0 0 0.35346,-0.006 l 0.37673,-0.38861 v 0.56069 a 0.25000149,0.25000149 0 0 0 0.25011,0.25011 0.25000149,0.25000149 0 0 0 0.25011,-0.25011 v -0.56172 l 0.37879,0.39015 a 0.25000149,0.25000149 0 0 0 0.35347,0.006 0.25000149,0.25000149 0 0 0 0.006,-0.35346 l -0.73794,-0.75913 v -1.59577 l 1.36581,0.79582 0.29042,1.01802 a 0.25000149,0.25000149 0 0 0 0.30851,0.17157 0.25000149,0.25000149 0 0 0 0.17208,-0.30851 l -0.14831,-0.52193 0.48576,0.28009 a 0.25000149,0.25000149 0 0 0 0.3421,-0.092 0.25000149,0.25000149 0 0 0 -0.092,-0.34003 l -0.48524,-0.28008 0.52658,-0.13178 a 0.25000149,0.25000149 0 0 0 0.18139,-0.30282 0.25000149,0.25000149 0 0 0 -0.30283,-0.18139 l -1.02836,0.25632 -1.36994,-0.7984 1.36994,-0.7984 1.02836,0.25631 a 0.25000149,0.25000149 0 0 0 0.30283,-0.1819 0.25000149,0.25000149 0 0 0 -0.18139,-0.30231 l -0.52658,-0.13177 0.48524,-0.28061 a 0.25000149,0.25000149 0 0 0 0.092,-0.33951 0.25000149,0.25000149 0 0 0 -0.15245,-0.1173 0.25000149,0.25000149 0 0 0 -0.18965,0.0253 l -0.48576,0.2806 0.14831,-0.52297 a 0.25000149,0.25000149 0 0 0 -0.17208,-0.3085 0.25000149,0.25000149 0 0 0 -0.30851,0.17208 l -0.29042,1.01802 -1.36581,0.79582 v -1.59525 l 0.73846,-0.75964 a 0.25000149,0.25000149 0 0 0 -0.006,-0.35399 0.25000149,0.25000149 0 0 0 -0.17777,-0.0703 v 5.2e-4 a 0.25000149,0.25000149 0 0 0 -0.1757,0.076 l -0.37879,0.38964 v -0.55965 a 0.25000149,0.25000149 0 0 0 -0.25011,-0.25012 z m -61.052087,10.2185 a 0.25000149,0.25000149 0 0 0 -0.0553,0.008 0.25000149,0.25000149 0 0 0 -0.17777,0.30644 l 0.1447,0.54002 -0.46509,-0.27802 a 0.25000149,0.25000149 0 0 0 -0.18914,-0.0274 0.25000149,0.25000149 0 0 0 -0.15451,0.11317 0.25000149,0.25000149 0 0 0 0.0879,0.34365 l 0.90744,0.54363 0.41289,1.53945 -1.52497,-0.416 -0.54364,-0.90744 a 0.25000149,0.25000149 0 0 0 -0.34364,-0.0858 0.25000149,0.25000149 0 0 0 -0.0858,0.34365 l 0.27802,0.46354 -0.54157,-0.1447 a 0.25000149,0.25000149 0 0 0 -0.30489,0.17725 0.25000149,0.25000149 0 0 0 0.1757,0.30696 l 0.54105,0.14366 -0.47232,0.26252 a 0.25000149,0.25000149 0 0 0 -0.0977,0.34003 0.25000149,0.25000149 0 0 0 0.33952,0.0977 l 0.92656,-0.51419 1.52962,0.41755 -1.11673,1.12551 -1.05833,0.0181 a 0.25000149,0.25000149 0 0 0 -0.24598,0.25425 0.25000149,0.25000149 0 0 0 0.25425,0.24598 l 0.54312,-0.009 -0.39688,0.39584 a 0.25000149,0.25000149 0 0 0 0,0.35346 0.25000149,0.25000149 0 0 0 0.35347,0 l 0.39687,-0.39584 -0.008,0.54054 a 0.25000149,0.25000149 0 0 0 0.24598,0.25373 0.25000149,0.25000149 0 0 0 0.25425,-0.24598 l 0.0155,-1.05782 1.11259,-1.12086 0.41342,1.54099 -0.5147,0.92294 a 0.25000149,0.25000149 0 0 0 0.0982,0.34158 0.25000149,0.25000149 0 0 0 0.34004,-0.0977 l 0.26406,-0.47284 0.14573,0.54157 a 0.25000149,0.25000149 0 0 0 0.30489,0.1757 0.25000149,0.25000149 0 0 0 0.17777,-0.30645 l -0.1447,-0.54001 0.46509,0.27802 a 0.25000149,0.25000149 0 0 0 0.34365,-0.0858 0.25000149,0.25000149 0 0 0 -0.0863,-0.34365 l -0.90847,-0.54156 -0.41393,-1.54203 1.52549,0.41651 0.54312,0.90692 a 0.25000149,0.25000149 0 0 0 0.34416,0.0863 0.25000149,0.25000149 0 0 0 0.0858,-0.34209 l -0.27906,-0.46561 0.54261,0.14521 a 0.25000149,0.25000149 0 0 0 0.30489,-0.17777 0.25000149,0.25000149 0 0 0 -0.17622,-0.30437 l -0.5426,-0.14521 0.47439,-0.26303 a 0.25000149,0.25000149 0 0 0 0.0977,-0.34003 0.25000149,0.25000149 0 0 0 -0.34004,-0.0977 l -0.92552,0.51366 -1.52962,-0.41754 1.11621,-1.125 1.05781,-0.016 a 0.25000149,0.25000149 0 0 0 0.24598,-0.25373 0.25000149,0.25000149 0 0 0 -0.25373,-0.24598 l -0.54208,0.008 0.39584,-0.39481 a 0.25000149,0.25000149 0 0 0 0,-0.35398 0.25000149,0.25000149 0 0 0 -0.1757,-0.0739 h -5.2e-4 a 0.25000149,0.25000149 0 0 0 -0.17725,0.0729 l -0.39739,0.39687 0.008,-0.54157 a 0.25000149,0.25000149 0 0 0 -0.24598,-0.25425 0.25000149,0.25000149 0 0 0 -0.25373,0.2465 l -0.016,1.0573 -1.11259,1.12138 -0.41393,-1.54048 0.51521,-0.92345 a 0.25000149,0.25000149 0 0 0 -0.0977,-0.34004 0.25000149,0.25000149 0 0 0 -0.34003,0.0956 l -0.26355,0.47284 -0.14469,-0.53899 a 0.25000149,0.25000149 0 0 0 -0.25115,-0.18603 z m 34.637157,0 a 0.25000149,0.25000149 0 0 0 -0.25114,0.18603 l -0.1447,0.54002 -0.26355,-0.47387 a 0.25000149,0.25000149 0 0 0 -0.34158,-0.0956 0.25000149,0.25000149 0 0 0 -0.0956,0.34004 l 0.51521,0.92345 -0.41392,1.54151 -1.1126,-1.12241 -0.0181,-1.0573 a 0.25000149,0.25000149 0 0 0 -0.25425,-0.2465 0.25000149,0.25000149 0 0 0 -0.24598,0.25425 l 0.009,0.54002 -0.39584,-0.39584 a 0.25000149,0.25000149 0 0 0 -0.17777,-0.0724 v 5.2e-4 a 0.25000149,0.25000149 0 0 0 -0.1757,0.0739 0.25000149,0.25000149 0 0 0 0,0.35346 l 0.39533,0.39533 -0.54209,-0.008 a 0.25000149,0.25000149 0 0 0 -0.25373,0.24598 0.25000149,0.25000149 0 0 0 0.24598,0.25373 l 1.05834,0.016 1.11621,1.125 -1.53014,0.41806 -0.92553,-0.51418 a 0.25000149,0.25000149 0 0 0 -0.19172,-0.0212 0.25000149,0.25000149 0 0 0 -0.14831,0.11886 0.25000149,0.25000149 0 0 0 0.0956,0.34003 l 0.47543,0.26303 -0.54157,0.14521 a 0.25000149,0.25000149 0 0 0 -0.17777,0.30437 0.25000149,0.25000149 0 0 0 0.30644,0.17777 l 0.5426,-0.14521 -0.27853,0.46561 a 0.25000149,0.25000149 0 0 0 0.0858,0.34209 0.25000149,0.25000149 0 0 0 0.34158,-0.0863 l 0.54571,-0.90692 1.52548,-0.41651 -0.41444,1.54254 -0.90847,0.54105 a 0.25000149,0.25000149 0 0 0 -0.0858,0.34365 0.25000149,0.25000149 0 0 0 0.34365,0.0858 l 0.46509,-0.27854 -0.14469,0.54053 a 0.25000149,0.25000149 0 0 0 0.1757,0.30645 0.25000149,0.25000149 0 0 0 0.30644,-0.1757 l 0.14572,-0.54312 0.26459,0.47439 a 0.25000149,0.25000149 0 0 0 0.34003,0.0982 0.25000149,0.25000149 0 0 0 0.0956,-0.3421 l -0.51418,-0.92449 0.41341,-1.54047 1.11415,1.12293 0.016,1.05678 a 0.25000149,0.25000149 0 0 0 0.25373,0.24598 0.25000149,0.25000149 0 0 0 0.24598,-0.25373 l -0.008,-0.54054 0.39688,0.39584 a 0.25000149,0.25000149 0 0 0 0.35347,0 0.25000149,0.25000149 0 0 0 0,-0.35346 l -0.39636,-0.39584 0.54312,0.009 a 0.25000149,0.25000149 0 0 0 0.25373,-0.24598 0.25000149,0.25000149 0 0 0 -0.24598,-0.25425 l -1.0604,-0.0176 -1.1157,-1.125 1.53014,-0.41754 0.92708,0.51366 a 0.25000149,0.25000149 0 0 0 0.34003,-0.0977 0.25000149,0.25000149 0 0 0 -0.0977,-0.34003 l -0.47284,-0.26251 0.54105,-0.14366 a 0.25000149,0.25000149 0 0 0 0.1757,-0.30696 0.25000149,0.25000149 0 0 0 -0.30644,-0.17725 l -0.54002,0.14418 0.27802,-0.46251 a 0.25000149,0.25000149 0 0 0 -0.0858,-0.34416 0.25000149,0.25000149 0 0 0 -0.18914,-0.0274 0.25000149,0.25000149 0 0 0 -0.15451,0.11369 l -0.54363,0.90692 -1.52704,0.41651 0.41341,-1.53944 0.90899,-0.54415 a 0.25000149,0.25000149 0 0 0 0.0863,-0.34365 0.25000149,0.25000149 0 0 0 -0.15245,-0.11317 0.25000149,0.25000149 0 0 0 -0.18965,0.0274 l -0.46716,0.27906 0.14521,-0.54106 a 0.25000149,0.25000149 0 0 0 -0.17569,-0.30644 0.25000149,0.25000149 0 0 0 -0.0558,-0.008 z m -16.53955,0.2253 a 0.25000149,0.25000149 0 0 0 -0.0553,0.008 0.25000149,0.25000149 0 0 0 -0.18138,0.30437 l 0.25838,1.02423 -0.79995,1.38338 -0.783927,-1.3715 0.258897,-1.02629 a 0.25000149,0.25000149 0 0 0 -0.181907,-0.30283 0.25000149,0.25000149 0 0 0 -0.30437,0.17984 l -0.13126,0.52606 -0.28112,-0.48524 a 0.25000149,0.25000149 0 0 0 -0.15193,-0.11524 0.25000149,0.25000149 0 0 0 -0.18965,0.0243 0.25000149,0.25000149 0 0 0 -0.092,0.34158 l 0.2806,0.48421 -0.52245,-0.14883 a 0.25000149,0.25000149 0 0 0 -0.30902,0.1726 0.25000149,0.25000149 0 0 0 0.17208,0.31006 l 1.01906,0.28887 0.785997,1.37511 -1.587497,0.007 -0.76068,-0.73381 a 0.25000149,0.25000149 0 0 0 -0.17777,-0.0703 0.25000149,0.25000149 0 0 0 -0.1757,0.076 0.25000149,0.25000149 0 0 0 0.006,0.35346 l 0.38861,0.37517 h -0.55862 a 0.25000149,0.25000149 0 0 0 -0.25011,0.25012 0.25000149,0.25000149 0 0 0 0.25011,0.25011 h 0.55914 l -0.38913,0.37672 a 0.25000149,0.25000149 0 0 0 -0.006,0.35347 0.25000149,0.25000149 0 0 0 0.35347,0.006 l 0.76171,-0.7369 1.582327,-0.007 -0.798907,1.38131 -1.01958,0.29042 a 0.25000149,0.25000149 0 0 0 -0.17208,0.30851 0.25000149,0.25000149 0 0 0 0.30902,0.17208 l 0.52193,-0.14831 -0.28008,0.48421 a 0.25000149,0.25000149 0 0 0 0.092,0.34158 0.25000149,0.25000149 0 0 0 0.34158,-0.092 l 0.28061,-0.48473 0.13177,0.52607 a 0.25000149,0.25000149 0 0 0 0.30437,0.18138 0.25000149,0.25000149 0 0 0 0.181907,-0.30282 l -0.258387,-1.02578 0.799437,-1.38234 0.78393,1.37201 -0.25838,1.02474 a 0.25000149,0.25000149 0 0 0 0.18138,0.30438 0.25000149,0.25000149 0 0 0 0.30283,-0.18139 l 0.1328,-0.5271 0.28112,0.48628 a 0.25000149,0.25000149 0 0 0 0.3421,0.0915 0.25000149,0.25000149 0 0 0 0.0894,-0.34158 l -0.27957,-0.48472 0.52193,0.14883 a 0.25000149,0.25000149 0 0 0 0.30851,-0.17209 0.25000149,0.25000149 0 0 0 -0.17156,-0.30851 l -1.01803,-0.29042 -0.78651,-1.37562 1.58853,-0.007 0.75913,0.73587 a 0.25000149,0.25000149 0 0 0 0.35346,-0.006 0.25000149,0.25000149 0 0 0 -0.006,-0.35347 l -0.3886,-0.37672 h 0.56068 a 0.25000149,0.25000149 0 0 0 0.2496,-0.25011 0.25000149,0.25000149 0 0 0 -0.2496,-0.25012 h -0.56068 l 0.3886,-0.37672 a 0.25000149,0.25000149 0 0 0 0.006,-0.35346 0.25000149,0.25000149 0 0 0 -0.35346,-0.006 l -0.76016,0.73691 -1.5813,0.007 0.79891,-1.38132 1.01906,-0.29042 a 0.25000149,0.25000149 0 0 0 0.17209,-0.30851 0.25000149,0.25000149 0 0 0 -0.31058,-0.17208 l -0.52038,0.14831 0.28009,-0.4842 a 0.25000149,0.25000149 0 0 0 -0.0915,-0.34159 0.25000149,0.25000149 0 0 0 -0.18965,-0.0253 0.25000149,0.25000149 0 0 0 -0.15245,0.11679 l -0.28112,0.48628 -0.13281,-0.5271 a 0.25000149,0.25000149 0 0 0 -0.24753,-0.18914 z m 32.90445,0 a 0.25000149,0.25000149 0 0 0 -0.0553,0.008 0.25000149,0.25000149 0 0 0 -0.1819,0.30437 l 0.25838,1.02423 -0.79995,1.38338 -0.78393,-1.37098 0.25735,-1.02681 a 0.25000149,0.25000149 0 0 0 -0.1819,-0.30283 0.25000149,0.25000149 0 0 0 -0.30231,0.17984 l -0.13281,0.52606 -0.27957,-0.48524 a 0.25000149,0.25000149 0 0 0 -0.15244,-0.11524 0.25000149,0.25000149 0 0 0 -0.18914,0.0243 0.25000149,0.25000149 0 0 0 -0.092,0.34158 l 0.2806,0.48421 -0.52296,-0.14883 a 0.25000149,0.25000149 0 0 0 -0.30851,0.1726 0.25000149,0.25000149 0 0 0 0.17208,0.31006 l 1.01699,0.28887 0.786,1.37511 -1.58543,0.007 -0.76068,-0.73381 a 0.25000149,0.25000149 0 0 0 -0.17777,-0.0703 0.25000149,0.25000149 0 0 0 -0.1757,0.076 0.25000149,0.25000149 0 0 0 0.006,0.35346 l 0.3886,0.37517 h -0.56069 a 0.25000149,0.25000149 0 0 0 -0.25011,0.25012 0.25000149,0.25000149 0 0 0 0.25011,0.25011 h 0.56121 l -0.38964,0.37672 a 0.25000149,0.25000149 0 0 0 -0.006,0.35347 0.25000149,0.25000149 0 0 0 0.35346,0.006 l 0.76172,-0.7369 1.58129,-0.007 -0.7984,1.38079 -1.01906,0.29094 a 0.25000149,0.25000149 0 0 0 -0.17208,0.30851 0.25000149,0.25000149 0 0 0 0.30851,0.17208 l 0.52245,-0.14831 -0.28009,0.48421 a 0.25000149,0.25000149 0 0 0 0.092,0.34158 0.25000149,0.25000149 0 0 0 0.33951,-0.092 l 0.28112,-0.48524 0.13281,0.52658 a 0.25000149,0.25000149 0 0 0 0.30282,0.18138 0.25000149,0.25000149 0 0 0 0.1819,-0.30282 l -0.25838,-1.02578 0.79944,-1.38183 0.78393,1.37098 -0.25683,1.02526 a 0.25000149,0.25000149 0 0 0 0.1819,0.30438 0.25000149,0.25000149 0 0 0 0.30282,-0.18139 l 0.13229,-0.52555 0.27957,0.48473 a 0.25000149,0.25000149 0 0 0 0.3421,0.0915 0.25000149,0.25000149 0 0 0 0.0915,-0.34158 l -0.28061,-0.48524 0.52297,0.14935 a 0.25000149,0.25000149 0 0 0 0.30851,-0.17209 0.25000149,0.25000149 0 0 0 -0.17208,-0.30851 l -1.01803,-0.29042 -0.78652,-1.37562 1.58699,-0.007 0.76067,0.73587 a 0.25000149,0.25000149 0 0 0 0.35347,-0.006 0.25000149,0.25000149 0 0 0 -0.006,-0.35347 l -0.38964,-0.37672 h 0.56121 a 0.25000149,0.25000149 0 0 0 0.25011,-0.25011 0.25000149,0.25000149 0 0 0 -0.25011,-0.25012 h -0.56121 l 0.38912,-0.37672 a 0.25000149,0.25000149 0 0 0 0.006,-0.35346 0.25000149,0.25000149 0 0 0 -0.35346,-0.006 l -0.76171,0.73691 -1.58078,0.007 0.79943,-1.38132 1.01751,-0.29042 a 0.25000149,0.25000149 0 0 0 0.17208,-0.30851 0.25000149,0.25000149 0 0 0 -0.30851,-0.17208 l -0.52193,0.14883 0.27957,-0.48472 a 0.25000149,0.25000149 0 0 0 -0.0899,-0.34159 0.25000149,0.25000149 0 0 0 -0.1912,-0.0253 0.25000149,0.25000149 0 0 0 -0.15038,0.11679 l -0.28112,0.48576 -0.13281,-0.52658 a 0.25000149,0.25000149 0 0 0 -0.24753,-0.18914 z" />
    <path
       id="rect1-4"
       style="display:none;fill:#ffffff;stroke-width:0.799999;stroke-linecap:round;stroke-linejoin:round"
       d="M 34.778481,163.56143 H 49.52442 v 14.74594 H 34.778481 Z" />
  </g>
  <g
     inkscape:groupmode="layer"
     id="layer4"
     inkscape:label="Drill"
     style="display:none"
     transform="translate(-49.52442,-54.119915)">
    <path
       id="path90-7-9-7"
       style="display:inline;fill:none;fill-opacity:1;stroke:#00ff00;stroke-width:0.199601;stroke-linecap:round;stroke-linejoin:round;stroke-dasharray:none;stroke-opacity:1"
       d="m 87.168363,59.708411 c -2.89439,-0.0102 -5.79201,0.96707 -8.15476,2.93348 l 2.94896,5.8974 c 3.3e-4,8.2e-4 1.2e-4,1.3e-4 5.1e-4,10e-4 5.2e-4,8.7e-4 6e-5,3.1e-4 5.2e-4,0.001 v 0 c 0.0246,0.10567 0.0896,0.41101 0.0562,0.57813 -0.0928,0.46332 -0.58684,0.77628 -1.06654,0.78804 -0.0903,-0.0178 -0.18523,-0.0265 -0.27489,-0.0454 -1.41467,-0.35664 -2.85517,0.50352 -3.21249,1.918017 -0.17167,0.68006 -0.14754,1.21475 0.17122,1.78237 0.29843,0.46333 0.16728,1.09607 -0.29603,1.39454 l -4e-5,2.1e-4 c -6.50098,2.76532 -10.09075,8.09551 -10.75762,15.44855 -3e-5,0.55113 -0.48136,1.001 -1.0325,1.00103 v 0 c -1.74587,0.01 -3.21437,0.0525 -4.73545,0.0525 -1.35717,3e-5 0.0104,0.001 -4.06758,-0.17122 l -0.19907,-0.008 v 5e-4 l 0.002,0.1965 c 0.003,0.42145 0.0493,0.82008 0.13048,1.19496 0.0805,0.3716 0.19567,0.71991 0.33729,1.04384 0.14408,0.32951 0.3156,0.63415 0.50644,0.91233 0.18927,0.27584 0.39728,0.52596 0.61631,0.74936 0.17378,0.17724 0.35295,0.33024 0.53481,0.4657 0.28165,0.22276 0.56723,0.41819 0.85045,0.55958 0.005,0.003 -9e-5,1.2e-4 0.005,0.004 0.15976,0.10596 0.32506,0.21086 0.42961,0.38061 1.10578,2.85017 3.12018,9.438412 3.12018,13.388922 v 10.04543 c 0,9.96212 5.23668,18.69079 13.48021,22.90523 v 0 c 0.43528,0.33806 0.50769,0.96905 0.16967,1.40433 l -6.5106,8.38375 -0.56215,0.72306 c -0.19155,0.24665 -0.47571,0.37894 -0.76534,0.38577 l -2.34916,5.1e-4 c -1.34913,0 -2.5329,-0.53553 -3.37805,-1.29243 -0.84516,-0.75683 -1.34297,-1.73314 -1.34297,-2.58846 -3e-5,-1.45948 -1.1872,-2.64744 -2.64674,-2.64725 -1.45936,3e-5 -2.64515,1.18793 -2.64519,2.64725 0,5.13081 4.61798,9.17488 10.01295,9.17488 h 73.825017 c 9.59514,0 15.96243,-7.89441 15.96243,-15.87063 -3e-5,-1.45938 -1.1879,-2.64516 -2.64725,-2.64519 -1.45939,2e-5 -2.64671,1.18581 -2.64674,2.64519 0,4.19866 -2.57415,8.46101 -7.07172,9.97478 l -0.0825,0.0242 c 0,0 -0.15681,0.0451 -0.23466,0.0686 -0.3489,0.0567 -0.71688,-0.074 -0.94895,-0.37287 l -5.43014,-6.99282 c -0.32305,-0.44039 -0.23224,-1.05978 0.20577,-1.38835 v -5.2e-4 l 0.17638,-0.13202 c 0.13332,-0.0518 0.27153,-0.0972 0.40279,-0.15163 0.008,-0.002 0.0179,-0.004 0.0243,-0.005 l 0.005,-0.008 c 7.5346,-3.14138 11.67154,-10.67005 11.67154,-19.34306 v -11.73652 c 2e-5,-0.38712 0.21777,-0.72773 0.54255,-0.88809 l 0.22228,-0.10985 c 0.0476,-0.0252 0.0902,-0.0626 0.13667,-0.0907 0.0949,-0.0579 0.1891,-0.11552 0.27901,-0.18515 0.0718,-0.0553 0.13886,-0.11848 0.20732,-0.18051 0.0832,-0.0757 0.16726,-0.14833 0.24549,-0.23311 0.0733,-0.0789 0.14007,-0.16729 0.20888,-0.25322 0.0642,-0.0805 0.13167,-0.15559 0.19184,-0.24136 0.11451,-0.16257 0.22077,-0.3347 0.32027,-0.51264 0.009,-0.0164 0.0204,-0.0309 0.0294,-0.0474 7e-5,-1.3e-4 -7e-5,-3.8e-4 0,-5.2e-4 0.13576,-0.24792 0.25722,-0.5079 0.36308,-0.77463 0.31758,-0.80028 0.49459,-1.65983 0.49459,-2.42755 v -0.18927 h -0.18928 c -0.62319,0 -1.23708,0.0161 -1.84735,0.0443 -6.9e-4,4e-5 -10e-4,-3e-5 -0.002,0 -0.60684,0.0281 -1.21,0.0791 -1.81176,0.14751 -0.002,2.4e-4 -0.004,2.5e-4 -0.007,5.1e-4 -1.07047,-2.45494 -3.5117,-4.16454 -6.36981,-4.16454 h -10.06967 c -3.21056,-1.7e-4 -5.86783,-2.16389 -5.868,-5.374452 0,-3.3747 -2.66248,-5.27026 -6.03717,-5.27026 h -7.78033 c -2.60497,-1.4e-4 -4.80961,-1.71349 -5.54877,-4.07481 -0.0603,-0.2926 -0.12649,-0.58244 -0.19959,-0.87004 l -0.065,-0.24085 c -1.56997,-5.86239 -4.72202,-10.16658 -10.223567,-12.50523 0.006,-0.007 0,0 0,0 l -3e-4,2e-5 c -0.46331,-0.29848 -0.59703,-0.91625 -0.2986,-1.37959 l -0.0288,0.048 c 0.31083,-0.54635 0.36544,-1.0951 0.21866,-1.75658 -0.26736,-1.204347 -1.3337,-2.064827 -2.56731,-2.072217 l -0.19134,-0.002 c -0.13377,0.009 -0.26732,0.0355 -0.39763,0.0645 -0.0813,0.0172 -0.1706,0.0254 -0.25271,0.0418 -0.50784,0.0282 -1.06165,-0.29786 -1.15781,-0.79268 -0.0393,-0.20246 -0.0146,-0.40256 0.0604,-0.57916 l -0.008,0.0109 5.1e-4,-5.2e-4 c -6e-5,0.001 0.002,-9.3e-4 0.007,-0.0103 0.005,-0.0108 0.005,-0.0135 0.004,-0.0124 l 2.93657,-5.8025 c -2.34879,-1.98313 -5.23917,-2.98088 -8.13361,-2.99124 z m -4.08563,85.926679 v 5.1e-4 c 0.20788,0.004 0.0683,9.7e-4 0.34966,0.0207 1.20292,0.22538 2.42187,0.37288 3.65861,0.37288 H 130.0479 c 0.27493,0.0179 0.54129,0.14898 0.72357,0.38371 l 4.69368,6.04489 c -0.001,-8.9e-4 -1.3e-4,0.002 0.006,0.0114 0.008,0.009 0.0102,0.011 0.01,0.009 l 10e-6,-4e-5 -0.01,-0.009 c 0.10721,0.15907 0.16967,0.35075 0.16968,0.55699 -3e-5,0.55114 -0.4468,0.99792 -0.99794,0.99795 H 78.100583 c -0.55114,-3e-5 -0.9979,-0.44681 -0.99793,-0.99795 1e-5,-0.20624 0.0625,-0.39792 0.16967,-0.55699 l -0.0412,0.0667 0.035,-0.062 c -0.004,0.005 -0.005,0.008 0.006,-0.005 0.007,-0.01 0.008,-0.0123 0.007,-0.0114 l 4.99693,-6.43634 c 0.2007,-0.25845 0.50279,-0.39126 0.8066,-0.38577 z"
       sodipodi:nodetypes="cccscccccsccccccsccccssssccccsscccccccssccssssscccccccccccscsccccccccscsscsscscsccscccccccccsccccscccccccccccscccccccsccscccccccc" />
    <path
       id="path1"
       style="display:inline;stroke-width:0.799999;stroke-linecap:round;stroke-linejoin:round"
       d="M 34.778481,163.56143 H 49.52442 v 14.74594 H 34.778481 Z" />
  </g>
</svg>
